<?xml version="1.0" encoding="iso-8859-1"?>
<!-- Uploaded to: SVG Repo, www.svgrepo.com, Generator: SVG Repo Mixer Tools -->
<svg fill="#000000" height="800px" width="800px" version="1.1" id="Layer_1" xmlns="http://www.w3.org/2000/svg" xmlns:xlink="http://www.w3.org/1999/xlink" 
	 viewBox="0 0 257.019 257.019" xml:space="preserve">
<g>
	<g>
		<g>
			<path d="M18.508,70.397c0-7.144-7.924-15.068-8.26-15.4H8.256C7.916,55.329,0,63.249,0,70.397c0,8.152,4.78,11.06,9.252,11.06
				C13.724,81.453,18.508,78.549,18.508,70.397z M9.248,78.621c-4.08,0-6.416-2.996-6.416-8.224c0-4.612,4.396-10.056,6.416-12.316
				c2.024,2.26,6.42,7.704,6.42,12.316C15.672,75.621,13.332,78.621,9.248,78.621z"/>
			<path d="M236.724,149.553c-13.32-18.28-28.068-31.344-36.692-32.5c-2.12-0.28-7.148,1.764-7.148,1.764
				c-0.656,0.328-1.256,0.728-1.9,1.072c-16.044-0.66-32,1.184-48.528,5.708c2.2-3.456,4.796-6.108,10.636-6.228
				c9.312-0.184,18.168-1.924,26.352-3.784c6.104-1.388,20.912-7.392,21.592-9.048l0.228-0.584l-0.652-1.028l-0.624,0.004
				c-16.34,0.036-31.748,2.76-48.248,8.56c2.156-3.664,5.044-5.36,9.656-5.848c13.708-1.452,38.112-12.308,39.076-13.06l2.624-2.056
				l-3.332,0.028c-14.492,0.12-26.964,3.808-37.676,7.596c2.28-3.38,3.436-3.728,8.048-5.124l2.248-0.688
				c8.248-2.576,31.656-13.496,32.268-15.432l0.172-0.596l-0.844-1.096l-31.684,9.992c2.3-2.508,5.16-4.328,8.664-5.528
				c8.412-2.892,25.848-12.424,26.728-13.344l0.688-0.724l-0.624-0.776c-1.08-1.296-15.472,3.384-22.628,5.828
				c6.4-7.976,20.18-26.84,21.436-29.324l0.448-0.892l-1.304-0.844l-0.496,0.124c-1.664,0.428-17.452,11.424-25.772,22.844
				c0.428-2.564,0.824-4.808,1.212-7.032c0.624-3.584,1.24-7.088,1.976-11.72l0.132-0.856l-1.424-0.604l-0.528,0.364
				c-1.62,1.108-10.76,19.736-10.176,32.888c-0.94,2.216-1.792,3.992-3.248,5.584c1.996-9.764,3.532-21.208,1.892-33.904
				l-0.516-3.984l-1.644,3.664c-4.688,10.452-6.456,37.076-6.632,39.952c-0.344,0.732-1.724,3.548-3.684,6.156
				c2.18-13.944,2.256-25.636,0.284-37.448l-0.352-2.12l-1.552,1.492c-1.484,1.42-5.752,28.244-5.48,39.62
				c0.132,5.716-1.92,9.324-4.784,12.784c3.292-17.96,3.348-33.736,0.196-49.328l-0.44-2.18l-1.508,1.64
				c-1.124,1.228-1.58,2.664-1.848,3.78c-3.904,16.168-4.64,31.624-2.248,47.252c0.736,4.816-0.916,7.476-3.468,10.084
				c1.428-19.424-0.192-37.364-4.936-54.736l-0.46-1.696l-1.356,1.116c-1.704,1.412-4.004,38.76-0.052,55.936
				c0.676,2.94,0.44,5.08-0.308,6.876c-1.256,0.18-2.492,0.392-3.72,0.636c0.884-19.796-1.076-38.896-6.06-58.14l-0.468-1.804
				l-1.388,1.248c-1.604,1.44-3.288,38.732-0.188,60.788c-1.3,0.42-2.572,0.876-3.828,1.364
				c-0.408-19.072-3.108-37.352-8.284-55.384l-0.624-2.172l-1.368,1.796c-0.78,1.024-1.52,17.56-1.056,35.996
				c-2.048-3.62-4.576-7.184-7.64-10.444c-1.348-6.32-2.892-12.62-4.772-18.9l-0.94-3.16l-1.2,3.072
				c-0.84,2.148-1.36,4.536-1.692,7.748c-0.132,1.28-0.216,2.568-0.308,3.856c-2.432-1.548-5.072-2.88-7.924-3.948v-33.32
				c-0.016,0.016-0.04,0.028-0.056,0.044c0.004-0.08,0.056-0.148,0.056-0.228c0-2.976-3.9-4.9-8.952-5.796
				c-0.212-4.044-0.28-8.644,1.716-10.736c0.796-0.836,1.92-1.244,3.432-1.244c0.048,0,0.096,0,0.16,0
				c1.572,0,5.06-0.352,8.584-0.728c3.596-0.396,5.752-2.62,5.768-5.964c0.016-3.356-2.124-5.592-5.724-5.984
				c-0.848-0.084-1.708-0.072-2.572-0.064l-0.908,0.012c-4.088-0.008-8.244,0.016-12.364,0.028
				c-9.812,0.044-19.96,0.076-29.936-0.116c-5.892-0.08-11.224,1.008-16.208,3.416c-2.208,1.072-4.472,2.012-6.74,2.952
				c-2.12,0.88-4.24,1.76-6.312,2.744c-3.196,1.512-4.444,4.628-3.112,7.752c1.296,3.02,4.212,4.248,7.648,3.172
				c1.568-0.492,3.608-1.188,5.528-2.236c8.764-4.764,18.172-6.66,28.064-5.632c0.908,0.052,1.784,0.076,2.616,0.092
				c2.364,0.056,3.876,0.156,4.844,0.536c0.036,0.016,0.072,0.024,0.108,0.04c0.64,0.28,1.032,0.696,1.232,1.348
				c0.496,1.596,0.624,6.772,0.58,10.572c-4.36,0.732-7.892,2.216-8.916,4.468c-0.008-0.04-0.028-0.08-0.036-0.124l-0.292,0.292
				v34.584c-23.144,8.372-31.268,33.948-31.268,43.9v83.06c0,9.016,42.336,9.276,47.164,9.276c3.948,0,32.812-0.208,43.256-5.204
				c9.952,5.556,21.94,8.804,34.832,8.804c14.048,0,26.984-3.904,37.424-10.404c5.276,3.032,11.2,5.112,17.604,5.968
				c2.38,0.32,4.788,0.476,7.212,0.476c14.016,0,28.476-5.268,40.608-14.972c3.736-2.988,11.824-10.992,12.364-11.42
				C262.264,193.801,251.156,169.365,236.724,149.553z M187.176,122.049c-1.556,0.96-3.024,2-4.476,3.056
				c-8.328,2.356-16.532,3.892-24.692,4.64c-4.448-1.164-9.124-1.888-13.936-2.196C158.896,123.569,172.892,121.797,187.176,122.049
				z M178.148,128.685c-1.544,1.336-3.024,2.716-4.428,4.152c-2.008,0.052-4.016,0.128-6.02,0.248
				c-1.324-0.564-2.656-1.12-4.032-1.608C168.468,130.825,173.292,129.881,178.148,128.685z M129.856,72.009
				c3.796,16.296,4.856,33.184,3.236,51.428l-0.2,2.884l2.16-2.008c3.616-3.356,7.36-6.828,6.248-14.08
				c-2.344-15.324-1.62-30.488,2.208-46.356c2.64,15.388,2.112,31.116-1.62,49.184l-0.72,3.924l2.784-3.068
				c4.22-4.636,8.204-9.016,8.008-17.352c-0.212-8.884,2.132-24.836,3.656-32.964c1.192,10.772,0.636,21.792-1.704,34.924
				l-0.576,3.24l2.448-2.196c3.976-3.564,6.728-9.648,6.84-9.908l0.096-0.396c0.016-0.248,1.348-22.04,4.788-34.548
				c0.76,11.728-1.072,22.284-3.048,31.248l-0.616,2.796l2.364-1.612c3.712-2.536,5.08-5.288,6.596-8.9l0.104-0.244l-0.016-0.26
				c-0.472-8.632,3.48-19.364,6.404-25.752c-0.304,1.784-0.596,3.46-0.896,5.152c-0.644,3.7-1.304,7.476-2.128,12.636l-1.132,7.124
				l3.264-6.432c4.748-9.348,16.752-19.168,23.236-23.828c-5.848,8.336-18.52,25.392-20.896,27.636l-4.016,3.788l5.184-1.904
				c5.116-1.876,12.084-4.076,17.348-5.608c-5.784,3.104-13.904,7.2-19.044,8.964c-5.192,1.776-9.104,4.792-11.972,9.224
				l-1.712,2.644l26.604-8.388c-6.76,3.336-15.612,7.352-21.44,9.172l-2.228,0.684c-6.148,1.86-7.088,2.352-11.088,8.884
				l-1.692,2.768l3.048-1.108c10.264-3.74,21.316-7.408,34.352-8.352c-7.924,3.388-23.248,9.308-32.94,10.332
				c-6.328,0.672-10.132,3.568-12.728,9.688l-1.024,2.412l2.456-0.908c15.724-5.792,30.34-8.78,45.62-9.296
				c-4.384,2.032-11.648,4.984-16.536,6.092c-8.068,1.832-16.784,3.552-25.9,3.732c-8.424,0.168-11.392,5.28-14.008,9.788
				l-0.268,0.464c-2.636,0.016-5.22,0.204-7.772,0.48c0.564-1.912,0.668-4.188,0.008-7.056
				C127.728,106.573,128.844,82.665,129.856,72.009z M118,77.389c3.868,17.136,5.304,34.232,4.46,51.896
				c-1.22,0.28-2.42,0.592-3.608,0.932C116.488,113.237,117.212,88.685,118,77.389z M103.932,83.253
				c4.18,16.244,6.304,32.752,6.608,49.908c-0.768,0.328-1.52,0.676-2.268,1.032c-0.06-4.4-1.468-10.64-4.428-17.136
				C103.356,103.381,103.596,90.333,103.932,83.253z M87.512,91.033c0.132-1.288,0.292-2.428,0.496-3.464
				c1.084,3.852,2.016,7.712,2.888,11.58c-1.2-1.076-2.452-2.116-3.792-3.08C87.228,94.389,87.336,92.701,87.512,91.033z
				 M74.188,91.129c-0.264,0.808-4.544,2.832-13.06,2.832c-8.52,0-12.796-2.02-13.06-2.792V61.045c3.024,1.74,8.052,2.64,13.06,2.64
				c5.004,0,10.032-0.9,13.056-2.64L74.188,91.129z M53.416,36.705c-1.604-0.56-3.584-0.62-5.636-0.672
				c-0.804-0.016-1.648-0.036-2.456-0.08c-10.392-1.084-20.356,0.92-29.644,5.964c-1.328,0.728-2.88,1.352-5.02,2.024
				c-2.064,0.624-3.472,0.104-4.192-1.584c-0.74-1.72-0.108-3.204,1.716-4.072c2.032-0.96,4.112-1.824,6.192-2.688
				c2.312-0.96,4.628-1.924,6.884-3.016c4.632-2.248,9.348-3.296,14.916-3.136c10.008,0.188,20.172,0.144,30.004,0.116
				c4.112-0.016,8.112-0.016,12.352-0.028l0.956-0.012c0.744-0.02,1.48-0.036,2.216,0.048c2.124,0.232,3.2,1.288,3.192,3.148
				c-0.008,1.892-1.068,2.924-3.552,3.196c-1.764,0.192-6.32,0.788-8.028,0.676c-0.6-0.008-1.164,0.032-1.696,0.116H53.416z
				 M65.3,52.773c0.048,0.784,0.088,1.544,0.116,2.248c-0.444,0.272-1.816,0.76-4.124,0.76c-2.26,0-3.624-0.468-4.096-0.748
				c0.208-2.712,0.296-12.248-0.588-15.084c-0.048-0.152-0.124-0.264-0.18-0.408h10.688C64.776,42.877,65.048,48.313,65.3,52.773z
				 M65.448,55.293l-0.028,0.032c0-0.036,0.004-0.068,0.008-0.092L65.448,55.293z M54.412,54.177
				c-0.024,0.496-0.052,0.896-0.084,1.148c0,2.428,3.752,3.292,6.964,3.292c3.212,0,6.964-0.864,6.964-3.292l-0.164-0.2l0.164-0.004
				c-0.008-0.272-0.028-0.588-0.044-0.876c3.792,0.796,5.968,2.104,5.968,2.952c0,1.284-4.956,3.648-13.056,3.648
				c-8.1,0-13.06-2.364-13.06-3.648C48.068,56.325,50.388,54.965,54.412,54.177z M61.128,222.857
				c-25.488,0-41.76-3.324-43.196-5.308v-83.06c0-10.472,8.684-33.048,29.332-40.336c3.224,2.016,9.6,2.644,13.864,2.644
				c4.28,0,10.692-0.632,13.904-2.668c21.892,7.676,29.288,32.428,29.288,40.36v1.692c-4.952,2.772-9.396,6.112-13.196,9.912
				c-4.268-8.576-13.728-18.12-29.932-18.12c-24.644,0-32.696,20.776-32.696,27.936v49.256c0,5.328,25.028,5.744,32.696,5.744
				c5.42,0,19.436-0.224,27.212-2.228c3.384,3.928,7.4,7.452,11.952,10.46C93.876,221.021,80.068,222.857,61.128,222.857z
				 M89.024,148.409c-7.624,8.548-12.188,19.068-12.188,30.476c0,10.06,3.56,19.428,9.616,27.372
				c-4.932,0.972-13.584,1.816-25.264,1.816c-17.148,0-28.132-1.82-29.86-3.2v-48.96c0-7.388,8.588-25.1,29.86-25.1
				C77.352,130.809,85.596,140.701,89.024,148.409z M139.212,226.429c-32.192,0-58.376-21.328-58.376-47.544
				s26.188-47.544,58.38-47.544c25.048,0,46.4,12.94,54.668,31.02c-2.928,0.352-4.88,4.308-4.448,9.064
				c0.276,3.012,1.448,5.64,3.132,7.028c0.808,0.672,1.708,1.016,2.608,1.016c0.12,0,0.24-0.004,0.356-0.016
				c0.752-0.076,1.436-0.392,2.04-0.896c0,0.112,0.02,0.216,0.02,0.328C197.592,205.101,171.404,226.429,139.212,226.429z
				 M194.172,164.605c0.044-0.004,0.084-0.008,0.124-0.008c0.22,0,0.444,0.072,0.672,0.184c1.232,3.22,2.012,6.592,2.372,10.06
				c-0.476,1.384-1.236,2.272-2.032,2.352c-0.412,0.048-0.848-0.12-1.296-0.488c-1.188-0.984-2.096-3.136-2.316-5.488
				C191.356,167.501,192.732,164.749,194.172,164.605z M239.56,208.373c-13.384,10.704-29.728,15.684-44.788,13.656
				c-5.18-0.692-10.004-2.268-14.392-4.52c12.972-9.452,21.212-23.24,21.212-38.624c0-17.292-10.392-32.588-26.252-41.94
				c2.264-2.436,4.668-4.784,7.352-6.928c2.884-2.304,6.048-4.388,9.412-6.244c-0.932,10.024,8.552,29.048,20.22,45.064
				c12.496,17.144,26.24,29.696,35.016,32.148C244.864,203.697,242.276,206.209,239.56,208.373z M251.924,196.957
				c-0.524,0.416-1.332,0.556-2.376,0.416c-6.324-0.848-20.032-11.732-33.992-30.896c-17.052-23.404-22.232-42.008-18.432-45.04
				c0.392-0.312,0.936-0.472,1.628-0.472c0.236,0,0.484,0.02,0.752,0.056c6.324,0.848,20.028,11.736,33.988,30.892
				C250.544,175.317,255.72,193.921,251.924,196.957z"/>
			<path d="M204.656,126.789c-0.968-0.132-1.564,0.176-1.912,0.456c-4.424,3.54,9.248,24.852,17.096,35.624
				c9.184,12.592,21.392,26.46,26.528,27.152c0.152,0.02,0.292,0.032,0.428,0.032c0.708,0,1.188-0.252,1.48-0.488
				c4.424-3.544-9.252-24.852-17.1-35.624C221.996,141.349,209.78,127.477,204.656,126.789z M246.864,187.781
				c-1.792,0.532-11.708-7.752-25.184-26.248c-13.76-18.884-18.64-31.036-17.548-32.5c0.06-0.02,0.124-0.032,0.204-0.032
				c2.22,0,11.92,8.316,25.004,26.272C243.036,174.061,247.932,186.189,246.864,187.781z"/>
			<path d="M181.192,168.069c1.504,0,2.788-0.512,3.716-1.484c2.504-2.62,1.564-7.708-2.14-11.58
				c-2.224-2.332-5.02-3.724-7.484-3.724c-0.004,0-0.004,0-0.004,0c-1.504,0-2.788,0.512-3.716,1.48
				c-2.5,2.616-1.564,7.708,2.14,11.584C175.928,166.677,178.724,168.069,181.192,168.069z M173.204,154.329
				c0.492-0.52,1.192-0.78,2.076-0.78c1.832,0.004,4.072,1.16,5.848,3.024c2.768,2.896,3.748,6.76,2.14,8.448
				c-1.512,1.584-5.288,0.52-7.92-2.24C172.572,159.885,171.592,156.013,173.204,154.329z"/>
			<path d="M186.56,184.197c1.356-4.24-0.328-8.668-3.756-9.88c-1.44-0.508-3.06-0.388-4.54,0.352
				c-1.932,0.96-3.472,2.852-4.22,5.188c-1.364,4.24,0.32,8.668,3.752,9.88c0.584,0.208,1.2,0.308,1.816,0.308
				c0.916,0,1.84-0.224,2.716-0.656C184.264,188.429,185.808,186.533,186.56,184.197z M181.316,187.357
				c-0.648,0.324-1.656,0.64-2.772,0.24c-2.276-0.804-3.332-3.964-2.344-7.044c0.568-1.756,1.684-3.164,3.076-3.852
				c0.652-0.328,1.66-0.636,2.776-0.244c2.284,0.808,3.336,3.968,2.348,7.044C183.832,185.257,182.708,186.665,181.316,187.357z"/>
		</g>
	</g>
</g>
</svg>