<!DOCTYPE svg PUBLIC "-//W3C//DTD SVG 1.1//EN" "http://www.w3.org/Graphics/SVG/1.1/DTD/svg11.dtd">
<!-- Uploaded to: SVG Repo, www.svgrepo.com, Transformed by: SVG Repo Mixer Tools -->
<svg fill="#89be9b" version="1.1" id="Layer_1" xmlns="http://www.w3.org/2000/svg" xmlns:xlink="http://www.w3.org/1999/xlink" viewBox="0 0 512 512" xml:space="preserve" width="800px" height="800px" stroke="#89be9b">
<g id="SVGRepo_bgCarrier" stroke-width="0"/>
<g id="SVGRepo_tracerCarrier" stroke-linecap="round" stroke-linejoin="round"/>
<g id="SVGRepo_iconCarrier"> <g> <g> <path d="M430.176,63.364c10.194,0,18.486-8.294,18.486-18.486V0h-71.267v15.862h55.405v29.015c0,1.423-1.202,2.625-2.625,2.625 H84.448c0,0-5.25-1.202-5.25-2.625V23.765v-7.903h271.807V0H63.337v23.765v21.112c0,10.194,8.294,18.486,18.486,18.486h2.625 v385.272h-2.625c-10.194,0-18.486,8.294-18.486,18.487V512h60.706v-15.862H79.199v-29.016c0-1.423,1.202-2.626,2.625-2.626 h348.353c1.423,0,2.625,1.202,2.625,2.626v21.112v7.903H145.159V512h303.504v-23.765v-21.112c0-10.194-8.294-18.487-18.486-18.487 h-2.625V63.364H430.176z M411.689,411.688H192.663v15.862h219.026v21.085H100.31V100.31h219.026V84.448H100.31V63.364h311.379 V411.688z"/> </g> </g> <g> <g> <rect x="345.724" y="84.448" width="31.669" height="15.862"/> </g> </g> <g> <g> <rect x="134.603" y="411.688" width="31.668" height="15.862"/> </g> </g> <g> <g> <path d="M255.999,131.95v15.862c59.655,0.001,108.187,48.534,108.187,108.188c0,23.533-7.406,45.896-21.417,64.671 c-13.552,18.161-32.867,31.868-54.386,38.597l4.734,15.139c25.039-7.829,46.604-23.132,62.364-44.25 c16.071-21.536,24.566-47.179,24.566-74.157C380.048,187.599,324.4,131.95,255.999,131.95z"/> </g> </g> <g> <g> <path d="M147.813,255.999c0-22.231,6.674-43.578,19.299-61.731c12.345-17.752,29.477-31.27,49.543-39.095l-5.762-14.778 c-23.011,8.972-42.652,24.471-56.802,44.816c-14.483,20.826-22.139,45.303-22.139,70.788c0,68.4,55.647,124.049,124.049,124.049 v-15.862C196.346,364.186,147.813,315.653,147.813,255.999z"/> </g> </g> <g> <g> <path d="M261.268,176.179L256,171.496l-5.268,4.683c-2.059,1.829-50.339,45.325-44.376,90.405 c2.801,21.18,16.832,38.747,41.713,52.276v26.867h15.862V318.86c24.882-13.529,38.912-31.097,41.713-52.276 C311.607,221.504,263.326,178.009,261.268,176.179z M289.916,264.538c-1.828,13.736-10.564,25.758-25.985,35.861v-76.068h-15.862 v76.068c-15.421-10.103-24.156-22.125-25.985-35.861c-3.847-28.907,22.365-59.461,33.916-71.353 C267.553,205.079,293.763,235.631,289.916,264.538z"/> </g> </g> <g> <g> <path d="M332.517,256c0,25.346-12.518,49.021-33.485,63.331l8.941,13.102c25.302-17.267,40.406-45.841,40.406-76.433H332.517z"/> </g> </g> <g> <g> <path d="M204.026,179.567c-25.301,17.267-40.406,45.84-40.406,76.433h15.862c0-25.346,12.518-49.021,33.485-63.331 L204.026,179.567z"/> </g> </g> <g> <g> <rect x="118.773" y="121.396" width="21.112" height="15.862"/> </g> </g> <g> <g> <rect x="372.118" y="121.396" width="21.112" height="15.862"/> </g> </g> <g> <g> <rect x="118.773" y="374.74" width="21.112" height="15.862"/> </g> </g> <g> <g> <rect x="372.118" y="374.74" width="21.112" height="15.862"/> </g> </g> </g>
</svg>