<!DOCTYPE svg PUBLIC "-//W3C//DTD SVG 1.1//EN" "http://www.w3.org/Graphics/SVG/1.1/DTD/svg11.dtd">
<!-- Uploaded to: SVG Repo, www.svgrepo.com, Transformed by: SVG Repo Mixer Tools -->
<svg fill="#a3e2a2" height="800px" width="800px" version="1.1" id="Capa_1" xmlns="http://www.w3.org/2000/svg" xmlns:xlink="http://www.w3.org/1999/xlink" viewBox="-1.65 -1.65 58.30 58.30" xml:space="preserve" stroke="#a3e2a2" stroke-width="0.00055">
<g id="SVGRepo_bgCarrier" stroke-width="0"/>
<g id="SVGRepo_tracerCarrier" stroke-linecap="round" stroke-linejoin="round" stroke="#CCCCCC" stroke-width="0.11000000000000001"/>
<g id="SVGRepo_iconCarrier"> <g> <circle cx="47" cy="47.5" r="1"/> <circle cx="45" cy="44.5" r="1"/> <circle cx="43" cy="41.5" r="1"/> <circle cx="47" cy="41.5" r="1"/> <circle cx="41" cy="38.5" r="1"/> <circle cx="45" cy="38.5" r="1"/> <circle cx="39" cy="35.5" r="1"/> <circle cx="43" cy="35.5" r="1"/> <circle cx="49" cy="50.5" r="1"/> <circle cx="45" cy="50.5" r="1"/> <circle cx="43" cy="47.5" r="1"/> <circle cx="41" cy="44.5" r="1"/> <circle cx="39" cy="41.5" r="1"/> <circle cx="37" cy="38.5" r="1"/> <circle cx="39" cy="47.5" r="1"/> <circle cx="37" cy="44.5" r="1"/> <circle cx="35" cy="41.5" r="1"/> <circle cx="41" cy="50.5" r="1"/> <circle cx="37" cy="50.5" r="1"/> <circle cx="35" cy="47.5" r="1"/> <circle cx="33" cy="44.5" r="1"/> <circle cx="31" cy="47.5" r="1"/> <circle cx="33" cy="50.5" r="1"/> <circle cx="29" cy="50.5" r="1"/> <path d="M53.374,45.686c-1.015-1.256-2.436-3.569-3.809-5.807c-1.439-2.346-2.8-4.562-3.847-5.855 c-1.63-2.011-3.631-3.239-5.719-3.478V1.5c0-0.553-0.448-1-1-1H8.006c-0.005,0-0.01,0.003-0.015,0.003S7.981,0.5,7.976,0.5H1 c-0.552,0-1,0.447-1,1v46c0,0.399,0.238,0.761,0.605,0.919l6.976,3C7.708,51.473,7.842,51.5,7.976,51.5 c0.006,0,0.012-0.002,0.018-0.002c0.005,0,0.008,0.002,0.013,0.002H23.47c0.058,0.26,0.136,0.514,0.257,0.752 c0.523,1.025,1.861,2.248,5.261,2.248h18.16c3.774,0,6.498-1.169,7.471-3.207C55.406,49.644,54.964,47.653,53.374,45.686z M6.976,48.981L2,46.842V2.5h4.976V48.981z M9.006,2.5H38V30.6c-0.268,0.046-0.533,0.109-0.796,0.187 c-0.071,0.021-0.141,0.051-0.211,0.074c-0.203,0.067-0.406,0.138-0.605,0.224c-0.1,0.043-0.197,0.094-0.295,0.141 c-0.168,0.081-0.335,0.164-0.499,0.258c-0.104,0.059-0.206,0.124-0.308,0.188c-0.156,0.098-0.309,0.201-0.461,0.311 c-0.101,0.073-0.202,0.148-0.301,0.227c-0.151,0.119-0.298,0.245-0.444,0.375c-0.093,0.083-0.187,0.164-0.278,0.252 c-0.156,0.15-0.306,0.31-0.456,0.473c-0.075,0.082-0.152,0.158-0.225,0.243c-0.219,0.254-0.433,0.52-0.637,0.803 c-0.898,1.244-1.995,3.129-3.169,5.2c-0.241,0.425-0.484,0.854-0.731,1.292c-0.452,0.801-0.908,1.607-1.354,2.384 c-0.922,1.604-1.803,3.076-2.509,4.05c-0.013,0.018-0.022,0.035-0.035,0.053c-0.141,0.197-0.269,0.392-0.388,0.585 c-0.035,0.058-0.066,0.116-0.099,0.174c-0.091,0.158-0.176,0.315-0.252,0.471c-0.029,0.059-0.055,0.118-0.082,0.177 c-0.07,0.155-0.132,0.309-0.187,0.461c-0.02,0.055-0.041,0.111-0.059,0.166c-0.014,0.043-0.033,0.088-0.046,0.131H9.006V2.5z M28.988,52.5c-1.836,0-3.104-0.422-3.479-1.156c0-0.001,0-0.002,0-0.002C25.797,51.166,26,50.863,26,50.5 c0-0.315-0.155-0.585-0.384-0.768c0.016-0.038,0.025-0.074,0.042-0.113c0.012-0.028,0.027-0.057,0.04-0.086 c0.064-0.139,0.139-0.282,0.223-0.427c0.022-0.038,0.042-0.076,0.066-0.114c0.105-0.175,0.221-0.353,0.352-0.535 c0.033-0.046,0.069-0.101,0.103-0.148C26.604,48.419,26.789,48.5,27,48.5c0.552,0,1-0.448,1-1c0-0.358-0.199-0.658-0.482-0.835 c0.274-0.444,0.557-0.915,0.848-1.409C28.539,45.402,28.755,45.5,29,45.5c0.552,0,1-0.448,1-1c0-0.432-0.277-0.791-0.66-0.931 c0.08-0.141,0.161-0.282,0.241-0.424c0.205-0.361,0.409-0.722,0.613-1.083C30.375,42.32,30.661,42.5,31,42.5c0.552,0,1-0.448,1-1 c0-0.528-0.412-0.948-0.93-0.986c0.334-0.589,0.665-1.167,0.989-1.723C32.185,39.198,32.551,39.5,33,39.5c0.552,0,1-0.448,1-1 s-0.448-1-1-1c-0.071,0-0.134,0.026-0.201,0.041c0.445-0.735,0.86-1.383,1.229-1.904C34.097,36.121,34.496,36.5,35,36.5 c0.552,0,1-0.448,1-1s-0.448-1-1-1c-0.013,0-0.024,0.007-0.037,0.007c0.268-0.277,0.541-0.538,0.827-0.76 c0.184-0.143,0.371-0.271,0.561-0.39c0.018-0.011,0.035-0.026,0.053-0.037c0.834-0.512,1.722-0.793,2.624-0.818 c0.002,0,0.003-0.001,0.004-0.001c0.044-0.001,0.088-0.002,0.132-0.002c1.771,0,3.542,0.984,5,2.784 c0.966,1.191,2.354,3.454,3.697,5.642c0.579,0.944,1.165,1.896,1.732,2.79C49.425,43.589,49.227,43.5,49,43.5c-0.552,0-1,0.448-1,1 s0.448,1,1,1s1-0.448,1-1c0-0.076-0.027-0.142-0.043-0.213c0.628,0.973,1.219,1.837,1.741,2.5C51.517,46.61,51.272,46.5,51,46.5 c-0.552,0-1,0.448-1,1s0.448,1,1,1s1-0.448,1-1c0-0.256-0.103-0.483-0.261-0.66c0.026,0.033,0.055,0.073,0.081,0.104 c0.748,0.925,1.138,1.802,1.167,2.559C52.441,49.511,52,49.953,52,50.5c0,0.248,0.1,0.467,0.249,0.642 C51.295,52,49.488,52.5,47.148,52.5H28.988z"/> <path d="M21,25.727c0.552,0,1-0.447,1-1v-3.658c0-0.149-0.012-0.296-0.022-0.442l0.308,0.308c0.195,0.195,0.451,0.293,0.707,0.293 s0.512-0.098,0.707-0.293l0.324-0.324C24.012,20.763,24,20.914,24,21.069v3.658c0,0.553,0.448,1,1,1h3.658 c3.497,0,6.342-2.845,6.342-6.341v-3.659c0-0.553-0.448-1-1-1h-3.658c-0.828,0-1.617,0.164-2.343,0.454 c0.428-2.029-0.14-4.229-1.713-5.802l-2.587-2.587c-0.391-0.391-1.023-0.391-1.414,0L19.698,9.38 c-1.571,1.571-2.14,3.768-1.714,5.795c-0.721-0.286-1.504-0.448-2.326-0.448H12c-0.552,0-1,0.447-1,1v3.659 c0,3.496,2.845,6.341,6.342,6.341H21z M33,16.727v2.659c0,2.394-1.948,4.341-4.342,4.341H26v-2.658 c0-2.395,1.948-4.342,4.342-4.342H33z M21.112,10.794l1.88-1.88l1.88,1.88c1.692,1.692,1.692,4.447,0,6.14l-1.88,1.88l-1.88-1.88 C19.42,15.241,19.42,12.486,21.112,10.794z M13,19.387v-2.659h2.658c2.394,0,4.342,1.947,4.342,4.342v2.658h-2.658 C14.948,23.727,13,21.78,13,19.387z"/> <path d="M32,32.5c0-0.553-0.448-1-1-1H16c-0.552,0-1,0.447-1,1s0.448,1,1,1h15C31.552,33.5,32,33.053,32,32.5z"/> <path d="M19,28.5c-0.552,0-1,0.447-1,1s0.448,1,1,1h10c0.552,0,1-0.447,1-1s-0.448-1-1-1H19z"/> <path d="M30,35.5c0-0.553-0.448-1-1-1H19c-0.552,0-1,0.447-1,1s0.448,1,1,1h10C29.552,36.5,30,36.053,30,35.5z"/> </g> </g>
</svg>