<?xml version="1.0" standalone="no"?>
<!DOCTYPE svg PUBLIC "-//W3C//DTD SVG 20010904//EN"
 "http://www.w3.org/TR/2001/REC-SVG-20010904/DTD/svg10.dtd">
<svg version="1.0" xmlns="http://www.w3.org/2000/svg"
 width="1234.000000pt" height="1291.000000pt" viewBox="0 0 1234.000000 1291.000000"
 preserveAspectRatio="xMidYMid meet">

<g transform="translate(0.000000,1291.000000) scale(0.100000,-0.100000)"
fill="#000000" stroke="none">
<path d="M0 6455 l0 -6455 6170 0 6170 0 0 6455 0 6455 -6170 0 -6170 0 0
-6455z m6791 5215 c1152 -89 2225 -530 3099 -1274 136 -116 417 -392 534 -526
291 -330 551 -710 753 -1100 67 -131 168 -351 208 -455 115 -301 171 -477 234
-735 106 -432 151 -816 151 -1275 0 -270 -10 -431 -40 -675 -136 -1090 -614
-2131 -1351 -2940 -307 -337 -648 -629 -1023 -875 -471 -309 -941 -525 -1481
-681 -293 -84 -643 -151 -985 -186 -169 -18 -823 -17 -990 0 -961 101 -1771
394 -2545 920 -267 181 -486 362 -733 606 -275 271 -484 523 -696 838 -525
784 -827 1669 -897 2626 -15 210 -6 725 15 922 130 1168 598 2216 1367 3060
206 225 444 446 675 627 852 664 1849 1044 2954 1126 111 8 629 6 751 -3z"/>
<path d="M5736 11038 c-3 -46 -10 -218 -16 -383 -6 -165 -14 -303 -18 -307 -4
-3 -65 -18 -137 -33 -243 -49 -515 -131 -680 -205 -37 -17 -75 -30 -85 -30
-20 0 -58 59 -285 438 -69 116 -132 212 -139 212 -8 0 -25 -9 -39 -20 -14 -11
-28 -20 -32 -20 -3 0 -72 -42 -153 -93 -81 -51 -175 -111 -210 -133 -35 -21
-89 -56 -120 -76 -31 -21 -64 -41 -72 -44 -8 -4 -41 -25 -72 -46 -31 -21 -59
-38 -62 -38 -11 0 -116 -75 -116 -82 0 -5 52 -113 117 -241 64 -128 127 -254
140 -282 13 -27 37 -77 53 -109 16 -32 26 -64 22 -71 -4 -6 -54 -54 -112 -107
-164 -149 -300 -299 -465 -511 -37 -49 -73 -91 -79 -93 -7 -3 -61 23 -121 57
-61 34 -177 99 -260 144 -82 46 -183 101 -222 123 -40 22 -75 37 -77 34 -25
-45 -77 -143 -136 -257 -40 -77 -76 -144 -80 -150 -7 -10 -41 -74 -175 -330
-38 -71 -79 -147 -92 -167 -13 -21 -23 -41 -23 -45 0 -5 19 -20 43 -35 23 -14
96 -63 162 -108 66 -46 188 -128 270 -184 83 -55 153 -105 158 -111 8 -12 7
-16 -26 -110 -31 -87 -71 -219 -92 -305 -9 -36 -20 -78 -25 -95 -28 -94 -70
-350 -100 -611 -16 -145 -21 -134 58 -134 51 0 73 5 92 20 14 11 29 20 33 20
5 0 23 10 39 22 29 20 30 23 23 72 -4 28 -8 76 -9 106 -1 51 1 56 29 69 48 24
170 20 225 -7 25 -12 53 -28 62 -35 14 -9 25 -8 55 8 55 30 60 39 68 107 12
120 60 360 105 523 10 39 81 241 113 325 74 192 235 485 375 680 122 170 195
255 376 435 254 253 500 431 814 590 l134 67 -33 20 c-33 20 -33 21 -13 36 20
16 20 17 -10 37 -67 45 -121 220 -80 256 26 22 133 54 143 43 10 -10 94 -234
104 -275 5 -19 1 -34 -15 -55 -26 -33 -42 -36 162 35 397 139 825 199 1225
172 99 -7 205 -16 235 -21 289 -46 453 -86 662 -161 143 -51 219 -84 353 -150
83 -42 288 -158 340 -194 43 -29 229 -167 235 -174 3 -3 28 -24 55 -46 127
-101 352 -333 475 -488 90 -115 212 -299 285 -427 47 -82 155 -303 155 -316 0
-3 7 -20 15 -37 51 -113 128 -349 161 -497 9 -41 20 -88 25 -105 4 -16 18
-100 30 -185 11 -85 23 -158 25 -162 3 -4 25 -16 50 -28 l46 -20 45 35 c25 19
64 40 87 47 53 16 156 14 193 -4 l28 -13 2 -124 c1 -94 5 -127 16 -138 11 -11
39 -15 109 -16 l93 0 3 38 c7 76 -58 486 -107 675 -46 181 -58 223 -106 365
-25 73 -45 135 -45 137 0 3 61 47 136 99 74 52 199 138 277 192 78 54 149 102
157 107 10 6 11 12 3 22 -5 7 -34 58 -63 113 -29 55 -70 131 -92 168 -21 38
-38 70 -38 72 0 2 -17 34 -38 72 -22 37 -59 106 -84 153 -25 47 -71 132 -103
190 -32 58 -65 117 -72 132 -8 15 -18 30 -23 33 -5 3 -34 -10 -65 -30 -30 -19
-57 -35 -60 -35 -3 0 -34 -18 -70 -40 -36 -22 -67 -40 -69 -40 -7 0 -301 -171
-311 -181 -19 -19 -42 -8 -73 35 -36 50 -166 210 -224 276 -75 85 -286 295
-351 350 -36 30 -68 60 -71 67 -3 7 8 38 24 70 16 32 61 126 100 208 40 83 98
202 128 265 31 63 58 118 60 122 3 7 -41 37 -111 77 -18 10 -153 93 -300 185
-148 91 -270 166 -273 166 -2 0 -33 19 -69 43 -130 84 -133 86 -143 74 -12
-15 -122 -198 -122 -203 0 -2 -18 -33 -40 -69 -22 -36 -40 -68 -40 -71 0 -3
-16 -30 -35 -60 -19 -30 -35 -56 -35 -59 0 -16 -94 -155 -105 -155 -7 0 -49
15 -93 34 -73 31 -263 97 -337 116 -130 35 -286 71 -370 85 -55 10 -106 23
-113 30 -16 14 -19 57 -32 395 -5 151 -13 296 -16 323 l-7 47 -507 0 -508 0
-6 -82z m118 -860 c3 -13 7 -45 10 -73 3 -27 12 -97 20 -155 7 -58 12 -108 10
-111 -5 -10 -51 -17 -62 -10 -6 3 -20 84 -32 180 -23 187 -23 191 27 191 15 0
24 -7 27 -22z m134 -10 c2 -14 10 -32 18 -38 17 -15 19 -56 3 -66 -16 -10 -3
-139 17 -169 24 -37 12 -57 -33 -53 -49 4 -63 31 -63 121 0 47 -6 78 -17 98
-14 24 -15 32 -4 52 7 14 10 34 7 45 -5 14 -1 24 11 31 30 18 58 9 61 -21z
m987 6 c50 -8 101 -45 109 -79 9 -36 -9 -97 -38 -124 -18 -17 -35 -22 -68 -21
-23 1 -48 1 -54 1 -7 -1 -15 -22 -19 -48 -12 -84 -15 -93 -40 -93 -41 0 -54
23 -43 77 5 26 18 99 28 162 22 123 32 146 64 137 12 -3 39 -9 61 -12z m-535
-62 c0 -31 -7 -43 -35 -58 -17 -9 -22 -27 -29 -102 -9 -95 -19 -112 -60 -96
-15 6 -16 23 -14 143 l3 136 52 0 c28 0 55 3 59 7 12 13 24 -2 24 -30z m-312
-77 c3 -104 13 -135 39 -113 11 9 14 34 12 105 -3 102 4 119 45 109 22 -5 26
-13 28 -44 4 -83 3 -120 -2 -177 l-5 -60 -45 -1 c-25 -1 -54 -5 -66 -8 -13 -5
-28 -1 -45 12 -23 19 -24 27 -27 138 -3 105 -2 119 14 131 40 29 49 14 52 -92z
m508 74 c25 -23 38 -75 28 -113 -6 -24 -10 -26 -64 -26 -61 0 -74 -9 -63 -49
7 -27 29 -27 43 0 9 15 19 19 43 17 27 -3 32 -7 29 -28 -3 -38 -46 -70 -93
-70 -32 0 -47 7 -71 30 -30 31 -30 32 -26 116 3 64 9 91 25 111 34 47 106 53
149 12z m-906 -21 c28 -146 46 -265 43 -270 -2 -5 -21 -8 -41 -8 -20 0 -46 -7
-56 -15 -26 -19 -39 -19 -66 3 -17 14 -27 43 -45 132 -25 125 -21 143 24 138
24 -3 27 -8 42 -94 17 -98 23 -114 45 -114 18 0 18 14 -2 118 -8 46 -13 90
-10 98 4 11 65 22 66 12z m-474 -44 c8 -31 -9 -45 -46 -42 -18 2 -26 10 -28
27 -7 46 63 60 74 15z m231 -24 c32 -29 39 -61 17 -77 -25 -18 -42 -16 -54 7
-13 25 -40 26 -40 3 1 -10 6 -45 13 -78 10 -49 17 -60 32 -60 15 0 19 6 17 24
-5 46 61 59 72 14 14 -55 -40 -113 -104 -113 -52 0 -102 103 -102 208 0 73 98
120 149 72z m1698 9 c4 -6 19 -7 36 -4 21 5 31 2 35 -9 9 -23 -19 -71 -44 -74
-27 -4 -35 -18 -57 -109 -13 -57 -21 -73 -35 -73 -30 0 -50 11 -50 29 0 15 45
211 55 239 5 15 51 16 60 1z m225 -54 c16 -8 34 -25 41 -36 25 -48 -24 -214
-71 -239 -28 -15 -80 -5 -114 21 -22 17 -26 29 -26 68 0 106 53 201 112 201
16 0 42 -7 58 -15z m-2104 -120 c18 -66 33 -123 34 -128 0 -16 -49 -31 -63
-19 -18 15 -73 233 -64 256 5 12 15 16 33 14 25 -3 29 -10 60 -123z m2432 79
c4 -28 -117 -334 -132 -334 -7 0 -21 7 -32 15 -10 8 -31 15 -46 15 -16 0 -38
10 -49 21 -18 18 -21 29 -16 70 8 62 54 157 90 183 26 19 29 19 56 3 38 -23
38 -23 56 19 12 30 19 35 42 32 19 -2 29 -9 31 -24z m-2568 -4 c13 -24 5 -56
-15 -64 -21 -8 -19 -32 10 -117 24 -70 25 -75 8 -87 -40 -29 -54 -13 -95 108
-21 63 -38 122 -38 131 0 19 20 29 55 29 13 0 27 5 30 10 10 17 34 11 45 -10z
m-412 -229 c62 -77 112 -146 112 -154 0 -8 -12 -19 -27 -26 -25 -11 -29 -10
-60 23 -30 32 -36 34 -59 24 -24 -11 -25 -16 -19 -56 7 -49 -5 -72 -40 -72
-21 0 -26 12 -64 168 -23 92 -41 172 -41 179 0 12 57 51 76 52 6 1 61 -62 122
-138z m3053 119 c26 -15 24 -27 -16 -111 -37 -77 -42 -103 -24 -115 14 -8 23
7 68 109 27 63 37 77 56 77 12 0 28 -7 35 -15 10 -12 3 -37 -41 -135 -44 -100
-56 -120 -75 -120 -12 0 -27 7 -34 15 -7 8 -24 15 -38 15 -59 0 -78 57 -43
133 11 23 31 68 45 100 26 59 34 64 67 47z m274 -135 c46 -27 61 -58 46 -98
-12 -32 -21 -37 -48 -26 -18 7 -23 16 -23 44 0 55 -25 41 -68 -37 -29 -55 -34
-70 -23 -80 10 -11 16 -9 31 10 20 25 40 28 58 10 19 -19 14 -42 -13 -68 -31
-29 -74 -29 -115 0 -54 38 -51 94 10 187 30 46 71 82 94 83 5 0 28 -11 51 -25z
m205 -122 c48 -40 54 -65 29 -124 -12 -27 -28 -49 -35 -49 -8 0 -32 11 -54 25
-49 31 -53 31 -70 0 -19 -35 -1 -54 34 -36 18 10 29 10 45 2 27 -15 27 -29 -1
-58 -33 -35 -82 -31 -124 11 -43 43 -43 72 -4 142 67 116 117 140 180 87z
m-3900 -15 c12 -13 47 -59 77 -102 59 -84 62 -108 12 -114 -20 -2 -32 10 -72
72 -47 72 -69 92 -88 80 -16 -10 -10 -26 47 -107 60 -85 63 -109 13 -114 -20
-3 -33 11 -77 77 -30 44 -60 80 -68 80 -33 0 -24 -33 31 -111 61 -87 64 -111
14 -116 -20 -2 -35 14 -96 102 -69 100 -81 135 -47 135 7 0 29 16 48 35 20 19
43 35 52 35 10 0 32 16 50 35 37 41 73 46 104 13z m4063 -102 c12 -13 31 -25
41 -27 29 -6 29 -23 1 -54 -20 -20 -29 -25 -38 -16 -21 21 -36 11 -92 -64 -30
-41 -58 -75 -63 -75 -19 1 -44 31 -40 47 8 31 141 213 155 213 8 0 24 -11 36
-24z m-4370 -116 c37 -29 147 -167 147 -184 0 -8 -9 -18 -21 -21 -11 -4 -34
-22 -51 -41 -42 -46 -76 -45 -117 1 -37 42 -38 60 -10 119 22 44 20 81 -4 74
-6 -3 -14 -18 -15 -34 -5 -36 -19 -54 -42 -54 -20 0 -30 19 -30 59 0 27 33 66
75 89 28 16 39 15 68 -8z m4723 -41 c38 -36 48 -71 30 -113 -19 -46 -41 -55
-69 -28 -18 19 -19 24 -8 46 16 30 8 56 -17 56 -20 0 -55 -35 -121 -119 -43
-57 -46 -68 -18 -85 12 -8 22 -5 42 14 22 21 27 22 50 10 55 -29 4 -99 -72
-100 -35 0 -48 6 -78 35 -41 41 -45 76 -16 133 27 52 129 162 165 177 35 15
79 5 112 -26z m-4907 -121 c157 -167 156 -165 136 -188 -26 -29 -39 -25 -87
27 -24 26 -76 82 -115 124 -73 76 -83 95 -61 117 23 23 40 12 127 -80z m-112
-76 c32 -20 173 -156 173 -166 0 -6 -12 -23 -27 -37 -16 -15 -36 -38 -46 -53
-25 -37 -67 -35 -106 5 -34 33 -38 59 -20 120 14 45 7 71 -17 62 -11 -4 -14
-14 -10 -33 3 -19 -1 -33 -13 -44 -23 -21 -38 -20 -51 3 -17 33 -11 67 18 98
42 47 74 61 99 45z m5123 -39 c85 -59 77 -124 -24 -207 -55 -45 -89 -58 -119
-47 -32 13 -77 68 -77 95 0 49 125 176 174 176 12 0 33 -8 46 -17z m-5288
-131 c2 -5 39 -40 83 -77 144 -124 159 -152 113 -211 -33 -42 -50 -53 -80 -54
-39 0 -38 35 2 58 16 9 30 24 30 33 0 29 -13 29 -31 -1 -37 -60 -89 -45 -191
53 -41 40 -69 89 -57 102 2 2 24 26 49 54 42 46 74 63 82 43z m5481 -66 c26
-30 47 -60 47 -67 0 -7 18 -27 40 -46 38 -33 50 -64 32 -88 -14 -20 -181 -155
-191 -155 -6 0 -18 12 -28 26 -19 30 -29 17 86 108 39 30 61 54 59 64 -6 32
-35 22 -106 -38 -74 -62 -89 -69 -110 -48 -24 24 -11 45 63 104 74 59 95 94
54 94 -17 0 -87 -51 -147 -107 -17 -17 -22 -16 -44 4 -26 23 -22 46 10 66 15
9 59 43 97 76 39 33 75 60 80 60 6 1 31 -24 58 -53z m-5640 -127 c12 -7 45
-31 72 -54 28 -23 62 -49 77 -59 14 -9 29 -24 32 -33 6 -15 -19 -53 -34 -53
-4 0 -41 27 -83 60 -41 33 -82 60 -91 60 -33 0 -13 -31 59 -91 41 -34 75 -70
75 -79 0 -22 -25 -44 -42 -37 -29 11 -193 151 -196 166 -2 9 9 27 23 41 14 13
25 29 25 36 0 11 45 54 57 54 2 0 14 -5 26 -11z m5827 -121 c61 -75 80 -103
80 -119 0 -26 -56 -87 -115 -124 -77 -49 -93 -50 -131 -10 -38 41 -45 42 -69
15 -22 -24 -29 -25 -49 -4 -31 31 -17 48 114 142 71 52 132 98 135 103 8 13
22 11 35 -3z m-5920 -119 c25 -15 66 -41 92 -56 50 -29 59 -51 32 -74 -9 -7
-22 -29 -30 -50 -20 -48 -53 -66 -93 -50 -53 22 -66 46 -66 119 0 57 -3 67
-19 70 -17 4 -18 0 -13 -34 11 -64 -39 -91 -63 -34 -16 40 -7 71 34 115 40 42
52 41 126 -6z m6074 -120 c31 -24 56 -69 56 -99 0 -23 -45 -69 -88 -91 -15 -7
-46 -26 -69 -41 -54 -36 -71 -35 -88 5 -7 18 -23 41 -34 51 -42 38 -19 98 49
126 23 9 34 8 61 -5 19 -10 42 -24 51 -32 10 -9 25 -13 33 -9 24 9 14 41 -12
42 -46 2 -69 44 -35 63 26 16 47 13 76 -10z m-6165 -110 c53 -29 98 -53 100
-55 2 -2 1 -15 -3 -29 -9 -36 -40 -32 -127 15 -40 23 -80 39 -89 38 -35 -7
-10 -35 68 -79 45 -26 85 -49 89 -52 3 -3 3 -18 -1 -32 -9 -35 -32 -32 -118
15 -82 44 -108 50 -108 21 0 -14 23 -31 85 -63 47 -23 87 -49 90 -56 7 -19
-13 -52 -31 -52 -21 0 -232 112 -238 127 -3 6 4 23 15 36 10 14 19 32 19 41 0
8 14 31 30 49 17 19 30 45 30 58 0 31 38 69 68 69 14 0 68 -23 121 -51z m6294
-117 c8 -21 22 -44 31 -51 22 -18 20 -56 -3 -78 -11 -10 -63 -40 -116 -68 -94
-48 -97 -49 -111 -30 -24 32 -12 48 69 90 93 50 106 60 89 77 -10 10 -30 3
-97 -31 -95 -48 -120 -50 -120 -8 0 25 10 33 100 82 123 66 138 67 158 17z
m-6462 -208 c57 -26 108 -50 113 -55 6 -6 1 -20 -12 -39 -12 -16 -22 -38 -22
-48 0 -11 -9 -31 -21 -46 -28 -35 -69 -34 -111 3 -28 25 -33 37 -38 87 -4 47
-9 60 -24 62 -16 3 -18 0 -12 -25 10 -40 9 -64 -4 -77 -25 -25 -78 42 -66 87
7 31 62 97 80 97 7 0 59 -21 117 -46z m6559 17 c16 -31 13 -36 -46 -75 -31
-21 -53 -40 -50 -43 3 -3 33 0 66 7 67 14 90 5 90 -35 0 -21 -8 -24 -142 -45
-180 -27 -227 -25 -248 12 -13 25 -13 29 2 45 15 14 21 15 42 3 29 -15 36 -11
171 94 76 59 99 66 115 37z m-6632 -251 c96 -33 107 -45 79 -84 -13 -18 -18
-17 -108 17 -77 28 -96 32 -108 22 -21 -20 -8 -30 81 -60 112 -37 124 -49 95
-89 -12 -16 -19 -15 -117 19 -58 20 -133 46 -168 57 -61 20 -63 22 -60 52 3
33 3 33 78 24 21 -2 26 2 28 24 2 15 14 36 28 47 27 22 20 23 172 -29z m6852
-79 c21 -40 12 -50 -62 -72 -40 -11 -84 -25 -98 -29 -14 -5 -45 -14 -69 -20
-40 -11 -43 -13 -37 -38 19 -83 19 -90 -2 -101 -33 -18 -49 -3 -65 57 -8 31
-20 72 -25 89 l-11 33 82 24 c45 14 118 36 162 49 100 31 112 32 125 8z
m-7043 -112 c15 -21 101 -44 163 -44 40 0 45 -3 48 -23 4 -30 -24 -62 -53 -62
-13 0 -53 9 -90 21 -42 13 -77 18 -97 14 -22 -5 -35 -2 -51 13 -12 11 -32 23
-44 27 -15 4 -23 14 -23 28 0 38 14 49 52 42 21 -4 38 -3 42 4 8 13 37 2 53
-20z m7018 -119 c3 -5 20 -7 36 -3 58 11 69 -50 14 -73 -19 -8 -35 -18 -35
-23 0 -15 -31 -21 -51 -11 -28 15 -132 -8 -165 -37 -31 -26 -36 -27 -52 -11
-13 13 -16 57 -4 74 10 14 55 30 124 45 32 7 65 20 74 31 18 19 49 24 59 8z
m-6944 -40 c93 -35 119 -82 84 -149 -19 -39 -63 -55 -122 -46 -100 15 -163 58
-163 112 0 31 25 79 47 92 29 17 99 13 154 -9z m6970 -129 c14 -11 24 -31 25
-47 1 -27 3 -29 45 -29 43 0 44 0 44 -34 l0 -35 -169 -33 c-113 -22 -173 -30
-180 -23 -5 5 -11 23 -12 39 -1 15 -7 38 -14 51 -27 51 10 92 102 115 80 19
132 18 159 -4z m-7202 -91 c32 -27 65 -50 73 -50 9 0 51 9 94 20 44 11 90 20
103 20 21 0 23 -3 17 -32 -9 -44 -13 -47 -84 -60 -81 -15 -83 -48 -3 -48 42 0
65 -22 57 -53 -7 -31 -31 -34 -113 -17 -26 6 -93 19 -147 30 -54 10 -103 23
-108 28 -12 12 0 59 18 66 8 3 26 1 40 -4 14 -6 35 -10 47 -10 18 1 13 9 -32
49 -49 44 -53 51 -46 79 3 18 11 32 17 32 5 0 35 -22 67 -50z m7049 -192 c3
-22 -2 -30 -22 -39 -31 -15 -56 2 -56 36 0 26 13 35 50 32 19 -2 26 -8 28 -29z"/>
<path d="M6936 10088 c-10 -39 -7 -66 9 -72 41 -15 79 42 49 75 -23 26 -50 24
-58 -3z"/>
<path d="M6550 10064 c-10 -11 -10 -17 0 -28 15 -19 40 -10 40 14 0 24 -25 33
-40 14z"/>
<path d="M7351 9916 c-13 -16 -41 -109 -41 -138 0 -11 8 -18 20 -18 15 0 23
14 40 71 19 62 20 74 7 86 -12 12 -15 12 -26 -1z"/>
<path d="M7582 9827 c-6 -6 -20 -36 -32 -66 -21 -55 -17 -80 13 -68 17 6 61
122 52 136 -8 14 -20 14 -33 -2z"/>
<path d="M4650 9695 c0 -21 32 -76 42 -73 20 7 19 23 -2 51 -19 24 -40 36 -40
22z"/>
<path d="M8217 9506 c-7 -17 18 -40 33 -31 5 3 10 15 10 26 0 23 -35 27 -43 5z"/>
<path d="M4085 9189 c-13 -19 4 -59 25 -59 22 0 26 20 10 51 -12 21 -25 25
-35 8z"/>
<path d="M3814 8945 c-4 -8 1 -27 11 -41 15 -24 18 -25 33 -11 14 14 13 18 -2
41 -19 29 -34 33 -42 11z"/>
<path d="M8811 8946 c-52 -52 -59 -76 -23 -76 26 0 116 95 109 114 -11 27 -31
18 -86 -38z"/>
<path d="M3573 8822 c-5 -11 10 -31 47 -64 59 -52 68 -56 77 -32 4 10 -9 31
-37 59 -48 49 -78 62 -87 37z"/>
<path d="M9203 8478 c-56 -43 -67 -68 -32 -68 31 0 119 68 119 91 0 30 -30 23
-87 -23z"/>
<path d="M3365 8390 c-8 -13 21 -60 36 -60 19 0 21 31 4 50 -20 22 -31 25 -40
10z"/>
<path d="M9276 8233 c-11 -27 11 -40 41 -23 41 23 40 40 0 40 -23 0 -37 -6
-41 -17z"/>
<path d="M3080 7842 c0 -23 19 -42 42 -42 24 0 23 36 -1 50 -29 15 -41 12 -41
-8z"/>
<path d="M2793 7284 c-8 -22 4 -30 76 -48 49 -13 67 -14 78 -4 21 17 -1 34
-72 53 -73 19 -74 19 -82 -1z"/>
<path d="M9761 7155 c-61 -15 -81 -29 -64 -46 8 -8 28 -9 74 0 69 12 85 22 76
45 -7 18 -13 18 -86 1z"/>
<path d="M4896 9785 c-7 -19 29 -119 50 -136 29 -24 38 4 19 63 -25 75 -55
108 -69 73z"/>
<path d="M4977 9583 c-13 -12 -7 -23 13 -23 11 0 20 7 20 15 0 15 -21 21 -33
8z"/>
<path d="M5790 8567 c0 -3 20 -43 44 -90 24 -46 58 -120 76 -163 17 -43 36
-88 40 -99 5 -11 20 -58 35 -105 14 -47 32 -105 40 -130 75 -233 192 -883 165
-915 -7 -8 -62 -15 -153 -19 -347 -16 -738 -69 -1047 -142 -340 -80 -531 -136
-853 -254 -87 -31 -345 -139 -400 -167 -35 -17 -47 -28 -43 -41 32 -112 56
-331 56 -511 0 -130 7 -169 27 -139 13 22 16 370 4 414 -7 21 -14 87 -18 145
l-6 107 27 17 c41 27 156 32 209 9 65 -28 103 -61 146 -125 36 -54 86 -181 93
-238 3 -23 7 -25 68 -26 44 -1 78 -9 105 -23 43 -21 124 -95 165 -149 24 -31
27 -32 65 -24 81 19 576 57 850 66 493 16 612 16 920 6 335 -12 381 -15 500
-25 33 -3 119 -10 190 -16 228 -19 598 -61 700 -80 28 -5 75 -12 106 -15 l55
-7 37 75 c66 133 181 220 295 222 l55 1 26 89 c34 112 61 164 114 223 55 59
125 92 199 92 67 0 138 -25 139 -49 3 -65 -4 -169 -17 -241 -11 -66 -13 -128
-8 -275 11 -309 25 -280 39 80 6 150 15 224 41 350 9 44 18 92 21 106 5 25 0
28 -144 83 -81 32 -157 62 -168 67 -43 19 -292 102 -418 140 -189 57 -428 116
-607 150 -85 16 -177 33 -205 39 -130 25 -448 57 -655 65 -85 4 -163 9 -172
11 -9 3 -20 19 -23 37 -4 18 -44 109 -90 202 -57 117 -87 190 -95 234 -14 76
-44 160 -69 193 -10 13 -39 79 -65 148 -56 147 -119 283 -184 395 -86 149
-212 328 -212 302z m1316 -1782 c58 -17 109 -64 100 -92 -3 -10 -26 -41 -50
-68 l-44 -50 -23 21 c-53 48 -105 56 -166 27 -101 -47 -135 -208 -56 -260 34
-22 108 -13 162 21 49 31 49 31 77 -42 17 -42 17 -43 -6 -68 -36 -37 -118 -73
-186 -80 -197 -21 -307 125 -245 325 64 205 254 321 437 266z m550 0 c78 -23
138 -98 150 -188 7 -48 -15 -146 -45 -204 -65 -127 -224 -214 -364 -199 -69 7
-90 17 -139 64 -101 97 -84 280 40 413 102 110 232 152 358 114z m-2451 -14
c-22 -70 -45 -165 -45 -186 0 -20 5 -25 24 -25 44 0 89 43 146 137 l55 92 78
1 c47 0 77 -4 77 -10 0 -17 -39 -89 -81 -151 -35 -52 -79 -97 -115 -117 -13
-7 -8 -27 31 -130 48 -130 54 -166 29 -176 -28 -11 -140 -6 -156 7 -8 6 -29
58 -47 115 -30 96 -34 103 -54 96 -12 -3 -24 -8 -26 -10 -2 -1 -13 -49 -25
-106 l-21 -103 -87 -3 c-49 -1 -88 0 -88 3 0 3 20 83 44 178 24 95 54 225 66
290 l23 117 89 0 c83 0 89 -1 83 -19z m757 -206 c20 -121 40 -253 44 -293 l7
-73 -89 3 -89 3 -3 43 -3 43 -97 -3 -97 -3 -23 -42 -23 -43 -80 0 c-54 0 -79
4 -79 12 0 6 75 139 168 295 l167 283 80 -3 80 -2 37 -220z m607 200 c60 -35
76 -67 76 -148 -1 -116 -55 -210 -150 -260 -30 -16 -64 -22 -137 -25 -109 -5
-96 5 -113 -94 l-6 -38 -84 0 c-58 0 -85 4 -85 12 0 6 16 79 36 162 20 83 47
207 59 275 13 68 29 128 37 133 7 5 85 8 173 6 138 -3 165 -6 194 -23z"/>
<path d="M7450 6612 c-164 -105 -97 -319 77 -247 71 30 113 92 113 169 0 64
-30 97 -96 103 -42 4 -56 0 -94 -25z"/>
<path d="M5762 6522 c-23 -41 -42 -78 -42 -83 0 -15 90 -11 96 5 3 8 2 45 -3
83 l-8 68 -43 -73z"/>
<path d="M6332 6643 c-10 -18 -42 -152 -42 -172 0 -16 97 -13 129 4 57 29 82
139 39 169 -32 23 -115 21 -126 -1z"/>
<path d="M9195 6763 c-180 -41 -283 -301 -300 -758 -10 -274 -15 -365 -31
-520 -28 -283 -49 -371 -83 -351 -7 5 -11 44 -11 101 0 51 -9 253 -21 447 -21
373 -21 476 1 650 17 129 14 133 -68 133 -138 -1 -229 -121 -274 -363 -13 -69
-15 -284 -8 -812 3 -216 1 -283 -13 -362 -9 -53 -22 -108 -29 -122 -14 -32
-38 -34 -39 -3 0 12 -2 83 -5 157 -8 272 -24 918 -24 1008 0 89 -1 92 -22 92
-32 -1 -97 -33 -134 -67 -41 -38 -69 -80 -93 -140 -41 -104 -50 -185 -51 -453
-2 -347 -15 -531 -56 -760 -34 -190 -98 -376 -154 -447 -11 -14 -19 -28 -17
-29 7 -7 197 38 298 70 284 92 499 225 720 445 175 175 261 295 375 523 88
174 84 145 74 500 -12 411 -11 757 1 893 6 61 11 123 12 140 2 31 -9 37 -48
28z"/>
<path d="M9704 6725 c-27 -18 -59 -46 -71 -63 -32 -44 -72 -138 -79 -186 -4
-23 -12 -51 -20 -62 -7 -12 -12 -34 -12 -50 0 -16 -5 -56 -11 -89 -12 -66 -14
-127 -5 -195 3 -25 7 -94 8 -155 l3 -110 -6 102 c-7 123 -23 151 -20 35 1 -45
-1 -85 -5 -89 -3 -4 -3 -22 0 -41 5 -25 3 -33 -5 -28 -10 7 -17 -46 -11 -97 1
-10 -4 -24 -10 -32 -14 -17 -30 -115 -19 -115 5 0 9 -4 9 -10 0 -5 -5 -9 -12
-7 -7 1 -17 -16 -23 -40 -5 -23 -13 -45 -18 -49 -4 -4 -7 -17 -7 -29 0 -12 -7
-36 -16 -53 -8 -18 -13 -36 -9 -42 3 -5 2 -10 -4 -10 -5 0 -13 -10 -17 -22
-13 -42 -87 -193 -121 -246 -18 -29 -33 -55 -33 -58 0 -2 -10 -18 -21 -33 -13
-17 -18 -34 -14 -42 5 -7 4 -10 -3 -5 -6 3 -21 -8 -33 -26 -13 -18 -28 -36
-34 -40 -5 -4 -6 -8 -1 -8 6 0 3 -6 -5 -12 -9 -7 -35 -38 -59 -68 -42 -53
-110 -122 -218 -222 -28 -27 -45 -48 -37 -48 8 0 15 -5 15 -11 0 -6 -9 -8 -20
-4 -14 5 -33 -3 -62 -26 -22 -18 -36 -35 -29 -37 21 -7 11 -19 -13 -15 -14 3
-31 0 -38 -6 -32 -28 -130 -91 -141 -91 -7 0 -3 -8 8 -16 19 -15 19 -15 -8 -8
-18 4 -34 1 -45 -8 -9 -8 -43 -28 -75 -43 -31 -15 -60 -32 -64 -38 -3 -6 -1
-7 5 -3 7 4 12 3 12 -2 0 -6 9 -8 20 -5 11 3 20 12 20 20 0 8 5 13 12 11 23
-8 17 -23 -15 -39 -28 -14 -35 -14 -53 -3 -18 12 -28 10 -85 -20 -35 -18 -81
-39 -102 -45 -20 -7 -35 -17 -32 -22 4 -5 -8 -9 -24 -9 -17 0 -31 -4 -31 -10
0 -5 -13 -10 -30 -10 -16 0 -30 -4 -30 -10 0 -5 -14 -10 -30 -10 -17 0 -33 -6
-35 -12 -3 -7 -24 -14 -48 -16 -23 -2 -46 -8 -52 -14 -7 -7 7 -9 47 -6 31 3
55 1 53 -3 -3 -4 5 -9 16 -12 23 -6 17 -27 -7 -27 -8 0 -26 7 -40 16 -20 14
-29 15 -51 5 -14 -6 -28 -9 -31 -6 -3 3 1 5 9 5 10 1 9 3 -3 11 -13 7 -37 4
-89 -11 -39 -12 -77 -19 -85 -16 -8 3 -14 2 -14 -3 0 -4 -28 -11 -62 -15 -35
-3 -64 -11 -66 -16 -2 -6 -10 -10 -19 -10 -29 0 14 30 44 31 l28 0 -25 10
c-14 6 -33 8 -42 5 -10 -2 -18 -1 -18 3 0 4 -18 14 -40 21 -22 7 -40 17 -40
22 0 4 -6 8 -13 8 -7 0 -28 16 -47 35 -25 26 -36 32 -43 22 -5 -7 -6 -3 -2 11
4 14 1 30 -7 40 -8 9 -22 37 -31 62 -23 61 -24 252 -2 294 8 15 15 46 15 68 0
21 4 37 8 34 4 -2 20 37 36 87 15 51 34 107 42 125 8 18 14 58 14 88 0 35 4
53 10 49 6 -4 10 -3 8 2 -1 4 2 37 6 73 4 39 3 85 -4 115 -6 28 -13 62 -15 76
-5 41 -41 103 -80 138 -38 33 -63 34 -45 0 7 -13 7 -19 0 -19 -5 0 -10 6 -10
14 0 8 -6 17 -12 19 -10 4 -10 6 0 6 21 2 13 16 -16 28 -29 13 -170 26 -184
17 -5 -3 -4 -11 1 -18 6 -7 13 -48 15 -92 2 -43 1 -68 -3 -54 -7 24 -8 24 -15
-10 -4 -19 -14 -69 -22 -110 -8 -41 -19 -89 -25 -106 -5 -17 -9 -41 -9 -55 0
-13 -7 -33 -15 -43 -8 -11 -15 -30 -15 -42 0 -13 -4 -25 -9 -28 -4 -3 -11 -18
-14 -33 -3 -16 -9 -37 -12 -48 -7 -20 -6 -20 9 -1 15 19 16 19 16 -10 0 -16
-5 -36 -11 -44 -9 -12 -10 -11 -6 8 3 15 0 22 -9 22 -8 0 -14 -10 -14 -25 0
-14 -4 -25 -9 -25 -5 0 -11 -10 -14 -22 -6 -27 -24 -80 -42 -123 -24 -58 -33
-80 -50 -125 -10 -25 -24 -59 -31 -77 -14 -31 -10 -68 7 -57 5 3 9 -3 9 -12 0
-16 -1 -16 -20 1 -19 17 -20 17 -26 -1 -3 -11 -14 -37 -24 -59 -31 -71 -33
-85 -14 -106 22 -24 31 -24 39 1 8 26 25 26 25 0 0 -11 -6 -20 -14 -20 -8 0
-17 -11 -20 -24 -3 -14 -15 -28 -26 -31 -11 -3 -20 -11 -20 -16 0 -6 5 -7 10
-4 6 4 10 -6 10 -22 0 -15 3 -39 6 -53 5 -20 4 -22 -6 -10 -9 12 -10 8 -5 -17
6 -29 4 -33 -15 -33 -11 0 -23 -7 -26 -15 -9 -22 -31 -18 -37 7 -4 12 -4 24
-2 27 3 2 5 -1 5 -7 0 -7 9 -12 20 -12 15 0 20 7 20 29 0 16 7 34 15 41 21 17
19 36 -7 70 -12 16 -19 33 -15 37 4 3 7 2 7 -4 0 -12 48 -5 56 8 5 9 -31 49
-44 49 -10 0 -37 -70 -35 -88 0 -8 -6 -22 -15 -33 -20 -23 -42 -93 -42 -136 0
-17 -4 -34 -9 -37 -5 -3 -11 -23 -14 -43 -3 -21 -10 -58 -16 -83 -5 -25 -10
-68 -11 -95 0 -28 -4 -55 -10 -61 -5 -5 -9 -68 -9 -139 0 -72 0 -149 -1 -172
0 -24 4 -43 10 -43 6 0 10 -25 10 -59 0 -32 7 -78 15 -102 9 -24 16 -53 17
-65 2 -25 24 -22 31 4 4 15 5 15 6 0 0 -10 6 -18 11 -18 6 0 10 -5 10 -11 0
-8 -4 -9 -13 0 -8 6 -17 8 -20 4 -10 -9 -9 -50 2 -71 5 -9 25 -51 45 -92 28
-60 65 -130 83 -159 2 -3 10 4 18 15 17 23 20 12 3 -15 -9 -15 -8 -22 5 -36
10 -9 31 -36 47 -60 17 -24 39 -47 50 -50 11 -4 18 -10 15 -15 -3 -5 14 -27
37 -49 24 -23 51 -49 61 -58 11 -10 23 -17 29 -15 5 1 7 -2 3 -8 -3 -5 2 -13
11 -17 10 -4 34 -22 53 -40 19 -18 40 -33 46 -33 5 0 22 -11 37 -25 15 -14 34
-25 43 -25 8 0 15 -4 15 -9 0 -10 47 -42 66 -45 8 -1 19 -7 25 -13 6 -6 18 -9
25 -6 8 3 14 -1 14 -11 0 -9 8 -16 20 -16 11 0 20 -4 20 -8 0 -11 72 -42 98
-42 12 0 22 -4 22 -8 0 -5 12 -14 27 -21 21 -10 28 -9 34 1 8 11 13 5 11 -13
-1 -3 25 -14 56 -24 39 -12 57 -14 60 -6 2 6 8 8 13 5 6 -3 5 -11 -2 -20 -9
-11 -7 -14 15 -14 15 0 36 -5 46 -10 10 -6 31 -12 47 -14 15 -2 40 -8 54 -14
41 -17 64 -18 62 -5 -2 7 4 13 12 13 8 0 15 -7 15 -15 0 -14 37 -35 61 -35 5
0 -3 24 -17 53 -30 57 -36 78 -64 212 -27 125 -26 298 1 435 12 58 23 129 26
159 3 34 8 49 13 40 6 -9 10 -4 15 17 3 16 10 37 16 46 5 10 9 23 9 30 0 30
152 317 173 326 4 2 7 8 7 14 0 6 11 26 25 44 14 18 25 35 25 38 0 3 9 16 19
28 54 63 89 113 85 120 -3 5 -2 7 3 6 10 -4 133 128 133 142 0 5 6 10 13 10 7
0 29 16 48 36 18 20 75 70 124 112 50 41 92 79 93 84 2 4 8 8 13 8 12 0 49 38
49 51 0 5 4 8 8 5 13 -8 226 210 218 223 -12 18 -25 12 -32 -14 -7 -30 -28
-28 -32 3 -3 17 2 22 17 22 16 0 21 6 21 25 0 18 4 23 16 18 10 -3 14 -13 11
-25 -4 -14 -1 -18 11 -16 9 2 16 11 16 21 -1 9 3 17 8 17 13 0 38 26 38 40 0
6 5 8 10 5 6 -3 13 2 17 12 4 10 12 23 17 29 6 6 27 30 46 54 19 23 47 57 63
75 15 18 27 36 27 40 0 6 16 28 60 82 6 7 10 15 10 18 0 3 18 30 40 60 22 30
40 61 40 70 0 8 5 15 10 15 6 0 10 6 10 14 0 8 7 16 15 20 8 3 15 12 15 21 0
9 9 26 21 38 11 12 28 38 37 57 9 19 29 56 45 82 16 26 25 53 21 59 -4 7 -3 9
3 6 16 -10 173 320 173 363 0 10 5 20 11 22 14 5 17 52 6 93 -6 20 -5 27 1 20
6 -5 12 -19 14 -30 3 -13 7 -7 12 20 4 22 14 52 22 68 9 15 14 40 13 55 -2 15
1 33 5 41 5 7 11 54 13 105 2 50 8 102 13 116 5 14 11 90 14 170 5 134 10 200
21 273 3 17 1 26 -5 22 -6 -3 -10 1 -10 9 0 9 3 16 8 16 4 0 8 73 10 163 1 89
5 199 8 245 5 59 3 82 -5 82 -6 0 -16 -10 -21 -22 l-9 -23 0 23 c-1 20 -6 22
-44 21 -29 -2 -59 -12 -93 -34z m59 -9 c3 -8 4 -22 2 -32 -2 -11 -4 -22 -4
-26 -1 -5 -19 -8 -41 -8 -31 0 -40 -4 -40 -17 -1 -17 -1 -17 -11 0 -9 15 -6
23 15 40 14 13 26 28 26 35 0 8 7 9 26 1 24 -8 25 -8 14 6 -7 8 -8 15 -2 15 5
0 12 -6 15 -14z m90 -77 c-5 -5 -9 6 -10 28 0 37 0 38 9 10 6 -18 7 -32 1 -38z
m-208 -9 c3 -5 1 -10 -4 -10 -6 0 -11 5 -11 10 0 6 2 10 4 10 3 0 8 -4 11 -10z
m25 -54 c-8 -8 -13 -7 -20 4 -12 20 -1 33 16 19 11 -9 12 -15 4 -23z m177 -13
c-3 -10 -5 -4 -5 12 0 17 2 24 5 18 2 -7 2 -21 0 -30z m-167 -29 c0 -8 -4 -12
-10 -9 -5 3 -10 10 -10 16 0 5 5 9 10 9 6 0 10 -7 10 -16z m-87 -36 c-7 -39
-9 -42 -22 -34 -6 4 -4 17 7 36 9 17 18 30 19 30 1 0 0 -15 -4 -32z m38 5
c-12 -20 -14 -14 -5 12 4 9 9 14 11 11 3 -2 0 -13 -6 -23z m179 -38 c0 -25 -4
-45 -10 -45 -5 0 -10 20 -10 45 0 25 5 45 10 45 6 0 10 -20 10 -45z m37 -27
c-3 -7 -5 -2 -5 12 0 14 2 19 5 13 2 -7 2 -19 0 -25z m-242 3 c3 -5 1 -12 -5
-16 -5 -3 -10 1 -10 9 0 18 6 21 15 7z m-20 -41 c3 -5 2 -10 -4 -10 -5 0 -13
5 -16 10 -3 6 -2 10 4 10 5 0 13 -4 16 -10z m-20 -30 c3 -5 1 -10 -4 -10 -6 0
-11 5 -11 10 0 6 2 10 4 10 3 0 8 -4 11 -10z m50 -10 c3 -5 -1 -10 -10 -10 -9
0 -13 5 -10 10 3 6 8 10 10 10 2 0 7 -4 10 -10z m-18 -52 c-3 -7 -5 -2 -5 12
0 14 2 19 5 13 2 -7 2 -19 0 -25z m175 -50 c-9 -9 -15 -9 -24 0 -9 9 -7 12 12
12 19 0 21 -3 12 -12z m48 -88 c0 -38 -3 -70 -8 -70 -4 0 -6 19 -4 41 3 26 0
44 -8 49 -9 6 -9 13 -1 29 7 11 14 21 16 21 3 0 5 -31 5 -70z m-236 35 c3 -9
0 -15 -9 -15 -8 0 -15 7 -15 15 0 8 4 15 9 15 5 0 11 -7 15 -15z m-36 -47 c-6
-18 -28 -21 -28 -4 0 9 7 16 16 16 9 0 14 -5 12 -12z m132 -38 c0 -5 -5 -10
-11 -10 -5 0 -7 5 -4 10 3 6 8 10 11 10 2 0 4 -4 4 -10z m92 -62 c-9 -9 -12
-7 -12 12 0 19 3 21 12 12 9 -9 9 -15 0 -24z m-152 -19 c0 -5 -4 -9 -10 -9 -5
0 -10 7 -10 16 0 8 5 12 10 9 6 -3 10 -10 10 -16z m199 -46 c-1 -53 -6 -49
-11 10 -2 20 0 37 4 37 4 0 8 -21 7 -47z m-132 -15 c-3 -7 -5 -2 -5 12 0 14 2
19 5 13 2 -7 2 -19 0 -25z m84 7 c5 13 7 2 5 -32 -2 -56 -16 -86 -16 -36 0 17
-2 43 -4 59 -2 16 -1 20 2 9 l4 -20 9 20z m19 -157 c0 -16 -3 -19 -11 -11 -6
6 -8 16 -5 22 11 17 16 13 16 -11z m-200 2 c0 -5 -4 -10 -10 -10 -5 0 -10 5
-10 10 0 6 5 10 10 10 6 0 10 -4 10 -10z m-75 -79 c-6 -35 -4 -40 15 -43 l22
-3 -21 -19 c-21 -19 -21 -19 -21 3 0 12 -4 20 -9 17 -4 -3 -3 15 2 39 13 55
21 59 12 6z m285 29 c0 -5 -4 -10 -10 -10 -5 0 -10 5 -10 10 0 6 5 10 10 10 6
0 10 -4 10 -10z m-120 -35 c0 -11 -11 -15 -40 -15 -29 0 -40 4 -40 15 0 11 11
15 40 15 29 0 40 -4 40 -15z m119 -52 c0 -32 -3 -52 -6 -45 -2 6 -9 10 -14 6
-5 -3 -7 9 -5 28 3 18 5 41 5 51 1 9 6 17 11 17 6 0 10 -25 9 -57z m-63 -71
c-15 -15 -16 -14 -16 13 0 17 3 41 7 55 7 23 8 22 16 -13 8 -31 6 -42 -7 -55z
m-49 26 c-2 -13 -4 -5 -4 17 -1 22 1 32 4 23 2 -10 2 -28 0 -40z m-207 -45
c-11 -17 -11 -17 -6 0 3 10 7 33 8 50 l1 32 4 -32 c2 -18 -1 -41 -7 -50z m130
14 c0 -4 -6 -2 -14 5 -8 7 -12 17 -9 22 5 8 23 -12 23 -27z m55 3 c-3 -5 -10
-10 -16 -10 -5 0 -9 5 -9 10 0 6 7 10 16 10 8 0 12 -4 9 -10z m106 -83 c-6
-30 -18 -63 -26 -73 -14 -18 -14 -18 -15 2 0 12 7 35 15 50 8 16 15 45 15 64
0 26 3 31 12 22 9 -9 8 -24 -1 -65z m-253 2 c2 -57 -12 -59 -21 -2 -6 32 -2
44 18 53 1 0 2 -23 3 -51z m202 25 c0 -14 -4 -23 -10 -19 -5 3 -10 15 -10 26
0 10 5 19 10 19 6 0 10 -12 10 -26z m-124 -14 c10 0 14 -12 12 -42 -1 -37 -2
-39 -5 -10 -2 17 -8 32 -12 32 -4 0 -16 7 -27 16 -17 14 -17 15 -1 10 10 -3
25 -6 33 -6z m94 -33 c0 -12 -5 -29 -10 -37 -7 -11 -10 -3 -10 28 0 26 4 41
10 37 6 -3 10 -16 10 -28z m-204 -52 c16 -25 16 -61 -1 -59 -6 0 -12 9 -13 20
-2 10 -11 24 -19 31 -15 12 -10 33 7 33 5 0 17 -11 26 -25z m-54 -67 c-8 -34
-22 -29 -22 7 0 30 2 34 13 23 8 -7 12 -20 9 -30z m263 -30 c-6 -17 -4 -20 10
-14 15 5 16 2 10 -21 -3 -16 -12 -34 -20 -42 -11 -11 -13 -5 -10 35 3 60 4 64
11 64 3 0 2 -10 -1 -22z m-2647 -29 c-9 -6 -6 -9 10 -9 13 0 21 3 19 8 -3 4
17 5 44 4 27 -2 47 -8 44 -13 -3 -4 -12 -6 -20 -2 -8 3 -15 0 -15 -6 0 -6 -5
-11 -11 -11 -5 0 -7 5 -3 11 5 9 -4 10 -30 5 -24 -5 -43 -3 -52 5 -17 14 -9
30 12 22 13 -5 13 -7 2 -14z m2386 -12 c3 3 6 2 6 -4 0 -14 -27 -36 -33 -26
-2 4 -7 21 -11 38 l-8 30 20 -22 c10 -13 22 -20 26 -16z m-2177 -110 c-2 -6
-13 4 -26 21 -18 26 -19 32 -7 32 9 0 16 6 17 13 0 6 5 -3 10 -21 6 -19 8 -39
6 -45z m2379 7 c-19 -18 -21 -11 -4 19 7 14 13 17 15 10 3 -7 -3 -20 -11 -29z
m-2598 -50 c2 -38 1 -66 -2 -64 -8 9 -15 141 -8 136 4 -3 9 -35 10 -72z m2399
54 c-3 -8 -6 -5 -6 6 -1 11 2 17 5 13 3 -3 4 -12 1 -19z m-52 -4 c-17 -17 -31
-18 -38 -1 -3 8 6 12 24 13 23 1 25 -1 14 -12z m-2075 -68 c0 -42 -2 -47 -13
-33 -7 10 -11 37 -8 64 4 60 21 36 21 -31z m2270 70 c0 -3 -4 -8 -10 -11 -5
-3 -10 -1 -10 4 0 6 5 11 10 11 6 0 10 -2 10 -4z m80 -26 c0 -5 -5 -10 -11
-10 -5 0 -7 5 -4 10 3 6 8 10 11 10 2 0 4 -4 4 -10z m-310 -21 c0 -5 -4 -9
-10 -9 -5 0 -10 7 -10 16 0 8 5 12 10 9 6 -3 10 -10 10 -16z m-2091 -28 c-15
-5 -22 6 -14 19 6 9 10 9 16 -1 5 -8 4 -15 -2 -18z m2070 -21 c-18 -54 -22
-60 -32 -60 -5 0 -16 -8 -23 -17 -13 -17 -13 -17 -14 0 0 9 5 17 10 17 6 0 10
6 10 14 0 8 9 21 20 29 17 11 19 21 14 43 -6 24 -5 26 8 14 11 -11 13 -22 7
-40z m284 31 c3 -14 1 -18 -9 -14 -15 6 -18 16 -7 26 9 10 10 9 16 -12z
m-2478 -1 c3 -5 1 -10 -4 -10 -6 0 -11 5 -11 10 0 6 2 10 4 10 3 0 8 -4 11
-10z m75 0 c0 -5 -7 -10 -16 -10 -8 0 -12 5 -9 10 3 6 10 10 16 10 5 0 9 -4 9
-10z m2158 -31 c-3 -8 -7 -3 -11 10 -4 17 -3 21 5 13 5 -5 8 -16 6 -23z m159
-16 c-3 -10 -5 -4 -5 12 0 17 2 24 5 18 2 -7 2 -21 0 -30z m37 22 c-4 -8 -7
-15 -9 -15 -2 0 -5 7 -9 15 -3 9 0 15 9 15 9 0 12 -6 9 -15z m81 -23 c-5 -13
-8 -14 -15 -3 -5 8 -3 19 3 26 14 15 22 1 12 -23z m-2625 -2 c0 -4 -6 -22 -14
-40 -12 -29 -14 -30 -19 -11 -3 12 -1 21 5 21 6 0 8 11 4 25 -5 19 -3 23 9 19
8 -4 15 -10 15 -14z m320 -10 c0 -5 -4 -10 -10 -10 -5 0 -10 5 -10 10 0 6 5
10 10 10 6 0 10 -4 10 -10z m2056 -27 c-10 -10 -19 5 -10 18 6 11 8 11 12 0 2
-7 1 -15 -2 -18z m203 -29 c1 -12 -5 -24 -13 -27 -23 -9 -27 5 -9 25 14 16 15
21 4 27 -8 5 -10 14 -6 22 10 15 23 -12 24 -47z m-2392 -36 c-2 -13 -4 -3 -4
22 0 25 2 35 4 23 2 -13 2 -33 0 -45z m2150 40 c-3 -8 -6 -5 -6 6 -1 11 2 17
5 13 3 -3 4 -12 1 -19z m-80 -39 c3 -10 10 -19 15 -19 6 0 5 -6 -2 -15 -16
-20 -30 -10 -31 23 0 15 -3 21 -6 14 -5 -12 -23 -7 -23 6 0 18 42 10 47 -9z
m63 -6 c0 -13 -3 -13 -15 -3 -8 7 -12 16 -9 21 8 13 24 1 24 -18z m-2310 2 c0
-8 5 -15 10 -15 6 0 10 -7 10 -15 0 -8 -4 -15 -10 -15 -5 0 -10 7 -10 15 0 8
-4 15 -10 15 -5 0 -10 7 -10 15 0 8 5 15 10 15 6 0 10 -7 10 -15z m2490 -5 c0
-5 -18 -10 -40 -10 -22 0 -40 5 -40 10 0 6 18 10 40 10 22 0 40 -4 40 -10z
m-2403 -32 c-3 -8 -6 -5 -6 6 -1 11 2 17 5 13 3 -3 4 -12 1 -19z m140 -40 c-2
-13 -4 -3 -4 22 0 25 2 35 4 23 2 -13 2 -33 0 -45z m50 30 c-3 -7 -5 -2 -5 12
0 14 2 19 5 13 2 -7 2 -19 0 -25z m1941 11 c10 -13 8 -20 -7 -37 -17 -20 -48
-31 -39 -14 3 4 10 22 17 40 7 18 14 32 15 30 1 -2 7 -10 14 -19z m310 10
c-10 -5 -18 -19 -18 -29 0 -24 -10 -25 -36 -4 -19 15 -18 15 4 11 14 -3 22 0
22 8 0 13 15 23 35 24 6 0 2 -4 -7 -10z m-2558 -21 c-1 -18 -25 -48 -39 -48
-17 0 -13 21 7 41 20 21 32 24 32 7z m2191 -25 c-8 -15 -10 -15 -11 -2 0 17
10 32 18 25 2 -3 -1 -13 -7 -23z m-2101 -8 c0 -8 -4 -15 -10 -15 -5 0 -10 -9
-10 -20 0 -11 -7 -20 -15 -20 -8 0 -15 9 -15 20 0 11 7 20 15 20 8 0 15 7 15
15 0 8 5 15 10 15 6 0 10 -7 10 -15z m223 -58 c2 -40 -1 -53 -10 -50 -8 3 -13
-3 -13 -13 0 -16 -2 -17 -15 -3 -9 9 -13 23 -9 33 5 14 9 15 16 4 7 -9 8 -4 3
15 -4 19 -2 26 5 22 6 -4 10 6 10 26 0 54 12 24 13 -34z m-183 3 c0 -22 -3
-40 -8 -40 -4 0 -6 18 -4 40 2 22 6 40 8 40 2 0 4 -18 4 -40z m80 -12 c0 -16
-4 -28 -10 -28 -5 0 -10 19 -10 43 0 31 3 38 10 27 5 -8 10 -27 10 -42z m2310
41 c0 -5 -4 -7 -10 -4 -6 3 -10 -4 -10 -17 -1 -21 -27 -80 -31 -68 -1 3 -3 26
-4 53 -2 46 -2 47 26 47 16 0 29 -5 29 -11z m-2579 -56 c-9 -16 -10 -15 -11 8
0 14 3 29 8 33 12 12 14 -22 3 -41z m2251 12 c3 -14 1 -25 -3 -25 -5 0 -9 7
-9 15 0 8 -4 15 -10 15 -5 0 -10 -7 -10 -15 0 -13 -3 -14 -14 -3 -13 11 -12
15 7 30 26 20 33 17 39 -17z m58 15 c0 -5 -4 -10 -10 -10 -5 0 -10 5 -10 10 0
6 5 10 10 10 6 0 10 -4 10 -10z m197 -12 c-3 -8 -6 -5 -6 6 -1 11 2 17 5 13 3
-3 4 -12 1 -19z m-2427 -29 c0 -11 -4 -17 -10 -14 -5 3 -10 15 -10 26 0 11 5
17 10 14 6 -3 10 -15 10 -26z m2105 -5 c-13 -14 -14 -19 -3 -25 10 -6 10 -11
1 -20 -10 -10 -14 -9 -18 4 -7 18 11 57 26 57 6 0 3 -7 -6 -16z m-2155 -21 c0
-21 -3 -24 -9 -14 -5 8 -7 20 -4 28 8 21 13 15 13 -14z m2317 5 c-3 -8 -6 -5
-6 6 -1 11 2 17 5 13 3 -3 4 -12 1 -19z m115 -8 c-9 -16 -21 -25 -25 -21 -12
12 10 51 28 51 12 0 11 -5 -3 -30z m58 -7 c-1 -23 -26 -57 -34 -45 -6 11 15
62 27 62 4 0 7 -8 7 -17z m-2320 -3 c0 -5 -4 -10 -10 -10 -5 0 -10 5 -10 10 0
6 5 10 10 10 6 0 10 -4 10 -10z m90 0 c0 -5 -4 -10 -10 -10 -5 0 -10 5 -10 10
0 6 5 10 10 10 6 0 10 -4 10 -10z m77 -12 c-3 -8 -6 -5 -6 6 -1 11 2 17 5 13
3 -3 4 -12 1 -19z m-270 -10 c-3 -8 -6 -5 -6 6 -1 11 2 17 5 13 3 -3 4 -12 1
-19z m2069 -3 c14 -13 12 -15 -15 -15 -16 0 -33 5 -37 12 -5 8 -2 9 9 5 10 -3
17 -2 17 3 0 14 9 12 26 -5z m-2153 -9 c3 -8 -1 -20 -9 -26 -12 -10 -14 -8
-14 14 0 28 14 35 23 12z m260 -21 c4 -8 2 -17 -3 -20 -6 -4 -10 3 -10 14 0
25 6 27 13 6z m37 -14 c0 -16 2 -41 4 -57 2 -16 1 -21 -1 -11 -2 9 -9 17 -15
17 -7 0 -9 -18 -6 -48 3 -34 1 -49 -7 -49 -8 0 -11 12 -9 31 2 17 6 57 10 89
7 59 24 79 24 28z m2161 -14 c-8 -8 -11 -7 -11 4 0 20 13 34 18 19 3 -7 -1
-17 -7 -23z m-2406 13 c8 -13 -4 -50 -16 -50 -5 0 -9 14 -9 30 0 30 13 40 25
20z m2235 -10 c0 -5 -4 -10 -10 -10 -5 0 -10 5 -10 10 0 6 5 10 10 10 6 0 10
-4 10 -10z m154 -17 c4 -11 1 -22 -8 -29 -9 -6 -16 -16 -16 -23 0 -6 -3 -11
-8 -11 -4 0 -6 18 -4 40 4 42 24 54 36 23z m-2304 -8 c0 -8 -7 -15 -16 -15
-14 0 -14 3 -4 15 7 8 14 15 16 15 2 0 4 -7 4 -15z m1930 -6 c0 -6 -4 -7 -10
-4 -5 3 -10 11 -10 16 0 6 5 7 10 4 6 -3 10 -11 10 -16z m260 -27 c0 -5 -6
-15 -13 -21 -18 -14 -42 30 -25 47 11 11 38 -7 38 -26z m-240 -7 c0 -16 -6
-25 -15 -25 -8 0 -15 5 -15 10 0 6 5 10 10 10 6 0 10 7 10 15 0 8 2 15 5 15 3
0 5 -11 5 -25z m-2163 -12 c4 -9 1 -19 -5 -21 -7 -2 -12 -15 -12 -28 0 -13 -4
-24 -8 -24 -10 0 -9 30 2 48 4 7 5 19 2 27 -3 8 -1 15 5 15 5 0 13 -8 16 -17z
m2103 10 c-1 -14 -27 -43 -39 -43 -14 0 -14 6 -1 31 10 18 40 27 40 12z m140
-13 c0 -5 -4 -10 -10 -10 -5 0 -10 5 -10 10 0 6 5 10 10 10 6 0 10 -4 10 -10z
m125 -53 c14 -28 8 -36 -13 -15 -9 9 -11 6 -7 -11 2 -12 7 -31 10 -42 4 -11 2
-19 -4 -19 -6 0 -11 6 -12 13 0 6 -4 3 -8 -8 -5 -12 -8 5 -7 46 1 73 15 85 41
36z m80 1 c-7 -39 -15 -49 -15 -20 0 12 -5 22 -11 22 -8 0 -8 5 1 15 20 24 31
17 25 -17z m-260 2 c-3 -5 -10 -10 -16 -10 -5 0 -9 5 -9 10 0 6 7 10 16 10 8
0 12 -4 9 -10z m-105 -19 c0 -15 -23 -26 -28 -13 -5 16 -27 15 -44 0 -7 -7
-20 -13 -28 -13 -8 0 -16 -10 -18 -22 -3 -23 -13 -29 -26 -16 -3 4 8 22 26 40
26 27 39 33 75 33 24 0 43 -4 43 -9z m-2067 -38 c7 -9 5 -13 -7 -13 -11 0 -16
8 -15 28 0 15 3 21 6 12 3 -8 10 -21 16 -27z m2399 -5 c-10 -22 -11 -21 -9 9
1 21 5 29 11 23 6 -6 5 -18 -2 -32z m-2089 -13 c-3 -9 -8 -14 -10 -11 -3 3 -2
9 2 15 9 16 15 13 8 -4z m1712 5 c-3 -5 -13 -10 -21 -10 -8 0 -14 5 -14 10 0
6 9 10 21 10 11 0 17 -4 14 -10z m346 -43 c-13 -13 -15 1 -4 30 7 17 8 17 11
-1 2 -10 -1 -23 -7 -29z m-2425 13 c8 0 14 -7 14 -15 0 -18 -1 -18 -34 -5 -14
5 -26 15 -26 21 0 6 7 8 16 5 9 -3 22 -6 30 -6z m2049 -28 c-42 -4 -50 1 -42
22 5 12 11 12 43 -2 l36 -17 -37 -3z m-1713 -36 c-2 -5 -9 -1 -14 8 -5 9 -6
21 -2 28 9 14 25 -22 16 -36z m-252 18 c0 -2 -9 -4 -20 -4 -11 0 -20 4 -20 9
0 5 9 7 20 4 11 -3 20 -7 20 -9z m2316 -16 c-9 -12 -16 -20 -16 -16 0 3 -3 13
-6 21 -3 10 1 17 13 19 26 6 27 2 9 -24z m-406 12 c-8 -5 -10 -10 -5 -10 6 -1
-5 -7 -24 -15 -31 -14 -51 -13 -51 3 0 10 40 27 70 30 19 1 22 0 10 -8z
m-1978 -35 c-4 -34 -15 -45 -26 -26 -6 9 15 61 24 61 4 0 4 -16 2 -35z m218
31 c0 -2 -7 -6 -15 -10 -8 -3 -15 -1 -15 4 0 6 7 10 15 10 8 0 15 -2 15 -4z
m2139 -36 c0 -10 -3 -8 -9 5 -12 27 -12 43 0 25 5 -8 9 -22 9 -30z m-162 8
c-3 -8 -6 -5 -6 6 -1 11 2 17 5 13 3 -3 4 -12 1 -19z m-314 -29 c-17 -17 -37
-1 -22 17 8 10 15 12 23 4 7 -7 7 -13 -1 -21z m144 25 c-3 -3 -12 -4 -19 -1
-8 3 -5 6 6 6 11 1 17 -2 13 -5z m311 -21 c3 -23 -23 -50 -33 -33 -3 5 -1 10
5 10 6 0 8 10 4 26 -5 20 -3 25 7 22 8 -3 15 -14 17 -25z m-2405 -3 c-3 -11
-9 -20 -14 -20 -5 0 -9 -6 -9 -13 0 -18 -27 -54 -34 -46 -6 6 18 63 37 87 15
19 26 14 20 -8z m2047 1 c0 -5 -9 -11 -19 -14 -14 -3 -18 -1 -14 9 6 15 33 19
33 5z m-1710 -11 c0 -5 -8 -10 -17 -10 -15 0 -16 2 -3 10 19 12 20 12 20 0z
m1570 -2 c0 -4 -9 -8 -20 -8 -11 0 -20 4 -20 9 0 6 9 9 20 8 11 -1 20 -5 20
-9z m390 2 c0 -5 -4 -10 -10 -10 -5 0 -10 5 -10 10 0 6 5 10 10 10 6 0 10 -4
10 -10z m-2240 -28 c0 -10 5 -23 11 -29 20 -20 2 -46 -26 -39 -15 4 -25 2 -25
-4 0 -6 -5 -8 -12 -4 -9 6 -9 9 0 12 7 2 12 10 12 18 0 20 18 17 24 -3 3 -10
3 1 0 25 -4 27 -2 42 5 42 6 0 11 -8 11 -18z m340 14 c0 -3 -4 -8 -10 -11 -5
-3 -10 -1 -10 4 0 6 5 11 10 11 6 0 10 -2 10 -4z m1434 -30 c-21 -16 -92 -31
-101 -22 -4 3 4 6 16 6 27 0 63 18 75 37 6 11 11 12 19 4 8 -8 6 -15 -9 -25z
m106 24 c0 -5 -2 -10 -4 -10 -3 0 -8 5 -11 10 -3 6 -1 10 4 10 6 0 11 -4 11
-10z m322 -25 c-3 -23 1 -40 12 -50 12 -13 13 -21 6 -36 -15 -27 -23 -24 -16
6 5 18 2 27 -9 31 -19 8 -21 84 -2 84 9 0 12 -11 9 -35z m-402 -24 c0 -5 -7
-12 -16 -15 -14 -5 -15 -4 -4 9 14 17 20 19 20 6z m469 -9 c7 -14 5 -21 -11
-31 -14 -9 -18 -9 -13 -1 4 7 2 16 -5 20 -13 8 -6 30 10 30 5 0 14 -8 19 -18z
m-1939 -78 c0 -61 1 -66 20 -61 11 3 17 1 14 -4 -3 -6 -1 -16 5 -23 9 -10 6
-12 -12 -9 -36 7 -59 58 -51 116 10 69 24 58 24 -19z m1424 51 c-4 -8 -8 -15
-10 -15 -2 0 -4 7 -4 15 0 8 4 15 10 15 5 0 7 -7 4 -15z m43 -7 c-3 -8 -6 -5
-6 6 -1 11 2 17 5 13 3 -3 4 -12 1 -19z m-166 -10 c17 -10 23 -10 26 0 7 17
33 15 33 -3 0 -8 -4 -15 -10 -15 -5 0 -6 -8 -3 -17 5 -12 2 -15 -10 -10 -10 4
-20 0 -26 -11 -9 -14 -11 -14 -12 -2 -1 8 -1 23 0 33 2 11 -5 17 -19 17 -12 0
-18 5 -15 10 8 13 11 13 36 -2z m509 -8 c0 -5 -9 -10 -19 -10 -11 0 -23 5 -26
10 -4 6 5 10 19 10 14 0 26 -4 26 -10z m-545 -20 c3 -5 -1 -10 -9 -10 -9 0
-16 5 -16 10 0 6 4 10 9 10 6 0 13 -4 16 -10z m-1758 -32 c-3 -8 -6 -5 -6 6
-1 11 2 17 5 13 3 -3 4 -12 1 -19z m39 -29 c1 -44 1 -44 -3 -4 -3 22 -10 44
-16 48 -8 6 -7 7 3 4 10 -2 15 -18 16 -48z m134 41 c-20 -13 -33 -13 -25 0 3
6 14 10 23 10 15 0 15 -2 2 -10z m2070 6 c0 -2 -7 -7 -16 -10 -8 -3 -12 -2 -9
4 6 10 25 14 25 6z m95 -5 c3 -5 1 -12 -5 -16 -5 -3 -10 1 -10 9 0 18 6 21 15
7z m-2238 -63 c-2 -13 -4 -3 -4 22 0 25 2 35 4 23 2 -13 2 -33 0 -45z m1663
46 c0 -8 -4 -12 -10 -9 -5 3 -10 10 -10 16 0 5 5 9 10 9 6 0 10 -7 10 -16z
m140 -24 c0 -22 -4 -40 -10 -40 -5 0 -10 18 -10 40 0 22 5 40 10 40 6 0 10
-18 10 -40z m220 24 c0 -8 -4 -12 -10 -9 -5 3 -10 10 -10 16 0 5 5 9 10 9 6 0
10 -7 10 -16z m190 -10 c0 -21 -17 -17 -23 5 -3 14 -1 18 9 14 8 -3 14 -11 14
-19z m33 -9 c-3 -9 -8 -14 -10 -11 -3 3 -2 9 2 15 9 16 15 13 8 -4z m-93 -3
c0 -5 -9 -17 -20 -27 -19 -17 -19 -17 -7 9 12 25 27 35 27 18z m-2273 -34 c-3
-8 -6 -5 -6 6 -1 11 2 17 5 13 3 -3 4 -12 1 -19z m1648 -3 c0 -11 -8 -21 -17
-23 -10 -2 -18 1 -18 7 0 6 5 11 11 11 8 0 7 6 -2 16 -12 14 -11 16 6 13 12
-3 20 -12 20 -24z m110 -14 c3 -5 1 -12 -5 -16 -5 -3 -10 1 -10 9 0 18 6 21
15 7z m95 -1 c0 -17 -41 -33 -53 -21 -8 8 -6 11 6 11 9 0 17 5 17 10 0 6 7 10
15 10 8 0 15 -4 15 -10z m380 -15 c0 -8 -4 -15 -10 -15 -5 0 -10 7 -10 15 0 8
5 15 10 15 6 0 10 -7 10 -15z m-715 -5 c3 -5 1 -10 -4 -10 -6 0 -11 5 -11 10
0 6 2 10 4 10 3 0 8 -4 11 -10z m180 -20 c4 -6 -7 -10 -25 -10 -18 0 -29 4
-25 10 3 6 15 10 25 10 10 0 22 -4 25 -10z m452 -12 c-3 -8 -6 -5 -6 6 -1 11
2 17 5 13 3 -3 4 -12 1 -19z m-247 -3 c0 -8 -7 -15 -15 -15 -16 0 -20 12 -8
23 11 12 23 8 23 -8z m-1760 -5 c0 -5 -10 -10 -22 -9 -22 0 -22 1 -3 9 11 5
21 9 23 9 1 1 2 -3 2 -9z m1405 0 c-3 -5 -10 -10 -16 -10 -5 0 -9 5 -9 10 0 6
7 10 16 10 8 0 12 -4 9 -10z m-1267 -18 c6 -18 -15 -14 -22 4 -4 10 -1 14 6
12 6 -2 14 -10 16 -16z m1155 11 c-29 -4 -48 -23 -23 -23 6 0 10 -5 10 -12 0
-6 -8 -3 -20 7 -26 24 -17 35 28 33 l37 -1 -32 -4z m334 1 c-3 -3 -12 -4 -19
-1 -8 3 -5 6 6 6 11 1 17 -2 13 -5z m413 -8 c0 -3 -4 -8 -10 -11 -5 -3 -10 -1
-10 4 0 6 5 11 10 11 6 0 10 -2 10 -4z m47 -28 c-3 -8 -6 -5 -6 6 -1 11 2 17
5 13 3 -3 4 -12 1 -19z m-1598 -14 c-29 -15 -36 -11 -18 9 8 8 20 12 28 9 9
-4 7 -9 -10 -18z m736 16 c3 -5 -1 -10 -9 -10 -9 0 -16 5 -16 10 0 6 4 10 9
10 6 0 13 -4 16 -10z m-62 -17 c-7 -2 -21 -2 -30 0 -10 3 -4 5 12 5 17 0 24
-2 18 -5z m-1253 -29 c0 -8 -4 -12 -10 -9 -5 3 -10 10 -10 16 0 5 5 9 10 9 6
0 10 -7 10 -16z m500 6 c0 -5 -5 -10 -11 -10 -5 0 -7 5 -4 10 3 6 8 10 11 10
2 0 4 -4 4 -10z m150 -3 c0 -8 -3 -16 -6 -20 -8 -8 -33 16 -27 26 7 12 33 8
33 -6z m1498 1 c-6 -18 -28 -21 -28 -4 0 9 7 16 16 16 9 0 14 -5 12 -12z
m-895 -18 c-10 -11 -19 -20 -21 -20 -1 0 2 9 8 20 6 11 15 20 20 20 6 0 2 -9
-7 -20z m-1069 -5 c-4 -8 -10 -12 -15 -9 -14 8 -10 24 6 24 9 0 12 -6 9 -15z
m1169 8 c-13 -2 -33 -2 -45 0 -13 2 -3 4 22 4 25 0 35 -2 23 -4z m751 -17 c-3
-9 -10 -16 -15 -16 -6 0 -5 9 1 21 13 24 24 20 14 -5z m-1564 -1 c0 -8 -4 -15
-10 -15 -5 0 -10 7 -10 15 0 8 5 15 10 15 6 0 10 -7 10 -15z m427 -1 c-3 -3
-12 -4 -19 -1 -8 3 -5 6 6 6 11 1 17 -2 13 -5z m92 -11 c-7 -10 -14 -19 -15
-21 -1 -1 -9 1 -19 4 -15 6 -15 8 6 20 33 18 44 17 28 -3z m-995 -9 c10 -26 7
-34 -14 -34 -11 0 -20 4 -20 9 0 17 12 41 20 41 4 0 11 -7 14 -16z m526 -5 c0
-5 -7 -9 -15 -9 -9 0 -12 6 -9 15 6 15 24 11 24 -6z m551 5 c12 -15 11 -16 -9
-10 -12 4 -22 3 -22 -2 0 -6 -9 -8 -21 -5 -20 5 -20 6 3 18 31 18 34 17 49 -1z
m-218 -1 c-7 -2 -19 -2 -25 0 -7 3 -2 5 12 5 14 0 19 -2 13 -5z m57 -7 c0 -8
6 -17 13 -19 7 -3 5 -6 -5 -6 -10 -1 -18 5 -18 13 0 8 -8 17 -17 19 -14 4 -12
5 5 6 13 1 22 -5 22 -13z m1080 4 c0 -5 -2 -10 -4 -10 -3 0 -8 5 -11 10 -3 6
-1 10 4 10 6 0 11 -4 11 -10z m-2066 -6 c9 -3 16 -15 16 -25 0 -17 -3 -18 -20
-7 -11 7 -20 18 -20 25 0 15 2 15 24 7z m256 -15 c0 -11 -4 -18 -10 -14 -5 3
-7 12 -3 20 7 21 13 19 13 -6z m-147 -4 c4 -8 2 -17 -3 -20 -6 -4 -10 3 -10
14 0 25 6 27 13 6z m820 8 c-7 -2 -19 -2 -25 0 -7 3 -2 5 12 5 14 0 19 -2 13
-5z m-116 -9 c-3 -3 -12 -4 -19 -1 -8 3 -5 6 6 6 11 1 17 -2 13 -5z m1233 -4
c8 -5 11 -12 8 -16 -4 -3 -14 1 -23 10 -18 17 -9 21 15 6z m-975 -40 c0 -22
-5 -40 -10 -40 -6 0 -9 17 -7 40 2 22 7 40 11 40 3 0 6 -18 6 -40z m142 34
c-3 -3 -12 -4 -19 -1 -8 3 -5 6 6 6 11 1 17 -2 13 -5z m330 -56 c-2 -13 -4 -3
-4 22 0 25 2 35 4 23 2 -13 2 -33 0 -45z m100 56 c-3 -3 -12 -4 -19 -1 -8 3
-5 6 6 6 11 1 17 -2 13 -5z m55 -26 c-8 -8 -9 -4 -5 13 4 13 8 18 11 10 2 -7
-1 -18 -6 -23z m75 10 c-3 -8 -6 -5 -6 6 -1 11 2 17 5 13 3 -3 4 -12 1 -19z
m200 -1 c-15 -12 -27 -28 -27 -35 0 -6 -7 -9 -15 -6 -23 9 -18 20 18 43 43 28
57 27 24 -2z m-577 -13 c0 -8 -4 -14 -10 -14 -5 0 -10 9 -10 21 0 11 5 17 10
14 6 -3 10 -13 10 -21z m630 22 c0 -3 -4 -8 -10 -11 -5 -3 -10 -1 -10 4 0 6 5
11 10 11 6 0 10 -2 10 -4z m-1930 -26 c0 -5 -18 -10 -40 -10 -22 0 -40 5 -40
10 0 6 18 10 40 10 22 0 40 -4 40 -10z m330 -5 c0 -8 -2 -15 -4 -15 -2 0 -6 7
-10 15 -3 8 -1 15 4 15 6 0 10 -7 10 -15z m50 -7 c0 -18 -2 -20 -9 -8 -6 8 -7
18 -5 22 9 14 14 9 14 -14z m500 7 c0 -8 -7 -15 -15 -15 -8 0 -15 7 -15 15 0
8 7 15 15 15 8 0 15 -7 15 -15z m190 5 c0 -5 -9 -10 -20 -10 -11 0 -20 5 -20
10 0 6 9 10 20 10 11 0 20 -4 20 -10z m-910 -10 c0 -5 -9 -10 -20 -10 -11 0
-20 5 -20 10 0 6 9 10 20 10 11 0 20 -4 20 -10z m-413 -22 c-3 -8 -6 -5 -6 6
-1 11 2 17 5 13 3 -3 4 -12 1 -19z m1370 -4 c-3 -3 -12 -4 -19 -1 -8 3 -5 6 6
6 11 1 17 -2 13 -5z m704 -22 c8 -20 6 -21 -11 -12 -11 6 -20 18 -20 26 0 22
22 12 31 -14z m-1981 8 c0 -5 -2 -10 -4 -10 -3 0 -8 5 -11 10 -3 6 -1 10 4 10
6 0 11 -4 11 -10z m530 0 c0 -5 -4 -10 -10 -10 -5 0 -10 5 -10 10 0 6 5 10 10
10 6 0 10 -4 10 -10z m-616 -25 c-4 -8 -8 -15 -10 -15 -2 0 -4 7 -4 15 0 8 4
15 10 15 5 0 7 -7 4 -15z m214 -5 c7 -11 9 -20 4 -20 -4 0 -13 9 -20 20 -7 11
-9 20 -4 20 4 0 13 -9 20 -20z m112 0 c0 -5 -18 -10 -40 -10 -22 0 -40 5 -40
10 0 6 18 10 40 10 22 0 40 -4 40 -10z m130 0 c0 -5 -4 -10 -10 -10 -5 0 -10
5 -10 10 0 6 5 10 10 10 6 0 10 -4 10 -10z m1590 -5 c16 -19 1 -19 -24 0 -16
12 -17 15 -4 15 8 0 21 -7 28 -15z m-1243 -27 c-3 -8 -6 -5 -6 6 -1 11 2 17 5
13 3 -3 4 -12 1 -19z m373 2 c0 -5 -4 -10 -10 -10 -5 0 -10 5 -10 10 0 6 5 10
10 10 6 0 10 -4 10 -10z m850 -4 c0 -2 -7 -7 -16 -10 -8 -3 -12 -2 -9 4 6 10
25 14 25 6z m-1250 -46 c0 -22 -4 -40 -10 -40 -5 0 -10 18 -10 40 0 22 5 40
10 40 6 0 10 -18 10 -40z m653 33 c-13 -2 -33 -2 -45 0 -13 2 -3 4 22 4 25 0
35 -2 23 -4z m450 -13 c-3 -11 -9 -20 -14 -20 -10 0 -12 24 -2 33 13 13 21 7
16 -13z m107 5 c0 -17 -2 -18 -24 -9 -23 9 -20 24 4 24 11 0 20 -7 20 -15z
m-1983 -27 c-3 -8 -6 -5 -6 6 -1 11 2 17 5 13 3 -3 4 -12 1 -19z m1929 -5
c-10 -10 -19 5 -10 18 6 11 8 11 12 0 2 -7 1 -15 -2 -18z m-936 2 c-7 -8 -16
-15 -21 -15 -5 0 -9 7 -9 15 0 9 9 15 21 15 18 0 19 -2 9 -15z m-880 -47 c0
-5 -6 -6 -12 -1 -7 4 -22 6 -33 4 -20 -3 -20 -3 0 12 20 15 45 7 45 -15z
m1700 22 c0 -5 -7 -10 -15 -10 -8 0 -15 5 -15 10 0 6 7 10 15 10 8 0 15 -4 15
-10z m90 -6 c0 -8 -4 -12 -10 -9 -5 3 -10 10 -10 16 0 5 5 9 10 9 6 0 10 -7
10 -16z m-1943 -26 c-3 -8 -6 -5 -6 6 -1 11 2 17 5 13 3 -3 4 -12 1 -19z m496
2 c-8 -30 -22 -35 -38 -14 -21 28 -18 34 14 34 24 0 28 -3 24 -20z m347 5 c0
-8 -2 -15 -4 -15 -2 0 -6 7 -10 15 -3 8 -1 15 4 15 6 0 10 -7 10 -15z m420 11
c0 -3 -4 -8 -10 -11 -5 -3 -10 -1 -10 4 0 6 5 11 10 11 6 0 10 -2 10 -4z m67
-18 c-3 -8 -6 -5 -6 6 -1 11 2 17 5 13 3 -3 4 -12 1 -19z m571 -22 c-2 -18 -8
-30 -15 -28 -7 1 -12 -4 -10 -10 1 -8 -8 -13 -22 -13 -13 0 -26 6 -28 13 -3 7
4 12 15 12 11 0 23 8 26 17 6 15 8 15 16 3 12 -19 13 -8 0 24 -7 21 -6 24 6
19 10 -4 14 -16 12 -37z m-971 12 c-3 -8 -6 -5 -6 6 -1 11 2 17 5 13 3 -3 4
-12 1 -19z m1013 3 c0 -6 -4 -13 -10 -16 -5 -3 -10 1 -10 9 0 9 5 16 10 16 6
0 10 -4 10 -9z m-1910 -37 c0 -8 -4 -14 -10 -14 -5 0 -10 9 -10 21 0 11 5 17
10 14 6 -3 10 -13 10 -21z m90 16 c0 -5 -8 -10 -17 -10 -15 0 -16 2 -3 10 19
12 20 12 20 0z m877 -12 c-3 -8 -6 -5 -6 6 -1 11 2 17 5 13 3 -3 4 -12 1 -19z
m461 -1 c2 -12 -3 -17 -17 -17 -12 0 -21 6 -21 13 0 31 32 34 38 4z m352 13
c0 -5 -4 -10 -10 -10 -5 0 -10 5 -10 10 0 6 5 10 10 10 6 0 10 -4 10 -10z
m-1039 -43 c-8 -8 -11 -3 -11 19 1 25 2 27 11 11 8 -14 8 -22 0 -30z m-621 23
c0 -5 -5 -10 -11 -10 -5 0 -7 5 -4 10 3 6 8 10 11 10 2 0 4 -4 4 -10z m697
-67 c-2 -16 -4 -5 -4 22 0 28 2 40 4 28 2 -13 2 -35 0 -50z m-200 51 c-3 -3
-12 -4 -19 -1 -8 3 -5 6 6 6 11 1 17 -2 13 -5z m353 -29 c0 -11 -11 -15 -40
-15 -29 0 -40 4 -40 15 0 11 11 15 40 15 29 0 40 -4 40 -15z m810 6 c0 -5 3
-16 6 -25 4 -11 1 -16 -10 -16 -10 0 -16 9 -16 25 0 14 5 25 10 25 6 0 10 -4
10 -9z m-1370 -11 c0 -5 -4 -10 -10 -10 -5 0 -10 5 -10 10 0 6 5 10 10 10 6 0
10 -4 10 -10z m800 -5 c0 -8 -4 -15 -10 -15 -5 0 -10 7 -10 15 0 8 5 15 10 15
6 0 10 -7 10 -15z m-1283 -62 c-3 -10 -5 -4 -5 12 0 17 2 24 5 18 2 -7 2 -21
0 -30z m690 31 c-3 -3 -12 -4 -19 -1 -8 3 -5 6 6 6 11 1 17 -2 13 -5z m1143
-4 c10 -6 6 -9 -18 -8 -17 1 -29 5 -26 10 7 11 25 10 44 -2z m-1743 -22 c-3
-8 -6 -5 -6 6 -1 11 2 17 5 13 3 -3 4 -12 1 -19z m390 16 c-3 -3 -12 -4 -19
-1 -8 3 -5 6 6 6 11 1 17 -2 13 -5z m593 2 c0 -2 -7 -6 -15 -10 -8 -3 -15 -1
-15 4 0 6 7 10 15 10 8 0 15 -2 15 -4z m297 -18 c-3 -8 -6 -5 -6 6 -1 11 2 17
5 13 3 -3 4 -12 1 -19z m373 -7 c0 -12 -20 -25 -27 -18 -7 7 6 27 18 27 5 0 9
-4 9 -9z m67 -13 c-3 -8 -6 -5 -6 6 -1 11 2 17 5 13 3 -3 4 -12 1 -19z m-1402
2 c-3 -5 -13 -10 -21 -10 -8 0 -14 5 -14 10 0 6 9 10 21 10 11 0 17 -4 14 -10z
m475 0 c0 -5 -4 -10 -10 -10 -5 0 -10 5 -10 10 0 6 5 10 10 10 6 0 10 -4 10
-10z m690 0 c0 -5 -4 -10 -10 -10 -5 0 -10 5 -10 10 0 6 5 10 10 10 6 0 10 -4
10 -10z m140 -25 c0 -28 -25 -22 -27 7 -2 25 0 28 12 18 8 -7 15 -18 15 -25z
m70 22 c0 -8 -3 -17 -7 -21 -5 -4 -8 -11 -8 -14 0 -17 -48 -82 -60 -82 -7 0
-15 -10 -18 -22 -4 -12 -9 -19 -12 -16 -9 9 11 43 48 80 18 18 33 39 33 46 3
35 5 42 14 42 6 0 10 -6 10 -13z m-660 -27 c0 -5 -8 -10 -17 -10 -15 0 -16 2
-3 10 19 12 20 12 20 0z m-300 -19 c0 -6 -4 -13 -10 -16 -5 -3 -10 1 -10 9 0
9 5 16 10 16 6 0 10 -4 10 -9z m128 -3 c17 -17 15 -35 -5 -42 -21 -9 -46 16
-37 37 7 20 25 22 42 5z m272 -28 c0 -22 -4 -40 -10 -40 -5 0 -10 18 -10 40 0
22 5 40 10 40 6 0 10 -18 10 -40z m153 29 c-8 -8 -16 -8 -30 0 -16 9 -14 10
12 11 21 0 26 -3 18 -11z m267 1 c0 -5 -4 -10 -10 -10 -5 0 -10 5 -10 10 0 6
5 10 10 10 6 0 10 -4 10 -10z m-1638 -60 c-6 -43 -12 -37 -12 13 0 25 4 37 8
29 5 -7 7 -26 4 -42z m475 -7 c-7 -6 -47 20 -47 30 0 4 10 11 23 16 19 7 22 5
25 -16 2 -14 1 -27 -1 -30z m-317 37 c0 -5 -4 -10 -10 -10 -5 0 -10 5 -10 10
0 6 5 10 10 10 6 0 10 -4 10 -10z m459 -16 c19 -19 20 -24 7 -24 -12 0 -16
-10 -16 -40 0 -22 -4 -40 -10 -40 -5 0 -10 19 -10 43 0 46 -13 67 -42 67 -10
0 -18 4 -18 9 0 20 65 8 89 -15z m988 -6 c-3 -7 -5 -2 -5 12 0 14 2 19 5 13 2
-7 2 -19 0 -25z m-472 -8 c3 -5 1 -10 -4 -10 -6 0 -11 5 -11 10 0 6 2 10 4 10
3 0 8 -4 11 -10z m175 -6 c0 -2 -7 -4 -15 -4 -8 0 -15 4 -15 10 0 5 7 7 15 4
8 -4 15 -8 15 -10z m-1233 0 c-3 -3 -12 -4 -19 -1 -8 3 -5 6 6 6 11 1 17 -2
13 -5z m293 -44 c0 -29 -4 -40 -15 -40 -11 0 -15 11 -15 40 0 29 4 40 15 40
11 0 15 -11 15 -40z m670 30 c0 -5 -2 -10 -4 -10 -3 0 -8 5 -11 10 -3 6 -1 10
4 10 6 0 11 -4 11 -10z m453 3 c-7 -2 -19 -2 -25 0 -7 3 -2 5 12 5 14 0 19 -2
13 -5z m107 -3 c0 -5 -2 -10 -4 -10 -3 0 -8 5 -11 10 -3 6 -1 10 4 10 6 0 11
-4 11 -10z m-55 -55 c7 -6 9 -18 4 -30 -7 -19 -8 -19 -8 -1 -1 10 -8 24 -18
31 -10 8 -13 17 -8 25 7 12 9 11 13 0 2 -8 10 -20 17 -25z m110 -5 c3 -5 1
-10 -4 -10 -6 0 -11 5 -11 10 0 6 2 10 4 10 3 0 8 -4 11 -10z m-947 -17 c-22
-5 -24 -33 -3 -33 21 0 19 -17 -4 -30 -26 -13 -52 -14 -31 0 12 7 13 13 3 28
-14 24 1 43 32 41 16 -1 17 -2 3 -6z m62 -33 c0 -22 -4 -40 -10 -40 -5 0 -10
18 -10 40 0 22 5 40 10 40 6 0 10 -18 10 -40z m175 11 l20 -24 -22 12 c-13 6
-23 19 -23 28 0 9 1 14 3 12 1 -2 11 -15 22 -28z m412 23 c-3 -3 -12 -4 -19
-1 -8 3 -5 6 6 6 11 1 17 -2 13 -5z m133 2 c0 -11 -19 -15 -25 -6 -3 5 1 10 9
10 9 0 16 -2 16 -4z m130 -23 c-1 -24 -2 -26 -11 -10 -5 9 -7 22 -4 27 10 17
15 11 15 -17z m-1623 -25 c-3 -8 -6 -5 -6 6 -1 11 2 17 5 13 3 -3 4 -12 1 -19z
m1523 -8 c0 -11 -7 -20 -15 -20 -13 0 -13 3 -3 20 7 11 14 20 15 20 2 0 3 -9
3 -20z m-880 -10 c0 -5 -18 -10 -40 -10 -22 0 -40 5 -40 10 0 6 18 10 40 10
22 0 40 -4 40 -10z m160 -31 c0 -11 -4 -17 -10 -14 -5 3 -10 13 -10 21 0 8 5
14 10 14 6 0 10 -9 10 -21z m174 6 c-4 -8 -8 -15 -10 -15 -2 0 -4 7 -4 15 0 8
4 15 10 15 5 0 7 -7 4 -15z m588 -8 c-6 -7 -9 -24 -5 -38 l5 -24 -17 23 c-17
23 -14 58 5 47 5 -3 10 -1 10 6 0 7 3 9 6 6 4 -4 2 -12 -4 -20z m-1402 -12 c0
-8 -4 -15 -10 -15 -5 0 -10 7 -10 15 0 8 5 15 10 15 6 0 10 -7 10 -15z m1340
-21 c6 -14 15 -22 21 -18 7 4 10 -1 7 -11 -5 -31 -23 -27 -36 8 -13 37 -15 47
-7 47 3 0 10 -12 15 -26z m-460 -9 c0 -8 -4 -15 -10 -15 -5 0 -7 7 -4 15 4 8
8 15 10 15 2 0 4 -7 4 -15z m-960 -25 c0 -5 -6 -10 -14 -10 -8 0 -17 -7 -20
-16 -3 -8 -10 -13 -16 -9 -14 9 11 45 32 45 10 0 18 -4 18 -10z m320 -6 c0 -9
-5 -14 -12 -12 -18 6 -21 28 -4 28 9 0 16 -7 16 -16z m27 -6 c-3 -8 -6 -5 -6
6 -1 11 2 17 5 13 3 -3 4 -12 1 -19z m473 18 c0 -3 -4 -8 -10 -11 -5 -3 -10
-1 -10 4 0 6 5 11 10 11 6 0 10 -2 10 -4z m100 -16 c0 -11 -4 -20 -10 -20 -5
0 -10 9 -10 20 0 11 5 20 10 20 6 0 10 -9 10 -20z m127 -42 c-2 -13 -4 -3 -4
22 0 25 2 35 4 23 2 -13 2 -33 0 -45z m313 52 c0 -5 -2 -10 -4 -10 -3 0 -8 5
-11 10 -3 6 -1 10 4 10 6 0 11 -4 11 -10z m-1098 -71 c-5 -42 -22 -46 -22 -5
0 26 4 36 13 33 6 -2 11 -15 9 -28z m135 9 c-3 -8 -6 -5 -6 6 -1 11 2 17 5 13
3 -3 4 -12 1 -19z m-422 -9 c-4 -6 1 -16 11 -24 11 -7 16 -16 13 -19 -11 -11
-42 21 -36 38 4 9 9 16 12 16 4 0 3 -5 0 -11z m955 -14 c0 -8 -4 -15 -10 -15
-5 0 -10 7 -10 15 0 8 5 15 10 15 6 0 10 -7 10 -15z m438 -10 c7 -14 12 -36
11 -48 -1 -15 -4 -11 -11 13 -5 19 -17 41 -26 48 -14 10 -14 12 -1 12 9 0 21
-11 27 -25z m62 15 c0 -5 -5 -10 -11 -10 -5 0 -7 5 -4 10 3 6 8 10 11 10 2 0
4 -4 4 -10z m-84 -85 c-9 -13 -16 -38 -16 -55 0 -17 -5 -30 -12 -30 -14 0 -38
45 -38 69 1 13 3 13 14 -2 15 -19 33 -6 20 14 -3 6 -1 21 6 34 11 21 14 22 27
9 13 -13 13 -18 -1 -39z m-1266 25 c0 -5 -5 -10 -11 -10 -5 0 -7 5 -4 10 3 6
8 10 11 10 2 0 4 -4 4 -10z m1100 0 c0 -5 -7 -10 -15 -10 -8 0 -15 5 -15 10 0
6 7 10 15 10 8 0 15 -4 15 -10z m-304 -57 c-11 -11 -19 6 -11 24 8 17 8 17 12
0 3 -10 2 -21 -1 -24z m-316 17 c0 -5 -18 -10 -40 -10 -22 0 -40 5 -40 10 0 6
18 10 40 10 22 0 40 -4 40 -10z m530 -10 c0 -5 -4 -10 -10 -10 -5 0 -10 5 -10
10 0 6 5 10 10 10 6 0 10 -4 10 -10z m160 0 c0 -5 -4 -10 -10 -10 -5 0 -10 5
-10 10 0 6 5 10 10 10 6 0 10 -4 10 -10z m-1250 -22 c0 -19 -2 -20 -10 -8 -13
19 -13 30 0 30 6 0 10 -10 10 -22z m264 -7 c3 -5 -1 -11 -9 -15 -9 -3 -15 0
-15 9 0 16 16 20 24 6z m-184 -20 c0 -17 -18 -21 -24 -6 -3 9 0 15 9 15 8 0
15 -4 15 -9z m249 -33 c0 -35 -2 -39 -9 -21 -8 19 -3 63 6 63 2 0 4 -19 3 -42z
m228 -20 c-2 -13 -4 -3 -4 22 0 25 2 35 4 23 2 -13 2 -33 0 -45z m723 42 c0
-19 -11 -26 -23 -14 -8 8 3 34 14 34 5 0 9 -9 9 -20z m-1243 -22 c-3 -8 -6 -5
-6 6 -1 11 2 17 5 13 3 -3 4 -12 1 -19z m1213 -2 c0 -3 -4 -8 -10 -11 -5 -3
-10 -1 -10 4 0 6 5 11 10 11 6 0 10 -2 10 -4z m52 -18 c-6 -6 -15 -8 -19 -4
-4 4 -1 11 7 16 8 5 17 7 19 4 3 -2 -1 -10 -7 -16z m-1182 -18 c0 -11 -7 -20
-15 -20 -8 0 -15 9 -15 20 0 11 7 20 15 20 8 0 15 -9 15 -20z m-70 -10 c-6
-11 -13 -20 -16 -20 -2 0 0 9 6 20 6 11 13 20 16 20 2 0 0 -9 -6 -20z m777 14
c-3 -3 -12 -4 -19 -1 -8 3 -5 6 6 6 11 1 17 -2 13 -5z m475 -13 c7 10 8 7 4
-11 -3 -14 -6 -34 -6 -44 0 -30 -7 -15 -13 29 -4 22 -4 34 0 26 5 -11 7 -11
15 0z m-1219 -66 c9 -18 9 -19 -6 -6 -10 7 -17 23 -16 35 0 14 2 16 6 6 3 -8
10 -24 16 -35z m65 16 c-7 -12 -16 -21 -21 -21 -8 0 -2 14 16 38 16 20 20 6 5
-17z m972 19 c0 -5 -18 -10 -40 -10 -22 0 -40 5 -40 10 0 6 18 10 40 10 22 0
40 -4 40 -10z m-670 -10 c0 -5 -4 -10 -10 -10 -5 0 -10 5 -10 10 0 6 5 10 10
10 6 0 10 -4 10 -10z m770 -15 c0 -8 -4 -15 -10 -15 -5 0 -10 7 -10 15 0 8 5
15 10 15 6 0 10 -7 10 -15z m-647 -27 c-2 -4 -10 -2 -17 5 -8 6 -12 15 -9 19
2 4 10 2 17 -5 8 -6 12 -15 9 -19z m557 -87 c-8 -14 -9 -14 -10 4 0 11 -3 31
-6 45 -6 24 -5 23 10 -4 11 -19 13 -33 6 -45z m151 54 c0 -5 -9 -11 -21 -13
-12 -2 -20 -11 -20 -23 0 -22 -11 -24 -28 -7 -18 18 -15 28 8 28 11 0 23 7 27
15 6 17 34 17 34 0z m-1103 -22 c6 -19 -25 -16 -32 3 -4 11 -1 14 11 12 9 -2
18 -9 21 -15z m515 10 c-7 -2 -19 -2 -25 0 -7 3 -2 5 12 5 14 0 19 -2 13 -5z
m-473 -13 c0 -5 -5 -10 -11 -10 -5 0 -7 5 -4 10 3 6 8 10 11 10 2 0 4 -4 4
-10z m535 0 c3 -5 -3 -10 -14 -10 -12 0 -21 5 -21 10 0 6 6 10 14 10 8 0 18
-4 21 -10z m342 -6 c-3 -3 -12 -4 -19 -1 -8 3 -5 6 6 6 11 1 17 -2 13 -5z
m-137 -8 c0 -2 -7 -6 -15 -10 -8 -3 -15 -1 -15 4 0 6 7 10 15 10 8 0 15 -2 15
-4z m-810 -10 c0 -3 -4 -8 -10 -11 -5 -3 -10 -1 -10 4 0 6 5 11 10 11 6 0 10
-2 10 -4z m30 -36 c0 -5 -4 -10 -9 -10 -6 0 -13 5 -16 10 -3 6 1 10 9 10 9 0
16 -4 16 -10z m400 -15 c0 -8 -4 -15 -10 -15 -5 0 -10 7 -10 15 0 8 5 15 10
15 6 0 10 -7 10 -15z m637 -33 c17 -48 16 -57 -2 -38 -8 8 -15 24 -15 35 0 12
-4 21 -10 21 -5 0 -7 7 -3 15 7 20 14 13 30 -33z m43 22 c0 -8 -4 -12 -10 -9
-5 3 -10 10 -10 16 0 5 5 9 10 9 6 0 10 -7 10 -16z m-1030 -5 c13 -9 12 -10
-3 -5 -15 5 -17 2 -12 -14 5 -15 3 -18 -9 -14 -19 7 -22 44 -3 44 6 0 19 -5
27 -11z m902 -51 c-9 -9 -12 -7 -12 12 0 19 3 21 12 12 9 -9 9 -15 0 -24z
m-602 -18 c0 -5 8 -10 17 -10 9 0 14 -3 10 -6 -8 -8 -47 5 -47 17 0 5 5 9 10
9 6 0 10 -4 10 -10z m173 -7 c-13 -2 -33 -2 -45 0 -13 2 -3 4 22 4 25 0 35 -2
23 -4z m-425 -39 c-4 -3 -12 5 -18 18 -12 22 -12 22 6 6 10 -10 15 -20 12 -24z
m171 -15 c-2 -27 -9 -58 -17 -67 -13 -16 -13 -16 -8 1 3 10 6 41 6 68 0 27 5
49 10 49 7 0 10 -20 9 -51z m768 19 c-3 -7 -5 -2 -5 12 0 14 2 19 5 13 2 -7 2
-19 0 -25z m30 -30 c-2 -13 -4 -3 -4 22 0 25 2 35 4 23 2 -13 2 -33 0 -45z
m-927 28 c0 -18 -19 -31 -28 -21 -4 4 -1 10 6 12 6 3 10 9 6 14 -3 5 0 9 5 9
6 0 11 -6 11 -14z m180 4 c0 -5 -4 -10 -10 -10 -5 0 -10 5 -10 10 0 6 5 10 10
10 6 0 10 -4 10 -10z m220 -10 c0 -5 -4 -10 -10 -10 -5 0 -10 5 -10 10 0 6 5
10 10 10 6 0 10 -4 10 -10z m180 0 c0 -5 -4 -10 -10 -10 -5 0 -10 5 -10 10 0
6 5 10 10 10 6 0 10 -4 10 -10z m-530 -50 c0 -5 -2 -10 -4 -10 -3 0 -8 5 -11
10 -3 6 -1 10 4 10 6 0 11 -4 11 -10z m38 -2 c-2 -6 -10 -13 -16 -14 -7 -1 -8
0 -2 3 5 2 8 9 4 14 -3 5 0 9 6 9 7 0 10 -5 8 -12z m562 -27 c0 -22 -3 -42 -8
-45 -4 -2 -7 15 -7 40 0 24 3 44 8 44 4 0 7 -18 7 -39z m247 -28 c-2 -16 -4
-5 -4 22 0 28 2 40 4 28 2 -13 2 -35 0 -50z m-727 -25 c0 -6 -7 -8 -15 -4 -8
3 -15 1 -15 -4 0 -6 -7 -10 -17 -10 -15 0 -15 2 1 19 18 19 46 18 46 -1z m61
5 c-11 -4 -11 -7 0 -14 17 -10 5 -23 -15 -16 -20 8 -9 37 13 36 12 0 12 -2 2
-6z m696 -30 c-3 -10 -5 -4 -5 12 0 17 2 24 5 18 2 -7 2 -21 0 -30z m-719 -12
c17 -7 32 -20 32 -28 0 -8 4 -12 9 -8 5 3 12 1 16 -5 3 -5 0 -10 -7 -10 -15 0
-48 20 -33 20 16 0 -45 30 -62 30 -8 0 -11 5 -8 11 4 5 10 8 13 6 4 -2 22 -9
40 -16z m162 9 c0 -5 -4 -10 -10 -10 -5 0 -10 5 -10 10 0 6 5 10 10 10 6 0 10
-4 10 -10z m530 -22 c0 -18 -2 -20 -9 -8 -6 8 -7 18 -5 22 9 14 14 9 14 -14z
m-170 -3 c0 -8 -4 -15 -10 -15 -5 0 -7 7 -4 15 4 8 8 15 10 15 2 0 4 -7 4 -15z
m67 -7 c-3 -8 -6 -5 -6 6 -1 11 2 17 5 13 3 -3 4 -12 1 -19z m83 2 c0 -5 -7
-10 -16 -10 -8 0 -12 5 -9 10 3 6 10 10 16 10 5 0 9 -4 9 -10z m43 -48 c-3
-23 -9 -42 -13 -42 -6 0 -3 52 6 79 9 27 13 5 7 -37z m-337 22 c-9 -8 -16 -20
-16 -25 0 -5 -4 -9 -10 -9 -5 0 -10 4 -10 9 0 13 29 41 41 41 6 0 3 -7 -5 -16z
m-206 -14 c-14 -11 -36 -20 -49 -20 -20 0 -21 -2 -11 -15 10 -12 10 -15 -4
-15 -9 0 -16 7 -16 15 0 8 -4 15 -10 15 -5 0 -10 4 -10 8 0 4 15 9 32 10 18 2
37 7 42 12 6 6 19 10 31 10 19 0 18 -2 -5 -20z m47 -43 c-5 -15 -34 -17 -34
-1 0 7 4 11 9 8 4 -3 8 0 8 6 0 6 5 8 11 5 5 -4 8 -12 6 -18z m371 -44 c-3
-16 -6 -15 -28 7 l-24 24 24 6 c26 6 34 -5 28 -37z m-158 27 c0 -5 -2 -10 -4
-10 -3 0 -8 5 -11 10 -3 6 -1 10 4 10 6 0 11 -4 11 -10z m-163 -6 c-3 -3 -12
-4 -19 -1 -8 3 -5 6 6 6 11 1 17 -2 13 -5z m3 -24 c0 -5 -4 -10 -10 -10 -5 0
-10 5 -10 10 0 6 5 10 10 10 6 0 10 -4 10 -10z m30 0 c0 -5 -4 -10 -10 -10 -5
0 -10 5 -10 10 0 6 5 10 10 10 6 0 10 -4 10 -10z m-50 -15 c14 -16 10 -18 -14
-9 -9 3 -16 10 -16 15 0 14 16 11 30 -6z m67 -31 c-3 -3 -12 -4 -19 -1 -8 3
-5 6 6 6 11 1 17 -2 13 -5z m60 -11 c-16 -3 -25 -9 -21 -15 4 -7 2 -8 -5 -4
-18 12 -2 26 27 25 l27 -2 -28 -4z m183 -23 c0 -5 -4 -10 -10 -10 -5 0 -10 5
-10 10 0 6 5 10 10 10 6 0 10 -4 10 -10z m114 -33 c11 -10 10 -15 -1 -25 -12
-12 -15 -8 -12 15 0 4 -8 10 -18 14 -17 7 -17 8 0 8 10 1 24 -5 31 -12z m94
-57 c0 -9 -3 -7 -8 5 -5 11 -8 29 -8 40 0 16 2 15 8 -5 4 -14 8 -32 8 -40z
m-128 41 c0 -6 -4 -12 -8 -15 -5 -3 -9 1 -9 9 0 8 4 15 9 15 4 0 8 -4 8 -9z
m-41 -22 c-15 -9 -32 -2 -24 11 3 5 13 6 21 3 12 -4 13 -8 3 -14z m121 -5 c0
-8 -4 -12 -10 -9 -5 3 -10 10 -10 16 0 5 5 9 10 9 6 0 10 -7 10 -16z m-53 -20
c-3 -3 -12 -4 -19 -1 -8 3 -5 6 6 6 11 1 17 -2 13 -5z m83 -4 c0 -5 -2 -10 -4
-10 -3 0 -8 5 -11 10 -3 6 -1 10 4 10 6 0 11 -4 11 -10z m47 -12 c-3 -8 -6 -5
-6 6 -1 11 2 17 5 13 3 -3 4 -12 1 -19z"/>
<path d="M9715 6680 c-4 -6 5 -10 20 -10 15 0 24 4 20 10 -3 6 -12 10 -20 10
-8 0 -17 -4 -20 -10z"/>
<path d="M9691 5324 c0 -11 3 -14 6 -6 3 7 2 16 -1 19 -3 4 -6 -2 -5 -13z"/>
<path d="M2725 6731 c-22 -5 -29 -12 -28 -26 2 -11 4 -110 7 -220 2 -110 6
-238 10 -285 4 -47 11 -143 17 -215 5 -71 11 -148 14 -170 2 -22 5 -67 6 -100
0 -33 5 -73 10 -90 5 -16 11 -61 13 -99 2 -37 9 -73 15 -79 6 -6 11 -23 11
-38 0 -15 5 -40 12 -56 6 -15 13 -35 14 -43 3 -18 31 -95 49 -135 51 -114 65
-147 65 -155 0 -5 9 -15 20 -23 11 -8 17 -16 14 -19 -8 -8 50 -124 125 -250 9
-14 29 -48 45 -75 48 -82 217 -331 242 -358 13 -14 20 -25 16 -25 -4 -1 3 -6
15 -13 12 -7 22 -16 22 -22 0 -17 85 -125 99 -125 6 0 12 5 12 10 0 18 25 11
38 -11 12 -18 11 -19 -6 -10 -10 5 -23 6 -29 3 -15 -10 79 -114 98 -109 8 2
11 2 7 0 -13 -8 -9 -17 23 -53 30 -33 32 -33 46 -14 12 17 12 19 -2 22 -11 3
-15 12 -13 28 4 29 22 33 26 7 6 -35 26 -63 44 -63 10 0 18 -7 18 -15 0 -12
-5 -11 -30 3 -27 15 -32 15 -40 2 -7 -11 -1 -23 23 -47 34 -34 53 -42 44 -19
-3 8 1 17 9 20 24 9 27 7 14 -9 -7 -8 -9 -15 -4 -15 5 0 3 -4 -5 -9 -16 -11
-11 -17 111 -119 57 -48 98 -75 118 -77 16 -2 30 0 30 5 0 6 19 -9 43 -32 34
-35 40 -46 30 -56 -10 -11 -5 -21 28 -54 29 -30 43 -38 51 -30 8 8 4 14 -15
21 -33 13 -35 22 -5 18 35 -3 80 -57 48 -57 -5 0 -10 5 -10 11 0 5 -4 7 -10 4
-5 -3 -10 -10 -10 -14 0 -14 53 -70 62 -65 4 3 7 2 6 -3 -3 -9 20 -42 65 -96
10 -11 27 -36 38 -54 21 -34 39 -43 39 -19 0 8 7 16 15 20 19 7 15 -15 -5 -31
-12 -10 -13 -15 -2 -30 7 -10 15 -26 18 -35 4 -10 10 -18 14 -18 4 0 10 -8 14
-17 6 -19 27 -54 37 -63 3 -3 8 -13 12 -22 9 -26 26 -22 19 4 -3 14 -2 19 7
14 7 -5 13 3 17 24 7 33 29 36 29 4 1 -25 -14 -56 -24 -50 -4 3 -12 -4 -19
-15 -10 -16 -10 -21 3 -25 8 -4 15 -16 15 -29 0 -12 7 -28 15 -35 8 -7 15 -23
15 -35 0 -12 7 -28 15 -35 8 -7 15 -21 15 -32 0 -10 6 -29 14 -41 8 -12 19
-47 26 -77 7 -30 16 -60 21 -65 4 -6 13 -42 19 -80 6 -39 16 -81 22 -95 16
-38 21 -210 7 -297 -6 -43 -12 -87 -13 -98 -2 -11 -8 -30 -14 -42 -7 -12 -12
-35 -12 -51 0 -16 -7 -35 -15 -42 -9 -7 -13 -21 -10 -31 3 -9 1 -20 -4 -23 -9
-6 -41 -63 -41 -73 0 -6 55 10 60 17 3 4 23 10 45 13 87 13 115 20 115 27 0 4
7 11 16 14 10 4 13 2 8 -7 -5 -9 -4 -9 7 0 7 7 22 13 33 13 22 0 110 31 122
43 4 4 16 7 26 7 10 0 30 7 43 16 14 9 25 14 25 10 0 -3 18 4 40 15 22 12 37
25 34 30 -3 5 10 10 28 10 18 1 25 3 16 6 -30 8 -20 23 11 17 29 -6 91 18 91
36 0 6 3 9 8 8 13 -2 82 32 82 42 0 6 6 10 14 10 42 0 326 251 396 350 13 19
28 40 32 45 52 64 68 113 40 123 -8 2 -10 -2 -6 -15 6 -17 6 -17 -11 -1 -16
15 -16 18 -2 39 l16 22 12 -26 c13 -29 29 -36 29 -13 0 8 7 16 15 20 9 3 15
18 15 35 0 16 6 36 13 43 22 24 37 57 37 81 0 13 5 28 11 34 6 6 13 26 15 44
2 17 8 37 13 43 5 6 11 38 14 71 3 33 9 76 12 95 10 57 12 322 2 365 -5 22
-12 78 -15 125 -6 75 -9 85 -25 82 -16 -3 -17 0 -7 18 9 17 8 32 -4 70 -9 27
-16 60 -16 74 0 13 -5 26 -11 28 -6 2 -12 21 -14 43 -1 21 -7 41 -14 43 -6 2
-11 14 -11 27 0 12 -7 28 -15 35 -8 7 -15 20 -15 29 0 9 -4 21 -9 27 -5 5 -18
34 -29 64 -11 30 -36 93 -56 140 -20 46 -36 88 -36 92 0 5 -9 30 -21 56 -11
26 -26 61 -34 77 -7 17 -18 50 -25 75 -21 76 -22 77 -28 60 -7 -21 -42 -65
-43 -54 0 10 -8 68 -10 81 -4 23 2 43 11 38 6 -4 8 -21 4 -41 -7 -38 8 -46 23
-12 9 21 0 55 -55 218 -3 11 -7 8 -13 -10 -6 -18 -7 -12 -3 21 2 25 0 59 -6
75 -6 16 -11 30 -12 31 0 2 -6 29 -13 60 -19 87 -31 174 -34 262 -1 10 -13 12
-53 8 -35 -4 -46 -3 -33 3 11 5 37 9 58 9 65 2 40 21 -27 21 -81 0 -132 -16
-115 -37 9 -11 9 -17 0 -26 -9 -9 -13 -7 -17 11 -8 28 -12 28 -60 -7 -63 -46
-91 -108 -102 -226 -6 -59 -6 -107 -1 -117 5 -9 9 -38 9 -65 0 -26 5 -64 10
-83 6 -19 13 -51 16 -70 3 -19 10 -39 15 -44 5 -6 9 -19 9 -31 0 -12 4 -25 9
-30 8 -10 25 -63 56 -182 17 -65 23 -223 11 -283 -4 -19 -17 -55 -29 -80 -26
-53 -108 -140 -132 -140 -9 0 -26 -5 -38 -12 -12 -6 -35 -13 -51 -15 -16 -1
-43 -7 -60 -12 -17 -6 -47 -14 -66 -20 -30 -8 -26 -9 35 -7 39 1 75 4 80 5 6
2 29 3 51 2 l42 -1 7 -47 c3 -27 9 -58 12 -70 3 -14 1 -23 -6 -23 -6 0 -11 17
-11 38 0 21 -6 50 -12 65 -11 22 -20 27 -50 27 -21 0 -38 -4 -38 -10 0 -5 5
-10 10 -10 6 0 10 -5 10 -12 0 -9 -3 -9 -12 0 -7 7 -40 12 -80 12 -67 0 -73 3
-69 37 1 7 -11 15 -26 18 -15 3 -41 11 -58 17 -16 6 -52 16 -80 23 -54 13 -81
21 -107 36 -10 5 -27 9 -37 9 -11 0 -23 5 -27 11 -3 6 -19 9 -35 7 -19 -3 -29
0 -29 8 0 7 -21 20 -47 28 -27 9 -74 29 -107 45 -56 28 -94 32 -79 7 4 -6 -1
-4 -11 4 -17 13 -17 14 0 20 13 5 2 14 -46 38 -35 18 -69 32 -77 32 -8 0 -12
4 -9 8 3 4 -12 17 -32 27 -20 10 -59 35 -87 55 -27 20 -66 46 -85 58 -20 11
-46 30 -59 41 -13 11 -28 18 -34 14 -6 -3 -7 -1 -3 5 3 6 -3 16 -14 22 -22 12
-67 51 -168 147 -36 34 -69 60 -74 57 -4 -3 -8 3 -8 13 0 19 -32 53 -50 53 -6
0 -10 -4 -10 -10 0 -5 -4 -10 -10 -10 -6 0 -5 10 2 26 10 22 9 28 -13 47 -13
12 -30 31 -37 42 -77 121 -92 137 -92 96 0 -11 -4 -22 -9 -26 -6 -3 -6 9 0 30
8 29 6 40 -16 74 -14 23 -25 45 -25 51 0 15 -11 12 -26 -7 -7 -10 -15 -15 -19
-12 -3 4 1 14 11 23 15 16 13 24 -34 118 -47 94 -51 100 -58 74 -4 -16 -2 -31
3 -35 14 -9 25 -61 13 -61 -5 0 -10 9 -10 20 0 11 -4 20 -8 20 -5 0 -14 21
-19 47 -10 42 -10 46 3 29 14 -20 14 -20 16 0 2 35 -2 58 -16 73 -7 9 -19 42
-26 74 -7 32 -17 60 -22 63 -4 3 -8 18 -8 33 0 16 -7 42 -15 57 -8 16 -15 41
-15 56 0 15 -7 53 -15 85 -8 31 -16 84 -16 118 -1 45 -3 53 -8 30 -7 -29 -7
-29 -14 15 -6 33 -10 41 -17 30 -7 -11 -9 -5 -9 20 1 19 3 27 6 18 5 -21 22
-24 24 -5 1 6 0 83 -1 170 -1 107 -6 167 -15 184 -7 14 -12 44 -10 67 2 22 -3
56 -11 75 -8 18 -14 44 -14 57 0 26 -15 40 -24 22 -3 -7 -3 -3 -1 8 6 23 -22
104 -35 104 -4 0 -10 10 -14 23 -12 47 -100 116 -156 123 -8 1 -22 4 -30 7 -8
2 -28 2 -45 -2z m58 -28 c-7 -2 -19 -2 -25 0 -7 3 -2 5 12 5 14 0 19 -2 13 -5z
m-46 -103 c2 -53 -2 -90 -7 -90 -11 0 -14 138 -4 164 3 9 7 16 8 16 0 0 2 -41
3 -90z m53 80 c0 -5 -4 -10 -10 -10 -5 0 -10 5 -10 10 0 6 5 10 10 10 6 0 10
-4 10 -10z m66 -2 c4 -5 -7 -8 -24 -8 -18 0 -32 4 -32 8 0 10 46 10 56 0z m34
-12 c0 -3 -4 -8 -10 -11 -5 -3 -10 -1 -10 4 0 6 5 11 10 11 6 0 10 -2 10 -4z
m20 -16 c0 -5 -5 -10 -11 -10 -5 0 -7 5 -4 10 3 6 8 10 11 10 2 0 4 -4 4 -10z
m-20 -55 c0 -14 -27 -28 -40 -20 -4 3 -6 13 -3 24 5 21 43 18 43 -4z m36 -2
c-10 -10 -19 5 -10 18 6 11 8 11 12 0 2 -7 1 -15 -2 -18z m-107 -125 c1 -21
-3 -38 -9 -38 -6 0 -10 27 -9 63 1 46 3 56 9 37 4 -14 8 -42 9 -62z m159 26
c-5 -20 -7 -41 -5 -48 3 -7 1 -19 -4 -27 -6 -9 -9 5 -9 42 0 31 3 59 7 62 16
16 21 4 11 -29z m32 -115 c9 -49 1 -85 -11 -53 -9 23 -12 110 -3 101 4 -3 10
-25 14 -48z m-145 -10 c-6 -19 -9 -20 -16 -6 -11 20 0 52 13 39 6 -6 7 -20 3
-33z m-125 21 c0 -5 -4 -10 -10 -10 -5 0 -10 5 -10 10 0 6 5 10 10 10 6 0 10
-4 10 -10z m30 -80 c0 -5 -4 -10 -10 -10 -5 0 -10 5 -10 10 0 6 5 10 10 10 6
0 10 -4 10 -10z m197 -32 c-3 -8 -6 -5 -6 6 -1 11 2 17 5 13 3 -3 4 -12 1 -19z
m-167 -54 c0 -8 -4 -12 -10 -9 -5 3 -10 10 -10 16 0 5 5 9 10 9 6 0 10 -7 10
-16z m257 -51 c-3 -10 -5 -4 -5 12 0 17 2 24 5 18 2 -7 2 -21 0 -30z m-288
-65 c-1 -75 -2 -79 -11 -45 -9 34 -3 127 8 127 2 0 4 -37 3 -82z m205 67 c-4
-8 -10 -15 -14 -15 -4 0 -10 7 -14 15 -4 10 1 15 14 15 13 0 18 -5 14 -15z
m-177 -27 c-3 -8 -6 -5 -6 6 -1 11 2 17 5 13 3 -3 4 -12 1 -19z m263 -115 c0
-64 -3 -114 -6 -110 -3 3 -6 44 -5 92 1 66 -2 87 -13 91 -9 3 -12 12 -9 22 6
13 8 13 14 -4 7 -17 8 -17 8 4 1 12 3 22 6 22 3 0 5 -52 5 -117z m-166 92 c3
-8 1 -15 -4 -15 -6 0 -10 7 -10 15 0 8 2 15 4 15 2 0 6 -7 10 -15z m-112 -177
c2 -20 0 -34 -4 -32 -4 3 -8 24 -7 47 1 47 6 41 11 -15z m-22 -44 c0 -8 -4
-12 -10 -9 -5 3 -10 13 -10 21 0 8 5 12 10 9 6 -3 10 -13 10 -21z m37 -61 c-3
-10 -5 -4 -5 12 0 17 2 24 5 18 2 -7 2 -21 0 -30z m256 -54 c-8 -42 -16 -28
-20 34 -3 51 -3 51 12 24 8 -17 12 -40 8 -58z m-267 6 c-2 -7 1 -18 7 -24 8
-8 8 -11 -1 -11 -12 0 -32 31 -32 49 0 6 7 8 16 4 8 -3 13 -11 10 -18z m293
-95 c-1 -66 -14 -69 -15 -3 -1 41 2 60 7 52 5 -8 8 -30 8 -49z m-283 24 c-4
-11 7 -14 49 -14 51 0 69 -10 45 -25 -5 -3 -10 -1 -10 4 0 6 -18 11 -39 11
-39 0 -40 -1 -44 -37 l-4 -38 -1 41 c-1 22 -7 45 -13 51 -6 6 -8 16 -4 22 9
16 28 2 21 -15z m171 -16 c-3 -8 -6 -5 -6 6 -1 11 2 17 5 13 3 -3 4 -12 1 -19z
m-87 -88 c0 -5 -2 -10 -4 -10 -3 0 -8 5 -11 10 -3 6 -1 10 4 10 6 0 11 -4 11
-10z m230 -56 c0 -8 -4 -14 -10 -14 -5 0 -10 9 -10 21 0 11 5 17 10 14 6 -3
10 -13 10 -21z m-277 -11 c-14 -5 -18 -83 -4 -83 4 0 16 -19 25 -43 18 -48 21
-70 6 -47 -9 13 -11 13 -20 0 -7 -11 -10 -4 -10 27 0 23 -7 48 -15 57 -8 8
-15 32 -15 55 0 36 3 41 23 40 12 0 16 -3 10 -6z m264 -60 c-16 -16 -17 -15
-17 17 0 32 1 33 17 17 16 -16 16 -18 0 -34z m43 -43 c0 -10 -4 -22 -10 -25
-6 -4 -10 7 -10 25 0 18 4 29 10 25 6 -3 10 -15 10 -25z m20 -45 c0 -8 -4 -15
-10 -15 -5 0 -7 7 -4 15 4 8 8 15 10 15 2 0 4 -7 4 -15z m-33 -47 c-2 -13 -4
-5 -4 17 -1 22 1 32 4 23 2 -10 2 -28 0 -40z m-37 28 c0 -11 -19 -15 -25 -6
-3 5 1 10 9 10 9 0 16 -2 16 -4z m-210 -47 c0 -11 -4 -17 -10 -14 -5 3 -10 2
-10 -4 0 -5 3 -11 8 -14 4 -2 2 -2 -5 -1 -6 2 -14 -2 -17 -9 -3 -7 -3 2 1 18
7 37 11 45 24 45 5 0 9 -9 9 -21z m140 -19 c0 -5 -4 -10 -10 -10 -5 0 -10 5
-10 10 0 6 5 10 10 10 6 0 10 -4 10 -10z m40 0 c0 -5 -4 -10 -10 -10 -5 0 -10
5 -10 10 0 6 5 10 10 10 6 0 10 -4 10 -10z m120 0 c0 -5 -7 -10 -16 -10 -8 0
-12 5 -9 10 3 6 10 10 16 10 5 0 9 -4 9 -10z m2275 -8 c-3 -3 -11 0 -18 7 -9
10 -8 11 6 5 10 -3 15 -9 12 -12z m-2335 -12 c0 -5 -2 -10 -4 -10 -3 0 -8 5
-11 10 -3 6 -1 10 4 10 6 0 11 -4 11 -10z m2435 -36 c0 -19 -3 -34 -7 -34 -5
0 -8 19 -8 42 0 23 3 38 8 34 4 -4 7 -23 7 -42z m-108 4 c-3 -7 -5 -2 -5 12 0
14 2 19 5 13 2 -7 2 -19 0 -25z m-2429 0 c-3 -7 -11 -13 -18 -13 -7 0 -15 6
-17 13 -3 7 4 12 17 12 13 0 20 -5 18 -12z m197 2 c3 -5 1 -10 -4 -10 -6 0
-11 5 -11 10 0 6 2 10 4 10 3 0 8 -4 11 -10z m-30 -17 c3 -10 1 -19 -4 -21 -6
-2 -11 -10 -11 -18 0 -8 -5 -14 -11 -14 -7 0 -9 9 -5 23 3 12 6 28 6 35 0 18
17 15 25 -5z m2178 5 c-13 -6 -23 -20 -23 -31 0 -16 -3 -17 -15 -7 -19 16 -20
41 -1 34 8 -3 17 -1 21 5 3 6 14 11 23 10 13 0 12 -3 -5 -11z m137 -19 c0 -5
-4 -9 -10 -9 -5 0 -10 7 -10 16 0 8 5 12 10 9 6 -3 10 -10 10 -16z m-2600 -30
c0 -5 -7 -9 -15 -9 -9 0 -15 9 -15 21 0 18 2 19 15 9 8 -7 15 -16 15 -21z
m140 11 c0 -5 -7 -10 -15 -10 -8 0 -15 5 -15 10 0 6 7 10 15 10 8 0 15 -4 15
-10z m-90 -26 c0 -8 -4 -12 -10 -9 -5 3 -10 10 -10 16 0 5 5 9 10 9 6 0 10 -7
10 -16z m2350 -4 c0 -5 -4 -10 -10 -10 -5 0 -10 5 -10 10 0 6 5 10 10 10 6 0
10 -4 10 -10z m60 0 c0 -5 -4 -10 -10 -10 -5 0 -10 5 -10 10 0 6 5 10 10 10 6
0 10 -4 10 -10z m-2440 -10 c0 -5 -4 -10 -10 -10 -5 0 -10 5 -10 10 0 6 5 10
10 10 6 0 10 -4 10 -10z m270 -21 c0 -5 -4 -9 -10 -9 -5 0 -10 7 -10 16 0 8 5
12 10 9 6 -3 10 -10 10 -16z m2125 1 c3 -5 1 -10 -4 -10 -6 0 -11 5 -11 10 0
6 2 10 4 10 3 0 8 -4 11 -10z m-2305 -25 c0 -8 -4 -15 -10 -15 -5 0 -10 7 -10
15 0 8 5 15 10 15 6 0 10 -7 10 -15z m2515 -69 c-8 -80 -25 -105 -25 -36 0 22
5 40 10 40 6 0 10 19 10 42 0 23 3 39 6 35 3 -3 3 -40 -1 -81z m-195 44 c0
-11 -4 -20 -10 -20 -5 0 -10 9 -10 20 0 11 5 20 10 20 6 0 10 -9 10 -20z
m-2360 -24 c0 -7 7 -19 15 -26 17 -14 20 -50 5 -50 -5 0 -10 9 -10 20 0 11 -7
20 -15 20 -9 0 -15 9 -15 25 0 14 5 25 10 25 6 0 10 -6 10 -14z m67 -8 c-3 -8
-6 -5 -6 6 -1 11 2 17 5 13 3 -3 4 -12 1 -19z m248 2 c3 -5 1 -10 -4 -10 -6 0
-11 5 -11 10 0 6 2 10 4 10 3 0 8 -4 11 -10z m1982 -32 c-3 -8 -6 -5 -6 6 -1
11 2 17 5 13 3 -3 4 -12 1 -19z m26 -32 c3 -30 1 -43 -4 -35 -8 13 -13 97 -5
88 2 -2 6 -26 9 -53z m44 -8 c-2 -13 -4 -3 -4 22 0 25 2 35 4 23 2 -13 2 -33
0 -45z m253 17 c0 -7 3 -28 6 -46 l5 -34 -20 24 c-25 28 -29 84 -6 75 8 -4 15
-12 15 -19z m-215 -25 c3 -5 1 -10 -4 -10 -6 0 -11 5 -11 10 0 6 2 10 4 10 3
0 8 -4 11 -10z m65 0 c0 -5 -5 -10 -11 -10 -5 0 -7 5 -4 10 3 6 8 10 11 10 2
0 4 -4 4 -10z m-2425 -21 c11 -17 -1 -21 -15 -4 -8 9 -8 15 -2 15 6 0 14 -5
17 -11z m65 -4 c0 -8 5 -15 10 -15 6 0 10 -8 10 -17 0 -14 -3 -14 -20 5 -22
23 -26 42 -10 42 6 0 10 -7 10 -15z m75 5 c-3 -5 -13 -10 -21 -10 -8 0 -14 5
-14 10 0 6 9 10 21 10 11 0 17 -4 14 -10z m2125 -11 c0 -5 -4 -9 -10 -9 -5 0
-10 7 -10 16 0 8 5 12 10 9 6 -3 10 -10 10 -16z m-1988 -60 c7 -5 5 -15 -6
-30 l-17 -24 6 27 c6 24 4 27 -22 30 l-28 3 25 25 25 25 4 -25 c1 -14 8 -28
13 -31z m87 13 c-11 -2 -14 -11 -11 -35 4 -28 3 -30 -10 -19 -27 22 -29 52 -5
61 12 5 27 6 32 3 6 -4 3 -8 -6 -10z m1890 -32 c0 -9 -4 -8 -9 5 -5 11 -9 27
-9 35 0 9 4 8 9 -5 5 -11 9 -27 9 -35z m351 24 c0 -8 -4 -14 -10 -14 -5 0 -10
9 -10 21 0 11 5 17 10 14 6 -3 10 -13 10 -21z m-2570 -38 c0 -18 -3 -16 -15 8
-19 36 -19 57 0 32 8 -11 15 -29 15 -40z m2484 9 c3 -8 1 -15 -4 -15 -6 0 -10
7 -10 15 0 8 2 15 4 15 2 0 6 -7 10 -15z m-2414 -9 c0 -3 -4 -8 -10 -11 -5 -3
-10 -1 -10 4 0 6 5 11 10 11 6 0 10 -2 10 -4z m2171 -33 c-9 -16 -10 -14 -11
12 0 21 3 26 11 18 8 -8 8 -16 0 -30z m-1851 -9 c0 -2 -7 -4 -15 -4 -8 0 -15
4 -15 10 0 5 7 7 15 4 8 -4 15 -8 15 -10z m-340 -8 c0 -2 -7 -9 -15 -16 -12
-10 -15 -10 -15 4 0 9 7 16 15 16 8 0 15 -2 15 -4z m20 -33 c0 -24 -3 -33 -9
-25 -7 12 -4 62 5 62 2 0 4 -17 4 -37z m2510 33 c0 -3 -4 -8 -10 -11 -5 -3
-10 -1 -10 4 0 6 5 11 10 11 6 0 10 -2 10 -4z m-2162 -45 c-7 -2 -16 -8 -19
-13 -3 -5 -6 4 -6 20 0 27 1 28 19 13 13 -11 15 -17 6 -20z m2193 9 c5 0 9
-17 9 -37 0 -49 -16 -31 -23 27 -3 25 -3 37 0 28 2 -10 9 -18 14 -18z m-21
-28 c0 -5 -7 -17 -15 -28 -15 -19 -20 -8 -9 20 6 17 24 22 24 8z m-2114 -30
c11 -15 9 -18 -17 -25 -17 -4 -32 -14 -36 -22 -3 -8 -11 -15 -19 -15 -19 0
-18 36 2 44 11 4 14 13 11 27 -5 18 -2 20 21 14 14 -3 31 -14 38 -23z m-366 1
c0 9 5 17 10 17 13 0 13 -13 -1 -27 -7 -7 -6 -15 5 -26 9 -9 16 -24 17 -34 0
-10 3 -13 6 -5 5 14 33 17 33 3 0 -5 -9 -11 -20 -14 -24 -6 -60 27 -60 55 0
10 -7 18 -15 18 -16 0 -20 12 -8 23 3 4 12 -1 19 -11 13 -16 13 -16 14 1z m60
10 c-8 -3 -18 -11 -22 -17 -5 -7 -8 -4 -8 7 0 11 7 17 23 16 15 0 17 -2 7 -6z
m187 1 c-3 -3 -12 -4 -19 -1 -8 3 -5 6 6 6 11 1 17 -2 13 -5z m2083 -9 c0 -8
-4 -15 -10 -15 -5 0 -10 7 -10 15 0 8 5 15 10 15 6 0 10 -7 10 -15z m-130 -76
c0 -11 -4 -17 -10 -14 -5 3 -10 15 -10 26 0 11 5 17 10 14 6 -3 10 -15 10 -26z
m-1953 15 c-3 -3 -12 -4 -19 -1 -8 3 -5 6 6 6 11 1 17 -2 13 -5z m1933 -42 c0
-10 -4 -10 -16 2 -8 9 -12 21 -8 27 7 13 24 -7 24 -29z m180 23 c0 -18 -12
-19 -28 -3 -9 9 -15 9 -24 0 -16 -16 -28 -15 -28 3 0 11 11 15 40 15 29 0 40
-4 40 -15z m-2229 -51 c6 -8 4 -14 -8 -18 -10 -4 -14 -4 -11 0 4 4 3 15 -3 26
-5 10 -6 24 -2 31 5 8 9 6 11 -8 2 -11 8 -25 13 -31z m319 12 c0 -8 -4 -18
-10 -21 -5 -3 -10 -4 -10 -1 0 2 -3 11 -6 20 -4 11 -1 16 10 16 9 0 16 -6 16
-14z m1830 -11 c0 -23 -4 -25 -41 -25 -37 0 -40 -2 -34 -22 5 -20 4 -21 -5 -5
-15 24 -4 37 30 37 20 0 31 6 35 20 9 27 15 25 15 -5z m-2203 -10 c7 -21 -6
-33 -16 -16 -5 7 -14 10 -20 7 -6 -4 -11 -3 -11 3 0 9 15 18 33 20 4 1 10 -6
14 -14z m2428 5 c3 -5 1 -10 -4 -10 -6 0 -11 5 -11 10 0 6 2 10 4 10 3 0 8 -4
11 -10z m-2015 -40 c0 -5 -4 -10 -9 -10 -6 0 -13 5 -16 10 -3 6 1 10 9 10 9 0
16 -4 16 -10z m1767 -22 c-3 -7 -5 -2 -5 12 0 14 2 19 5 13 2 -7 2 -19 0 -25z
m-2147 7 c6 -8 17 -13 23 -12 7 1 12 -10 12 -24 0 -14 5 -32 12 -40 8 -10 9
-20 3 -29 -8 -12 -10 -10 -10 7 0 12 -9 27 -20 33 -11 6 -20 20 -20 30 0 11
-7 20 -15 20 -8 0 -15 7 -15 15 0 19 14 19 30 0z m2203 -10 c-7 -21 -13 -19
-13 6 0 11 4 18 10 14 5 -3 7 -12 3 -20z m44 3 c-3 -8 -6 -5 -6 6 -1 11 2 17
5 13 3 -3 4 -12 1 -19z m-1780 -43 c24 -10 38 -34 27 -44 -4 -3 -9 0 -11 7 -3
6 -13 12 -24 12 -10 0 -19 6 -19 14 0 8 -6 16 -14 19 -9 4 -12 14 -9 27 6 21
6 21 17 -2 6 -13 21 -27 33 -33z m1993 40 c0 -8 -4 -15 -10 -15 -5 0 -10 7
-10 15 0 8 5 15 10 15 6 0 10 -7 10 -15z m-2312 -33 c2 -12 -1 -22 -7 -22 -13
0 -32 35 -24 44 12 12 28 0 31 -22z m2022 -4 c0 -21 0 -21 -21 -2 -13 12 -22
15 -27 7 -5 -7 -11 -7 -20 3 -11 12 -6 14 28 14 34 0 40 -3 40 -22z m-1825 2
c-3 -5 -12 -10 -20 -10 -8 0 -17 5 -20 10 -4 6 5 10 20 10 15 0 24 -4 20 -10z
m2150 -10 c7 -23 -2 -60 -16 -60 -5 0 -9 18 -9 40 0 42 14 54 25 20z m-2400
-39 c-2 -9 -4 -22 -4 -28 -1 -7 -8 -13 -17 -13 -14 0 -14 2 1 16 11 11 13 20
6 27 -5 5 -7 16 -4 24 8 19 22 -3 18 -26z m2125 19 c0 -5 -4 -10 -10 -10 -5 0
-10 5 -10 10 0 6 5 10 10 10 6 0 10 -4 10 -10z m-2050 -25 c0 -18 -4 -23 -15
-19 -17 7 -17 7 -9 28 9 24 24 19 24 -9z m363 -14 c-4 -15 1 -20 24 -23 23 -4
25 -6 10 -12 -13 -6 -25 -2 -42 14 -25 23 -25 40 0 40 8 0 11 -7 8 -19z m1612
-52 c2 -30 2 -45 -1 -34 -3 11 -10 24 -15 30 -5 5 -9 25 -9 44 0 55 20 23 25
-40z m-2015 41 c0 -5 -4 -10 -10 -10 -5 0 -10 5 -10 10 0 6 5 10 10 10 6 0 10
-4 10 -10z m2080 0 c0 -5 -4 -10 -10 -10 -5 0 -10 5 -10 10 0 6 5 10 10 10 6
0 10 -4 10 -10z m315 -21 c5 -22 3 -34 -6 -40 -19 -12 -29 -11 -29 2 0 5 5 7
10 4 6 -4 10 7 9 27 0 27 -2 30 -9 13 -6 -15 -9 -16 -9 -4 -1 17 7 29 20 29 4
0 10 -14 14 -31z m-2405 -30 c5 -19 12 -23 31 -21 l24 4 -24 -21 c-28 -25 -32
-26 -25 -7 3 8 -3 17 -14 20 -22 7 -36 32 -26 47 10 16 28 4 34 -22z m397 -18
c-5 -2 -13 3 -18 10 -15 24 -10 30 9 12 10 -10 14 -20 9 -22z m1653 -8 c-11
-17 -11 -17 -6 0 3 10 7 26 7 35 1 15 2 15 6 0 2 -10 -1 -25 -7 -35z m-1584
28 c-4 -5 0 -12 6 -14 7 -3 0 -6 -15 -6 -24 -1 -26 1 -15 14 14 16 33 21 24 6z
m51 -17 c-3 -3 -12 -4 -19 -1 -8 3 -5 6 6 6 11 1 17 -2 13 -5z m1917 -9 c-4
-8 -8 -15 -10 -15 -2 0 -4 7 -4 15 0 8 4 15 10 15 5 0 7 -7 4 -15z m-2124 -4
c0 -6 -4 -13 -10 -16 -5 -3 -10 1 -10 9 0 9 5 16 10 16 6 0 10 -4 10 -9z m237
-15 c-3 -7 0 -19 6 -25 8 -8 7 -11 -6 -11 -11 0 -17 8 -17 25 0 14 5 25 11 25
6 0 9 -6 6 -14z m-506 -23 c-12 -20 -14 -14 -5 12 4 9 9 14 11 11 3 -2 0 -13
-6 -23z m2372 -13 c3 -11 2 -20 -3 -20 -8 0 -20 24 -20 41 0 17 17 1 23 -21z
m-1788 0 c-3 -5 -1 -10 6 -10 7 0 10 -3 6 -6 -3 -3 -16 1 -29 10 l-22 16 22 0
c13 0 20 -4 17 -10z m1402 -27 c-3 -10 -5 -4 -5 12 0 17 2 24 5 18 2 -7 2 -21
0 -30z m433 16 c0 -11 -4 -17 -10 -14 -5 3 -10 13 -10 21 0 8 5 14 10 14 6 0
10 -9 10 -21z m-86 -13 c-6 -15 -24 -23 -24 -11 0 8 24 34 28 30 1 -1 0 -10
-4 -19z m-1774 -2 c0 -10 -30 -30 -34 -22 -1 2 -7 10 -14 19 -10 13 -7 16 18
16 17 0 30 -6 30 -13z m70 0 c0 -8 -5 -12 -10 -9 -6 4 -8 11 -5 16 9 14 15 11
15 -7z m-570 -23 c5 -11 10 -28 10 -38 -1 -16 -2 -16 -12 2 -6 11 -17 24 -25
28 -7 5 -11 12 -8 18 10 15 23 11 35 -10z m2312 -23 c-9 -9 -12 -7 -12 12 0
19 3 21 12 12 9 -9 9 -15 0 -24z m-2122 12 c0 -5 -18 -10 -40 -10 -22 0 -40 5
-40 10 0 6 18 10 40 10 22 0 40 -4 40 -10z m1870 0 c0 -5 -7 -10 -15 -10 -8 0
-15 5 -15 10 0 6 7 10 15 10 8 0 15 -4 15 -10z m150 -11 c0 -5 -4 -9 -10 -9
-5 0 -10 7 -10 16 0 8 5 12 10 9 6 -3 10 -10 10 -16z m170 -8 c0 -40 -17 -48
-22 -11 -3 17 -2 32 0 35 13 13 22 2 22 -24z m-1842 1 c2 -7 -2 -10 -12 -6 -9
3 -16 11 -16 16 0 13 23 5 28 -10z m1382 -24 c0 -9 -4 -19 -9 -22 -5 -3 -9 10
-8 29 1 34 17 28 17 -7z m-1282 16 c-9 -10 -21 -13 -29 -8 -9 5 -8 9 7 15 31
12 39 10 22 -7z m-603 -14 c3 -5 1 -10 -4 -10 -6 0 -11 5 -11 10 0 6 2 10 4
10 3 0 8 -4 11 -10z m643 -8 c2 -7 -2 -10 -12 -6 -9 3 -16 11 -16 16 0 13 23
5 28 -10z m-528 -2 c0 -5 -4 -10 -10 -10 -5 0 -10 5 -10 10 0 6 5 10 10 10 6
0 10 -4 10 -10z m575 -20 c6 -10 -20 -23 -77 -40 -41 -13 -25 14 20 33 46 19
49 19 57 7z m1231 -37 c-7 -69 -7 -70 -16 -43 -12 37 -12 82 0 75 6 -3 10 -1
10 4 0 6 3 11 6 11 3 0 3 -21 0 -47z m451 15 c-3 -7 -5 -2 -5 12 0 14 2 19 5
13 2 -7 2 -19 0 -25z m-2148 -20 c1 -5 -6 -8 -15 -8 -11 0 -14 5 -10 16 3 9 6
21 7 27 0 12 17 -20 18 -35z m277 -5 c-11 -11 -19 6 -11 24 8 17 8 17 12 0 3
-10 2 -21 -1 -24z m-386 7 c0 -5 -4 -10 -10 -10 -5 0 -10 5 -10 10 0 6 5 10
10 10 6 0 10 -4 10 -10z m460 0 c0 -5 -7 -10 -15 -10 -8 0 -15 5 -15 10 0 6 7
10 15 10 8 0 15 -4 15 -10z m140 -15 c0 -8 -4 -15 -10 -15 -5 0 -10 7 -10 15
0 8 5 15 10 15 6 0 10 -7 10 -15z m1686 -12 c-10 -10 -19 5 -10 18 6 11 8 11
12 0 2 -7 1 -15 -2 -18z m-423 -3 c-3 -11 -7 -20 -9 -20 -2 0 -4 9 -4 20 0 11
4 20 9 20 5 0 7 -9 4 -20z m347 -15 c0 -19 -4 -35 -10 -35 -11 0 -14 53 -3 63
11 12 13 8 13 -28z m-460 2 c0 -12 -14 -38 -31 -56 -19 -21 -29 -41 -26 -52 3
-11 2 -19 -3 -19 -4 0 -10 10 -13 21 -6 21 28 79 45 79 4 0 8 8 8 18 0 17 8
32 17 32 2 0 3 -10 3 -23z m-1753 -2 c3 -9 3 -19 -1 -22 -8 -9 -37 18 -30 28
8 14 24 11 31 -6z m663 5 c0 -5 -7 -10 -15 -10 -8 0 -15 5 -15 10 0 6 7 10 15
10 8 0 15 -4 15 -10z m88 -12 c-2 -7 5 -12 14 -10 12 2 16 -2 12 -12 -4 -12
-11 -13 -32 -5 -18 7 -27 6 -33 -2 -5 -9 -11 -8 -24 4 -15 16 -15 18 7 26 33
14 58 13 56 -1z m1492 -3 c10 -12 10 -15 -4 -15 -9 0 -16 7 -16 15 0 8 2 15 4
15 2 0 9 -7 16 -15z m70 -5 c0 -5 -4 -10 -10 -10 -5 0 -10 5 -10 10 0 6 5 10
10 10 6 0 10 -4 10 -10z m-520 -20 c0 -5 -4 -10 -10 -10 -5 0 -10 5 -10 10 0
6 5 10 10 10 6 0 10 -4 10 -10z m60 0 c0 -5 -9 -10 -21 -10 -11 0 -17 5 -14
10 3 6 13 10 21 10 8 0 14 -4 14 -10z m-1824 -15 c-23 -17 -36 -19 -36 -6 0 5
10 12 23 14 12 2 24 5 27 5 3 1 -4 -5 -14 -13z m794 5 c0 -5 -4 -10 -10 -10
-5 0 -10 5 -10 10 0 6 5 10 10 10 6 0 10 -4 10 -10z m1483 -6 c-3 -9 -9 -12
-12 -7 -3 4 -10 11 -15 16 -5 4 0 7 12 7 15 0 20 -4 15 -16z m24 -41 c-12 -12
-19 -13 -33 -4 -17 11 -17 11 4 6 16 -5 22 -2 22 10 0 9 5 13 11 9 7 -4 6 -11
-4 -21z m-1466 -13 c27 4 59 0 59 -8 0 -4 -20 -7 -45 -7 -38 0 -45 3 -45 20 0
15 3 16 9 7 4 -8 14 -13 22 -12z m-503 -7 c2 -8 -5 -13 -17 -13 -12 0 -21 6
-21 16 0 18 31 15 38 -3z m632 -3 c0 -5 -2 -10 -4 -10 -3 0 -8 5 -11 10 -3 6
-1 10 4 10 6 0 11 -4 11 -10z m55 0 c-3 -5 -16 -10 -28 -10 -18 0 -19 2 -7 10
20 13 43 13 35 0z m615 0 c0 -5 -7 -10 -15 -10 -8 0 -15 5 -15 10 0 6 7 10 15
10 8 0 15 -4 15 -10z m645 -11 c11 -17 -1 -21 -15 -4 -8 9 -8 15 -2 15 6 0 14
-5 17 -11z m-1545 -14 c0 -8 -9 -15 -20 -15 -11 0 -20 7 -20 15 0 8 9 15 20
15 11 0 20 -7 20 -15z m341 5 c5 0 9 -4 9 -10 0 -15 -20 -12 -38 7 -16 16 -16
16 1 10 10 -4 23 -7 28 -7z m539 -6 c0 -2 -7 -4 -15 -4 -8 0 -15 4 -15 10 0 5
7 7 15 4 8 -4 15 -8 15 -10z m-1390 -14 c0 -5 -4 -10 -10 -10 -5 0 -10 5 -10
10 0 6 5 10 10 10 6 0 10 -4 10 -10z m1310 0 c0 -5 -5 -10 -11 -10 -5 0 -7 5
-4 10 3 6 8 10 11 10 2 0 4 -4 4 -10z m796 -17 c-10 -10 -19 5 -10 18 6 11 8
11 12 0 2 -7 1 -15 -2 -18z m-1161 7 c-3 -6 4 -10 17 -10 13 -1 34 -7 47 -14
l23 -13 -32 -7 c-44 -8 -88 -8 -94 2 -2 4 12 6 32 4 28 -2 33 -1 22 7 -8 6
-23 11 -32 11 -18 0 -23 11 -11 23 10 11 35 8 28 -3z m412 -2 c13 -22 12 -36
-4 -43 -9 -3 -18 -3 -21 0 -3 3 0 5 6 5 8 0 9 7 2 25 -10 26 2 35 17 13z m98
2 c4 -6 -7 -10 -25 -10 -18 0 -29 4 -25 10 3 6 15 10 25 10 10 0 22 -4 25 -10z
m-665 -10 c24 -15 7 -19 -20 -5 -15 8 -19 14 -10 14 8 1 22 -3 30 -9z m-496
-16 c12 -5 13 -10 5 -25 -14 -27 -29 -24 -29 6 0 27 1 28 24 19z m296 -4 c0
-5 -7 -10 -16 -10 -8 0 -12 5 -9 10 3 6 10 10 16 10 5 0 9 -4 9 -10z m1250 0
c0 -5 -4 -10 -10 -10 -5 0 -10 5 -10 10 0 6 5 10 10 10 6 0 10 -4 10 -10z
m250 1 c0 -5 -8 -12 -19 -16 -10 -3 -23 -15 -29 -28 -10 -20 -11 -20 -11 -3
-1 11 7 27 17 37 18 19 42 25 42 10z m45 -91 c-4 -39 -10 -70 -14 -70 -3 0 -7
28 -7 63 -1 45 1 55 7 37 8 -23 8 -23 5 5 -2 17 -7 39 -12 50 -8 19 -7 19 10
2 15 -15 17 -28 11 -87z m-2135 75 c0 -8 -7 -15 -15 -15 -16 0 -20 12 -8 23
11 12 23 8 23 -8z m399 -15 l-24 -20 24 -20 23 -20 -26 0 c-16 0 -26 5 -26 15
0 8 -4 15 -10 15 -5 0 -10 -7 -10 -15 0 -8 -7 -15 -15 -15 -22 0 -18 15 10 36
14 10 25 24 25 31 0 7 12 13 26 13 l26 0 -23 -20z m131 -20 c0 -22 -4 -40 -10
-40 -5 0 -10 18 -10 40 0 22 5 40 10 40 6 0 10 -18 10 -40z m240 0 c0 -22 -4
-40 -10 -40 -5 0 -10 -7 -10 -15 0 -8 -9 -15 -20 -15 -11 0 -20 7 -20 15 0 8
9 15 20 15 17 0 20 7 20 40 0 22 5 40 10 40 6 0 10 -18 10 -40z m-100 0 c0 -5
-18 -10 -40 -10 -22 0 -40 5 -40 10 0 6 18 10 40 10 22 0 40 -4 40 -10z m610
-25 c0 -8 -9 -15 -20 -15 -13 0 -18 5 -14 15 4 8 12 15 20 15 8 0 14 -7 14
-15z m-1280 -11 c0 -17 -22 -14 -28 4 -2 7 3 12 12 12 9 0 16 -7 16 -16z m190
6 c0 -5 -7 -10 -16 -10 -8 0 -12 5 -9 10 3 6 10 10 16 10 5 0 9 -4 9 -10z
m987 -6 c-3 -3 -12 -4 -19 -1 -8 3 -5 6 6 6 11 1 17 -2 13 -5z m690 0 c-3 -3
-12 -4 -19 -1 -8 3 -5 6 6 6 11 1 17 -2 13 -5z m218 -4 c-3 -5 -12 -10 -18
-10 -7 0 -6 4 3 10 19 12 23 12 15 0z m-2054 -27 c-12 -20 -14 -14 -5 12 4 9
9 14 11 11 3 -2 0 -13 -6 -23z m69 -13 c6 -21 18 -44 28 -49 16 -10 16 -10 0
-11 -10 0 -18 4 -18 9 0 5 -8 7 -19 4 -12 -3 -21 2 -25 14 -3 10 -9 25 -12 33
-4 12 -4 12 4 1 7 -9 11 -10 17 -2 4 7 1 18 -5 26 -10 12 -9 15 3 15 10 0 20
-15 27 -40z m1286 -8 c-12 -11 -18 7 -10 30 l8 23 4 -23 c2 -13 1 -26 -2 -30z
m771 -19 c-3 -10 -5 -4 -5 12 0 17 2 24 5 18 2 -7 2 -21 0 -30z m-1297 -9 c0
-2 -7 -4 -15 -4 -8 0 -15 4 -15 10 0 5 7 7 15 4 8 -4 15 -8 15 -10z m-595 1
c-23 -8 -83 -10 -79 -3 3 4 24 8 47 7 23 0 38 -2 32 -4z m325 -15 c0 -5 -18
-10 -40 -10 -22 0 -40 5 -40 10 0 6 18 10 40 10 22 0 40 -4 40 -10z m1036 -27
c-11 -11 -17 4 -9 23 7 18 8 18 11 1 2 -10 1 -21 -2 -24z m387 30 c-13 -2 -33
-2 -45 0 -13 2 -3 4 22 4 25 0 35 -2 23 -4z m-1703 -33 c0 -5 -4 -10 -10 -10
-5 0 -10 5 -10 10 0 6 5 10 10 10 6 0 10 -4 10 -10z m1575 1 c3 -5 1 -12 -5
-16 -5 -3 -10 1 -10 9 0 18 6 21 15 7z m287 -37 c4 -32 3 -34 -9 -18 -14 20
-17 37 -6 47 10 11 11 9 15 -29z m-57 -33 c-5 -13 -8 -13 -21 1 -13 13 -14 20
-3 39 l12 23 9 -24 c5 -13 6 -30 3 -39z m-86 33 c2 -2 -14 -4 -37 -4 -23 0
-42 -4 -42 -10 0 -5 -4 -10 -10 -10 -5 0 -10 8 -10 19 0 16 6 18 48 13 26 -2
49 -6 51 -8z m-379 -13 c0 -5 -7 -11 -15 -15 -9 -3 -15 0 -15 9 0 8 7 15 15
15 8 0 15 -4 15 -9z m60 -1 c0 -5 -4 -10 -10 -10 -5 0 -10 5 -10 10 0 6 5 10
10 10 6 0 10 -4 10 -10z m167 -16 c10 -21 10 -29 -2 -40 -21 -21 -25 -17 -25
26 0 46 10 51 27 14z m307 -30 c9 -22 8 -24 -9 -24 -8 0 -15 9 -15 20 0 24 15
27 24 4z m-627 -16 c-3 -8 -6 -5 -6 6 -1 11 2 17 5 13 3 -3 4 -12 1 -19z m93
2 c0 -5 -4 -10 -10 -10 -5 0 -10 5 -10 10 0 6 5 10 10 10 6 0 10 -4 10 -10z
m60 0 c0 -5 -4 -10 -10 -10 -5 0 -10 5 -10 10 0 6 5 10 10 10 6 0 10 -4 10
-10z m-890 -10 c-20 -13 -33 -13 -25 0 3 6 14 10 23 10 15 0 15 -2 2 -10z
m-506 -9 c3 -5 -1 -11 -9 -15 -9 -3 -15 0 -15 9 0 16 16 20 24 6z m676 -1 c0
-5 -2 -10 -4 -10 -3 0 -8 5 -11 10 -3 6 -1 10 4 10 6 0 11 -4 11 -10z m480
-32 c0 -16 -3 -19 -11 -11 -6 6 -8 16 -5 22 11 17 16 13 16 -11z m640 7 c0
-11 -11 -15 -40 -15 -29 0 -40 4 -40 15 0 11 11 15 40 15 29 0 40 -4 40 -15z
m-1700 -11 c0 -8 -4 -12 -10 -9 -5 3 -10 10 -10 16 0 5 5 9 10 9 6 0 10 -7 10
-16z m1787 -61 c-2 -16 -4 -5 -4 22 0 28 2 40 4 28 2 -13 2 -35 0 -50z m-327
42 c0 -8 -7 -15 -15 -15 -16 0 -20 12 -8 23 11 12 23 8 23 -8z m-816 -10 c18
-14 17 -15 -24 -15 -41 0 -42 1 -24 15 10 8 21 14 24 14 3 0 14 -6 24 -14z
m736 -15 c0 -5 -2 -10 -4 -10 -3 0 -8 5 -11 10 -3 6 -1 10 4 10 6 0 11 -4 11
-10z m340 3 c0 -5 -5 -15 -10 -23 -8 -12 -10 -11 -10 8 0 12 5 22 10 22 6 0
10 -3 10 -7z m-1720 -23 c0 -5 -8 -10 -17 -10 -16 -1 -16 -2 1 -15 16 -12 17
-15 4 -15 -21 0 -32 31 -16 42 18 11 28 10 28 -2z m950 0 c0 -5 -4 -10 -10
-10 -5 0 -10 5 -10 10 0 6 5 10 10 10 6 0 10 -4 10 -10z m-140 -14 c0 -3 -11
-17 -25 -32 -28 -30 -31 -27 -13 11 9 21 38 36 38 21z m-630 -26 c0 -5 -5 -10
-11 -10 -5 0 -7 5 -4 10 3 6 8 10 11 10 2 0 4 -4 4 -10z m771 -15 c0 -6 -9
-11 -21 -13 -27 -4 -28 -42 -1 -42 11 0 23 -5 26 -11 5 -7 -3 -9 -21 -7 -24 2
-30 8 -32 33 -3 19 2 33 14 42 20 14 36 13 35 -2z m-702 -81 c-13 -16 -29 -19
-29 -4 0 6 7 10 15 10 11 0 15 12 17 43 l1 42 4 -38 c3 -21 -1 -45 -8 -53z
m411 70 c0 -8 -4 -12 -10 -9 -5 3 -10 10 -10 16 0 5 5 9 10 9 6 0 10 -7 10
-16z m1127 -31 c-3 -10 -5 -2 -5 17 0 19 2 27 5 18 2 -10 2 -26 0 -35z m17
-32 c-4 -14 -6 -35 -5 -46 2 -17 0 -17 -8 -5 -14 19 -14 63 -1 55 6 -4 11 11
11 37 2 32 3 36 6 14 3 -15 1 -40 -3 -55z m-1750 44 c-4 -8 -10 -12 -15 -9
-14 8 -10 24 6 24 9 0 12 -6 9 -15z m526 -30 c0 -10 10 -15 28 -16 l27 0 -24
-12 c-19 -9 -25 -9 -29 1 -2 6 -12 12 -23 12 -10 0 -19 7 -19 15 0 8 9 15 20
15 11 0 20 -7 20 -15z m167 -7 c-3 -8 -6 -5 -6 6 -1 11 2 17 5 13 3 -3 4 -12
1 -19z m-628 -14 c10 -9 -45 -3 -59 6 -11 7 -5 8 20 4 19 -4 37 -8 39 -10z
m341 -4 c-20 -13 -40 -13 -40 0 0 6 12 10 28 10 21 0 24 -2 12 -10z m340 0 c0
-5 -4 -10 -10 -10 -5 0 -10 5 -10 10 0 6 5 10 10 10 6 0 10 -4 10 -10z m580 0
c0 -5 -4 -10 -10 -10 -5 0 -10 5 -10 10 0 6 5 10 10 10 6 0 10 -4 10 -10z
m110 6 c0 -9 -39 -13 -51 -5 -10 6 -4 9 19 9 17 0 32 -2 32 -4z m107 -58 c-2
-13 -4 -3 -4 22 0 25 2 35 4 23 2 -13 2 -33 0 -45z m-697 42 c0 -5 -5 -10 -11
-10 -5 0 -7 5 -4 10 3 6 8 10 11 10 2 0 4 -4 4 -10z m-777 -14 c12 4 17 1 17
-10 0 -12 -5 -13 -22 -7 -12 4 -24 14 -26 22 -3 11 -2 11 6 1 5 -7 16 -10 25
-6z m87 -6 c0 -5 -4 -10 -10 -10 -5 0 -10 5 -10 10 0 6 5 10 10 10 6 0 10 -4
10 -10z m70 0 c0 -5 -4 -10 -10 -10 -5 0 -10 5 -10 10 0 6 5 10 10 10 6 0 10
-4 10 -10z m885 0 c-3 -5 -10 -10 -16 -10 -5 0 -9 5 -9 10 0 6 7 10 16 10 8 0
12 -4 9 -10z m375 0 c0 -5 -7 -10 -15 -10 -8 0 -15 5 -15 10 0 6 7 10 15 10 8
0 15 -4 15 -10z m-700 -14 c0 -3 -4 -8 -10 -11 -5 -3 -10 -1 -10 4 0 6 5 11
10 11 6 0 10 -2 10 -4z m-382 -15 c10 -6 7 -10 -12 -13 -18 -4 -26 -1 -26 8 0
16 18 18 38 5z m156 3 c13 -5 14 -9 5 -20 -17 -21 -39 -17 -39 6 0 21 8 24 34
14z m166 -4 c0 -5 -4 -10 -10 -10 -5 0 -10 5 -10 10 0 6 5 10 10 10 6 0 10 -4
10 -10z m575 0 c3 -5 -1 -10 -10 -10 -9 0 -13 5 -10 10 3 6 8 10 10 10 2 0 7
-4 10 -10z m55 -6 c0 -2 -7 -4 -15 -4 -8 0 -15 4 -15 10 0 5 7 7 15 4 8 -4 15
-8 15 -10z m-1170 -4 c0 -5 -4 -10 -10 -10 -5 0 -10 5 -10 10 0 6 5 10 10 10
6 0 10 -4 10 -10z m1247 4 c-3 -3 -12 -4 -19 -1 -8 3 -5 6 6 6 11 1 17 -2 13
-5z m-967 -8 c0 -11 -19 -15 -25 -6 -3 5 1 10 9 10 9 0 16 -2 16 -4z m568 -8
c-6 -18 -28 -21 -28 -4 0 9 7 16 16 16 9 0 14 -5 12 -12z m182 -3 c0 -8 -4
-15 -10 -15 -5 0 -10 7 -10 15 0 8 5 15 10 15 6 0 10 -7 10 -15z m530 5 c0 -5
-2 -10 -4 -10 -3 0 -8 5 -11 10 -3 6 -1 10 4 10 6 0 11 -4 11 -10z m-1609 -47
c8 -16 18 -32 24 -36 6 -5 2 -7 -8 -5 -11 2 -25 18 -32 36 -17 39 -4 43 16 5z
m1369 12 c0 -8 -4 -15 -10 -15 -5 0 -10 7 -10 15 0 8 5 15 10 15 6 0 10 -7 10
-15z m250 -23 c0 -15 -2 -15 -10 -2 -13 20 -13 33 0 25 6 -3 10 -14 10 -23z
m-580 3 c0 -8 -9 -15 -20 -15 -25 0 -26 17 -2 23 9 3 18 5 20 6 1 0 2 -6 2
-14z m67 -7 c-3 -8 -6 -5 -6 6 -1 11 2 17 5 13 3 -3 4 -12 1 -19z m-382 2 c3
-5 1 -10 -4 -10 -6 0 -11 5 -11 10 0 6 2 10 4 10 3 0 8 -4 11 -10z m-625 -14
c0 -2 -7 -6 -15 -10 -8 -3 -15 -1 -15 4 0 6 7 10 15 10 8 0 15 -2 15 -4z m687
-2 c-3 -3 -12 -4 -19 -1 -8 3 -5 6 6 6 11 1 17 -2 13 -5z m-657 -20 c0 -8 -4
-12 -10 -9 -5 3 -10 10 -10 16 0 5 5 9 10 9 6 0 10 -7 10 -16z m605 -4 c-3 -5
-10 -10 -16 -10 -5 0 -9 5 -9 10 0 6 7 10 16 10 8 0 12 -4 9 -10z m872 -37
c-3 -10 -5 -2 -5 17 0 19 2 27 5 18 2 -10 2 -26 0 -35z m-1537 23 c0 -10 -9
-13 -27 -11 -40 5 -41 6 -13 15 37 12 40 11 40 -4z m720 -6 c0 -5 -7 -10 -16
-10 -8 0 -12 5 -9 10 3 6 10 10 16 10 5 0 9 -4 9 -10z m-46 -29 c4 -5 -3 -7
-14 -4 -23 6 -26 13 -6 13 8 0 17 -4 20 -9z m-574 -27 c0 -14 -4 -23 -10 -19
-5 3 -10 15 -10 26 0 10 5 19 10 19 6 0 10 -12 10 -26z m80 22 c0 -3 -4 -8
-10 -11 -5 -3 -10 -1 -10 4 0 6 5 11 10 11 6 0 10 -2 10 -4z m240 0 c0 -3 -4
-8 -10 -11 -5 -3 -10 -1 -10 4 0 6 5 11 10 11 6 0 10 -2 10 -4z m307 -18 c-3
-8 -6 -5 -6 6 -1 11 2 17 5 13 3 -3 4 -12 1 -19z m103 18 c0 -2 -7 -6 -15 -10
-8 -3 -15 -1 -15 4 0 6 7 10 15 10 8 0 15 -2 15 -4z m690 -38 c-1 -35 -3 -40
-11 -25 -10 17 -5 67 6 67 3 0 5 -19 5 -42z m-560 2 c0 -5 -21 -10 -46 -10
-27 0 -43 4 -39 10 3 6 24 10 46 10 21 0 39 -4 39 -10z m40 0 c0 -5 -4 -10
-10 -10 -5 0 -10 5 -10 10 0 6 5 10 10 10 6 0 10 -4 10 -10z m-924 -74 c-1
-34 -5 -52 -11 -49 -18 6 -9 103 9 103 1 0 2 -24 2 -54z m579 44 c3 -5 1 -10
-4 -10 -6 0 -11 5 -11 10 0 6 2 10 4 10 3 0 8 -4 11 -10z m-549 -49 c-2 -64
-12 -74 -15 -16 -2 39 3 65 13 65 2 0 2 -22 2 -49z m54 35 c0 -3 -4 -8 -10
-11 -5 -3 -10 -1 -10 4 0 6 5 11 10 11 6 0 10 -2 10 -4z m1284 -12 c3 -9 6
-23 6 -32 -1 -15 -3 -14 -15 2 -17 22 -20 46 -6 46 5 0 12 -7 15 -16z m-1104
-20 c0 -8 -4 -14 -10 -14 -5 0 -10 9 -10 21 0 11 5 17 10 14 6 -3 10 -13 10
-21z m555 6 c3 -5 1 -10 -4 -10 -6 0 -11 5 -11 10 0 6 2 10 4 10 3 0 8 -4 11
-10z m-735 -51 c0 -6 -4 -7 -10 -4 -5 3 -10 11 -10 16 0 6 5 7 10 4 6 -3 10
-11 10 -16z m1257 -5 c3 -9 1 -19 -4 -23 -6 -3 -13 -16 -17 -28 -10 -33 -26
-28 -26 8 0 20 4 28 12 23 8 -5 9 0 6 14 -7 26 19 31 29 6z m-1114 -1 c-13 -2
-33 -2 -45 0 -13 2 -3 4 22 4 25 0 35 -2 23 -4z m1187 -19 c0 -14 -4 -23 -10
-19 -5 3 -10 15 -10 26 0 10 5 19 10 19 6 0 10 -12 10 -26z m-370 -30 c0 -11
-5 -14 -16 -10 -9 3 -21 6 -27 7 -7 0 -3 4 8 9 29 13 35 12 35 -6z m350 -21
c0 -21 -3 -24 -10 -13 -7 12 -10 11 -15 -5 -12 -36 -28 -65 -37 -65 -4 0 -8 4
-8 8 0 10 60 102 66 102 2 0 4 -12 4 -27z m-1358 -28 c3 -13 1 -22 -3 -19 -9
5 -13 44 -5 44 2 0 6 -11 8 -25z m123 -15 c0 -18 -6 -35 -12 -37 -9 -3 -13 8
-13 37 0 29 4 40 13 38 6 -3 12 -20 12 -38z m215 24 c0 -8 -4 -12 -10 -9 -5 3
-10 10 -10 16 0 5 5 9 10 9 6 0 10 -7 10 -16z m-299 -34 c5 0 9 -9 9 -21 0
-38 -23 -14 -25 26 -2 22 -1 30 2 18 2 -13 9 -23 14 -23z m751 5 c0 -5 -5 -11
-11 -13 -6 -2 -11 4 -11 13 0 9 5 15 11 13 6 -2 11 -8 11 -13z m-395 -31 c-3
-3 -12 -4 -19 -1 -8 3 -5 6 6 6 11 1 17 -2 13 -5z m453 -24 c0 -11 -7 -20 -15
-20 -8 0 -15 9 -15 20 0 11 7 20 15 20 8 0 15 -9 15 -20z m400 -5 c0 -22 -3
-24 -19 -16 -31 17 -34 41 -6 41 20 0 25 -5 25 -25z m-1191 -27 c9 -14 10 -23
3 -26 -5 -1 -7 -12 -4 -24 4 -15 2 -19 -7 -14 -7 5 -11 20 -10 34 2 15 0 33
-4 40 -5 6 -4 12 0 12 5 0 14 -10 22 -22z m540 -2 c10 -12 8 -13 -8 -9 -12 3
-28 0 -36 -7 -18 -15 -30 -7 -22 15 8 19 51 20 66 1z m346 -16 c3 -5 1 -10 -4
-10 -6 0 -11 5 -11 10 0 6 2 10 4 10 3 0 8 -4 11 -10z m-776 -90 c5 0 12 10
16 23 6 20 8 20 12 3 4 -17 -11 -35 -29 -36 -14 0 -38 59 -31 77 5 13 9 7 16
-24 4 -24 12 -43 16 -43z m930 38 c0 -35 -2 -39 -9 -21 -8 19 -3 63 6 63 2 0
4 -19 3 -42z m69 -8 c-3 -27 -1 -47 4 -44 4 3 8 -1 8 -10 0 -8 6 -17 13 -20 8
-3 7 -8 -6 -16 -9 -6 -14 -16 -11 -22 5 -7 2 -8 -5 -3 -7 4 -10 17 -7 28 3 12
-2 29 -11 39 -10 11 -12 18 -5 18 7 0 12 16 12 40 0 22 3 40 6 40 4 0 4 -22 2
-50z m-1068 10 c0 -11 -4 -20 -10 -20 -5 0 -10 9 -10 20 0 11 5 20 10 20 6 0
10 -9 10 -20z m1134 -25 c6 -17 -15 -30 -36 -22 -8 4 -7 6 4 6 11 1 15 6 12
16 -4 8 -2 15 4 15 5 0 13 -7 16 -15z m-307 -11 c-3 -3 -12 -4 -19 -1 -8 3 -5
6 6 6 11 1 17 -2 13 -5z m-807 -33 c0 -9 -4 -21 -9 -26 -5 -6 -11 -28 -14 -50
-3 -33 -4 -30 -5 17 -1 31 1 63 4 72 8 20 24 11 24 -13z m497 -33 c-2 -13 -4
-3 -4 22 0 25 2 35 4 23 2 -13 2 -33 0 -45z m70 0 c-2 -13 -4 -3 -4 22 0 25 2
35 4 23 2 -13 2 -33 0 -45z m539 15 c-10 -10 -19 5 -10 18 6 11 8 11 12 0 2
-7 1 -15 -2 -18z m-96 -19 c0 -8 5 -14 10 -14 6 0 10 -5 10 -10 0 -7 -6 -7
-20 0 -11 6 -20 20 -20 31 0 11 5 17 10 14 6 -3 10 -13 10 -21z m-120 -4 c0
-5 -5 -10 -11 -10 -5 0 -7 5 -4 10 3 6 8 10 11 10 2 0 4 -4 4 -10z m87 -12
c-3 -8 -6 -5 -6 6 -1 11 2 17 5 13 3 -3 4 -12 1 -19z m-966 -13 c6 16 8 14 8
-12 1 -17 6 -35 11 -38 8 -5 7 -11 0 -20 -6 -8 -15 -26 -20 -42 -7 -24 -8 -19
-9 27 -1 30 -3 64 -5 75 -2 11 -1 13 2 5 4 -12 6 -11 13 5z m76 -7 c-3 -8 -6
-5 -6 6 -1 11 2 17 5 13 3 -3 4 -12 1 -19z m706 11 c-8 -8 -16 -8 -30 0 -16 9
-14 10 12 11 21 0 26 -3 18 -11z m164 5 c-3 -3 -12 -4 -19 -1 -8 3 -5 6 6 6
11 1 17 -2 13 -5z m-136 -27 c-13 -13 -26 -3 -16 12 3 6 11 8 17 5 6 -4 6 -10
-1 -17z m73 8 c-4 -8 -10 -12 -15 -9 -11 6 -2 24 11 24 5 0 7 -7 4 -15z m96
-25 c17 -11 12 -17 -15 -20 -41 -5 -48 -1 -35 15 14 17 29 19 50 5z m-325 -20
c3 -5 1 -10 -4 -10 -6 0 -11 5 -11 10 0 6 2 10 4 10 3 0 8 -4 11 -10z m-187
-7 c-13 -3 -18 -15 -18 -44 0 -21 5 -39 10 -39 18 0 53 -38 45 -49 -8 -14 -25
-14 -25 -1 0 6 -11 21 -25 34 -18 16 -25 34 -25 59 0 29 -4 36 -22 40 -13 2 0
4 27 4 28 1 42 -1 33 -4z m358 -15 c4 -6 3 -8 -4 -4 -5 3 -13 0 -15 -6 -3 -8
-6 -6 -6 5 -1 19 14 23 25 5z m-206 -28 c0 -13 -7 -20 -20 -20 -13 0 -20 7
-20 20 0 13 7 20 20 20 13 0 20 -7 20 -20z m329 -22 c-24 -23 -36 -20 -25 7 3
8 15 15 27 15 22 0 22 0 -2 -22z m-893 -15 c-10 -10 -19 5 -10 18 6 11 8 11
12 0 2 -7 1 -15 -2 -18z m741 5 c-3 -8 -6 -5 -6 6 -1 11 2 17 5 13 3 -3 4 -12
1 -19z m83 7 c0 -8 5 -15 12 -15 6 0 9 -2 6 -5 -9 -10 -35 5 -35 20 0 8 4 15
9 15 4 0 8 -7 8 -15z m-640 -5 c0 -5 -18 -10 -40 -10 -22 0 -40 5 -40 10 0 6
18 10 40 10 22 0 40 -4 40 -10z m130 -50 c0 -5 -4 -10 -10 -10 -5 0 -10 5 -10
10 0 6 5 10 10 10 6 0 10 -4 10 -10z m346 -17 c-10 -10 -19 5 -10 18 6 11 8
11 12 0 2 -7 1 -15 -2 -18z m94 13 c0 -33 -29 -46 -49 -22 -10 11 -8 15 6 19
25 7 43 8 43 3z m-811 -78 c0 -40 -3 -83 -6 -95 -9 -42 -23 -24 -22 27 1 28 6
50 11 50 4 0 8 20 8 45 0 25 2 45 5 45 3 0 5 -33 4 -72z m429 54 c2 -7 -3 -12
-12 -12 -9 0 -16 7 -16 16 0 17 22 14 28 -4z m-333 -2 c3 -5 1 -10 -4 -10 -6
0 -11 5 -11 10 0 6 2 10 4 10 3 0 8 -4 11 -10z m598 -7 c-7 -2 -13 -11 -13
-19 0 -9 -4 -12 -10 -9 -19 12 -10 35 13 34 12 0 16 -3 10 -6z m62 -22 c-3 -6
-11 -11 -17 -11 -6 0 -6 6 2 15 14 17 26 13 15 -4z m-435 -21 c0 -5 -18 -10
-40 -10 -22 0 -40 5 -40 10 0 6 18 10 40 10 22 0 40 -4 40 -10z m460 -10 c-19
-13 -30 -13 -30 0 0 6 10 10 23 10 18 0 19 -2 7 -10z m-380 -19 c0 -12 -36
-20 -60 -14 -34 9 -22 23 20 23 22 0 40 -4 40 -9z m322 -14 c-12 -6 -22 -14
-22 -19 0 -4 -6 -8 -12 -8 -7 0 -1 11 12 24 14 13 29 21 34 18 6 -3 0 -10 -12
-15z m-142 -16 c0 -5 -7 -11 -15 -15 -9 -3 -15 0 -15 9 0 8 7 15 15 15 8 0 15
-4 15 -9z m95 -10 c3 -8 2 -17 -1 -20 -4 -3 -9 0 -11 7 -3 6 -8 10 -12 7 -5
-2 -17 2 -27 10 -18 13 -17 14 13 12 18 -1 35 -8 38 -16z m-607 -52 c-7 -5
-20 -8 -28 -8 -10 0 -11 2 -2 6 6 2 12 15 12 28 0 13 6 25 13 28 17 5 22 -44
5 -54z m468 4 c-10 -10 -19 5 -10 18 6 11 8 11 12 0 2 -7 1 -15 -2 -18z m104
17 c0 -5 -10 -10 -22 -10 -19 0 -20 2 -8 10 19 13 30 13 30 0z m-40 -25 c0 -3
-10 -10 -22 -15 -13 -5 -33 -17 -45 -26 -15 -10 -23 -12 -23 -5 0 6 11 16 24
21 13 5 27 14 31 19 6 11 35 15 35 6z m-620 -45 c0 -16 -4 -30 -8 -30 -5 0 -7
14 -4 30 2 17 6 30 8 30 2 0 4 -13 4 -30z m507 -12 c-3 -7 -5 -2 -5 12 0 14 2
19 5 13 2 -7 2 -19 0 -25z m-422 12 c3 -5 -3 -10 -15 -10 -12 0 -18 5 -15 10
3 6 10 10 15 10 5 0 12 -4 15 -10z m5 -46 c0 -8 -4 -12 -10 -9 -5 3 -10 10
-10 16 0 5 5 9 10 9 6 0 10 -7 10 -16z m122 4 c-9 -9 -15 -9 -24 0 -9 9 -7 12
12 12 19 0 21 -3 12 -12z m132 -3 c-4 -8 -15 -15 -25 -15 -27 0 -24 18 4 23
12 2 23 5 24 6 1 0 0 -6 -3 -14z m106 4 c0 -6 -7 -9 -15 -5 -8 3 -15 1 -15 -4
0 -6 -15 -9 -32 -9 -28 2 -29 2 -8 6 14 3 29 9 35 14 13 13 35 11 35 -2z
m-261 -54 c-1 -17 -2 -17 -6 -2 -2 9 -8 17 -13 17 -5 0 -7 7 -3 16 5 13 7 13
14 2 5 -7 8 -22 8 -33z m-222 -2 c-3 -10 -5 -4 -5 12 0 17 2 24 5 18 2 -7 2
-21 0 -30z m80 -5 c-3 -7 -5 -2 -5 12 0 14 2 19 5 13 2 -7 2 -19 0 -25z m203
17 c-7 -8 -16 -15 -20 -15 -4 0 -10 7 -14 15 -4 11 2 15 21 15 21 0 24 -2 13
-15z m140 3 c0 -5 -17 -8 -37 -8 -21 0 -33 4 -26 8 15 9 63 9 63 0z m-386 -36
c-6 -20 -24 -32 -24 -14 1 23 14 52 21 45 5 -5 6 -18 3 -31z m281 8 c-3 -5
-11 -10 -16 -10 -6 0 -7 5 -4 10 3 6 11 10 16 10 6 0 7 -4 4 -10z m-80 -20 c2
-3 -21 -6 -51 -6 -30 1 -54 5 -54 9 0 9 99 7 105 -3z m-255 -21 c0 -6 -5 -20
-11 -32 -9 -20 -9 -20 4 -4 18 21 43 22 51 1 3 -8 10 -12 16 -9 5 3 10 2 10
-4 0 -5 -16 -8 -37 -5 -29 3 -33 2 -18 -5 l20 -10 -20 0 c-32 -1 -43 12 -38
47 5 29 23 47 23 21z m107 -44 c-24 -24 -29 -18 -10 11 9 15 19 22 21 15 2 -6
-3 -18 -11 -26z"/>
<path d="M3336 6732 c-4 -6 -2 -30 3 -54 11 -47 21 -219 24 -403 2 -129 -11
-690 -19 -820 l-6 -90 47 -104 c121 -265 245 -446 438 -634 192 -187 398 -315
662 -409 101 -36 325 -91 334 -82 2 2 -7 18 -21 36 -52 70 -103 210 -137 377
-19 92 -26 143 -51 346 -6 50 -13 240 -15 423 -5 357 -13 418 -65 536 -28 62
-106 141 -165 166 -63 27 -71 21 -71 -53 0 -34 -5 -252 -12 -484 -7 -231 -12
-489 -12 -571 0 -151 -7 -181 -34 -151 -43 48 -61 264 -50 594 13 368 9 613
-9 710 -46 237 -131 361 -257 373 -27 2 -60 2 -74 -2 -22 -5 -26 -12 -26 -44
0 -21 7 -81 16 -133 13 -74 15 -137 11 -299 -5 -217 -36 -826 -42 -847 -3 -7
-11 -10 -19 -7 -31 12 -60 213 -80 549 -30 491 -36 574 -52 657 -39 209 -111
351 -203 397 -47 25 -107 36 -115 23z"/>
<path d="M4065 3591 c42 -42 65 -52 65 -26 0 8 -5 15 -11 15 -6 0 -18 9 -27
19 -10 11 -28 22 -42 26 -22 6 -21 3 15 -34z"/>
</g>
</svg>
