<!DOCTYPE svg PUBLIC "-//W3C//DTD SVG 1.1//EN" "http://www.w3.org/Graphics/SVG/1.1/DTD/svg11.dtd">
<!-- Uploaded to: SVG Repo, www.svgrepo.com, Transformed by: SVG Repo Mixer Tools -->
<svg fill="#63a184" height="800px" width="800px" version="1.1" id="Layer_1" xmlns="http://www.w3.org/2000/svg" xmlns:xlink="http://www.w3.org/1999/xlink" viewBox="0 0 512 512" xml:space="preserve" stroke="#63a184">
<g id="SVGRepo_bgCarrier" stroke-width="0"/>
<g id="SVGRepo_tracerCarrier" stroke-linecap="round" stroke-linejoin="round"/>
<g id="SVGRepo_iconCarrier"> <g> <g> <g> <path d="M461.817,104.116c-2.118-4.651-7.608-6.702-12.256-4.587c-4.651,2.118-6.704,7.605-4.587,12.257 c15.599,34.255,23.844,84.123,23.844,144.213c0,78.659-14.171,138.802-40.096,171.186 c-25.924-32.384-40.096-92.527-40.096-171.186c0-85.044,16.563-148.441,46.639-178.516c0.012-0.012,0.022-0.026,0.035-0.038 c1.71-1.689,2.676-4.112,2.676-6.508V9.253c0-3.742-2.254-7.117-5.712-8.549c-3.456-1.431-7.437-0.643-10.083,2.005 l-18.132,18.132L385.916,2.709c-3.614-3.612-9.473-3.612-13.085,0l-18.132,18.132L336.567,2.709 c-3.614-3.612-9.473-3.612-13.085,0l-18.132,18.132L287.217,2.709c-3.614-3.612-9.473-3.612-13.085,0L256,20.842L237.868,2.709 c-3.614-3.612-9.473-3.612-13.085,0l-18.132,18.132L188.519,2.709c-3.614-3.612-9.473-3.612-13.085,0l-18.132,18.132 L139.169,2.709c-3.614-3.612-9.473-3.612-13.085,0l-18.132,18.132L89.82,2.709c-2.646-2.648-6.626-3.436-10.083-2.005 c-3.458,1.431-5.712,4.807-5.712,8.549v58.005C33.344,111.095,24.675,193.711,24.675,256c0,5.111,4.143,9.253,9.253,9.253 s9.253-4.142,9.253-9.253c0-82.575,15.619-144.737,44.057-175.807H409.11C377.283,126.019,370.12,199.398,370.12,256 c0,56.601,7.163,129.981,38.99,175.807H87.234c-24.15-26.343-38.988-74.388-42.973-139.361c-0.312-5.102-4.698-8.93-9.802-8.669 c-5.1,0.313-8.982,4.703-8.668,9.802c4.33,70.594,20.554,121.435,48.236,151.212v57.956c0,3.742,2.254,7.117,5.712,8.549 c3.457,1.434,7.438,0.643,10.083-2.005l18.13-18.133l18.132,18.132c3.614,3.612,9.473,3.612,13.085,0l18.132-18.132 l18.132,18.132c3.614,3.612,9.473,3.612,13.085,0l18.132-18.132l18.132,18.132c3.614,3.612,9.473,3.612,13.085,0L256,491.156 l18.132,18.132c3.614,3.612,9.473,3.612,13.085,0l18.132-18.132l18.132,18.132c3.614,3.612,9.473,3.612,13.085,0l18.132-18.132 l18.132,18.132c3.614,3.612,9.473,3.612,13.085,0l18.132-18.132l18.132,18.132c1.77,1.77,4.137,2.709,6.545,2.709 c1.192,0,2.395-0.231,3.54-0.705c3.458-1.431,5.712-4.807,5.712-8.548V444.74c40.68-43.836,49.348-126.451,49.348-188.74 C487.325,212.265,482.899,150.414,461.817,104.116z M92.531,61.687V31.591l8.879,8.879c3.614,3.612,9.473,3.612,13.085,0 l18.132-18.132l18.132,18.132c3.614,3.612,9.473,3.612,13.085,0l18.132-18.132l18.132,18.132c3.614,3.612,9.473,3.612,13.085,0 l18.132-18.132l18.132,18.132c3.614,3.612,9.473,3.612,13.085,0l18.132-18.132l18.132,18.132c3.614,3.612,9.473,3.612,13.085,0 l18.132-18.132l18.132,18.132c3.614,3.612,9.473,3.612,13.085,0l18.132-18.132l18.132,18.132c3.614,3.612,9.473,3.612,13.085,0 l8.879-8.879v30.096H92.531z M419.47,480.407l-8.879-8.879c-3.614-3.612-9.473-3.612-13.085,0l-18.132,18.132l-18.132-18.132 c-1.806-1.806-4.175-2.709-6.542-2.709s-4.736,0.903-6.542,2.709l-18.132,18.132l-18.132-18.132 c-3.614-3.612-9.473-3.612-13.085,0l-18.132,18.132l-18.132-18.132c-3.614-3.612-9.473-3.612-13.085,0l-18.132,18.132 l-18.132-18.132c-3.614-3.612-9.473-3.612-13.085,0l-18.132,18.132l-18.132-18.132c-3.614-3.612-9.473-3.612-13.085,0 l-18.132,18.132l-18.132-18.132c-3.614-3.612-9.473-3.612-13.085,0l-8.879,8.879v-30.094H419.47V480.407z"/> <path d="M302.265,256c0-52.721-42.892-95.614-95.614-95.614S111.037,203.277,111.037,256s42.892,95.614,95.614,95.614 S302.265,308.721,302.265,256z M129.543,256c0-42.518,34.591-77.108,77.108-77.108c42.517,0,77.108,34.59,77.108,77.108 s-34.59,77.108-77.108,77.108C164.133,333.108,129.543,298.518,129.543,256z"/> </g> </g> </g> </g>
</svg>